<svg width="385" height="304" viewBox="0 0 385 304" fill="none" xmlns="http://www.w3.org/2000/svg">
<mask id="path-1-outside-1_1_56" maskUnits="userSpaceOnUse" x="0" y="10" width="373" height="62" fill="black">
<rect fill="white" y="10" width="373" height="62"/>
<path d="M28.5352 41.8496H37.2949C37.1191 44.7207 36.3281 47.2695 34.9219 49.4961C33.5352 51.7227 31.5918 53.4609 29.0918 54.7109C26.6113 55.9609 23.623 56.5859 20.127 56.5859C17.3926 56.5859 14.9414 56.1172 12.7734 55.1797C10.6055 54.2227 8.75 52.8555 7.20703 51.0781C5.68359 49.3008 4.52148 47.1523 3.7207 44.6328C2.91992 42.1133 2.51953 39.291 2.51953 36.166V33.207C2.51953 30.082 2.92969 27.2598 3.75 24.7402C4.58984 22.2012 5.78125 20.043 7.32422 18.2656C8.88672 16.4883 10.752 15.1211 12.9199 14.1641C15.0879 13.207 17.5098 12.7285 20.1855 12.7285C23.7402 12.7285 26.7383 13.373 29.1797 14.6621C31.6406 15.9512 33.5449 17.7285 34.8926 19.9941C36.2598 22.2598 37.0801 24.8379 37.3535 27.7285H28.5645C28.4668 26.0098 28.125 24.5547 27.5391 23.3633C26.9531 22.1523 26.0645 21.2441 24.873 20.6387C23.7012 20.0137 22.1387 19.7012 20.1855 19.7012C18.7207 19.7012 17.4414 19.9746 16.3477 20.5215C15.2539 21.0684 14.3359 21.8984 13.5938 23.0117C12.8516 24.125 12.2949 25.5312 11.9238 27.2305C11.5723 28.9102 11.3965 30.8828 11.3965 33.1484V36.166C11.3965 38.373 11.5625 40.3164 11.8945 41.9961C12.2266 43.6562 12.7344 45.0625 13.418 46.2148C14.1211 47.3477 15.0195 48.207 16.1133 48.793C17.2266 49.3594 18.5645 49.6426 20.127 49.6426C21.9629 49.6426 23.4766 49.3496 24.668 48.7637C25.8594 48.1777 26.7676 47.3086 27.3926 46.1562C28.0371 45.0039 28.418 43.5684 28.5352 41.8496ZM82.3055 33.6758V35.6973C82.3055 38.9395 81.866 41.8496 80.9871 44.4277C80.1082 47.0059 78.868 49.2031 77.2664 51.0195C75.6648 52.8164 73.7508 54.1934 71.5242 55.1504C69.3172 56.1074 66.866 56.5859 64.1707 56.5859C61.4949 56.5859 59.0438 56.1074 56.8172 55.1504C54.6102 54.1934 52.6961 52.8164 51.075 51.0195C49.4539 49.2031 48.1941 47.0059 47.2957 44.4277C46.4168 41.8496 45.9773 38.9395 45.9773 35.6973V33.6758C45.9773 30.4141 46.4168 27.5039 47.2957 24.9453C48.1746 22.3672 49.4148 20.1699 51.0164 18.3535C52.6375 16.5371 54.5516 15.1504 56.7586 14.1934C58.9852 13.2363 61.4363 12.7578 64.1121 12.7578C66.8074 12.7578 69.2586 13.2363 71.4656 14.1934C73.6922 15.1504 75.6063 16.5371 77.2078 18.3535C78.8289 20.1699 80.0789 22.3672 80.9578 24.9453C81.8563 27.5039 82.3055 30.4141 82.3055 33.6758ZM73.4285 35.6973V33.6172C73.4285 31.3516 73.2234 29.3594 72.8133 27.6406C72.4031 25.9219 71.7977 24.4766 70.9969 23.3047C70.1961 22.1328 69.2195 21.2539 68.0672 20.668C66.9148 20.0625 65.5965 19.7598 64.1121 19.7598C62.6277 19.7598 61.3094 20.0625 60.157 20.668C59.0242 21.2539 58.0574 22.1328 57.2566 23.3047C56.4754 24.4766 55.8797 25.9219 55.4695 27.6406C55.0594 29.3594 54.8543 31.3516 54.8543 33.6172V35.6973C54.8543 37.9434 55.0594 39.9355 55.4695 41.6738C55.8797 43.3926 56.4852 44.8477 57.2859 46.0391C58.0867 47.2109 59.0633 48.0996 60.2156 48.7051C61.368 49.3105 62.6863 49.6133 64.1707 49.6133C65.6551 49.6133 66.9734 49.3105 68.1258 48.7051C69.2781 48.0996 70.2449 47.2109 71.0262 46.0391C71.8074 44.8477 72.4031 43.3926 72.8133 41.6738C73.2234 39.9355 73.4285 37.9434 73.4285 35.6973ZM127.55 13.3438V56H118.761L101.623 27.4062V56H92.8336V13.3438H101.623L118.791 41.9668V13.3438H127.55ZM148.186 13.3438V56H139.397V13.3438H148.186ZM165.178 31.5664V38.4219H145.784V31.5664H165.178ZM167.229 13.3438V20.2285H145.784V13.3438H167.229ZM185.872 13.3438V56H177.113V13.3438H185.872ZM216.176 20.6387L204.574 56H195.229L211.078 13.3438H217.025L216.176 20.6387ZM225.814 56L214.184 20.6387L213.246 13.3438H219.252L235.189 56H225.814ZM225.287 40.1211V47.0059H202.758V40.1211H225.287ZM278.061 13.3438V56H269.272L252.134 27.4062V56H243.345V13.3438H252.134L269.302 41.9668V13.3438H278.061ZM314.634 41.8496H323.394C323.218 44.7207 322.427 47.2695 321.021 49.4961C319.634 51.7227 317.691 53.4609 315.191 54.7109C312.711 55.9609 309.722 56.5859 306.226 56.5859C303.492 56.5859 301.041 56.1172 298.873 55.1797C296.705 54.2227 294.849 52.8555 293.306 51.0781C291.783 49.3008 290.621 47.1523 289.82 44.6328C289.019 42.1133 288.619 39.291 288.619 36.166V33.207C288.619 30.082 289.029 27.2598 289.849 24.7402C290.689 22.2012 291.88 20.043 293.423 18.2656C294.986 16.4883 296.851 15.1211 299.019 14.1641C301.187 13.207 303.609 12.7285 306.285 12.7285C309.839 12.7285 312.837 13.373 315.279 14.6621C317.74 15.9512 319.644 17.7285 320.992 19.9941C322.359 22.2598 323.179 24.8379 323.453 27.7285H314.664C314.566 26.0098 314.224 24.5547 313.638 23.3633C313.052 22.1523 312.164 21.2441 310.972 20.6387C309.8 20.0137 308.238 19.7012 306.285 19.7012C304.82 19.7012 303.541 19.9746 302.447 20.5215C301.353 21.0684 300.435 21.8984 299.693 23.0117C298.951 24.125 298.394 25.5312 298.023 27.2305C297.671 28.9102 297.496 30.8828 297.496 33.1484V36.166C297.496 38.373 297.662 40.3164 297.994 41.9961C298.326 43.6562 298.834 45.0625 299.517 46.2148C300.22 47.3477 301.119 48.207 302.212 48.793C303.326 49.3594 304.664 49.6426 306.226 49.6426C308.062 49.6426 309.576 49.3496 310.767 48.7637C311.959 48.1777 312.867 47.3086 313.492 46.1562C314.136 45.0039 314.517 43.5684 314.634 41.8496ZM303.091 55.8828H309.449L309.127 57.6113C310.24 57.8066 311.255 58.2754 312.173 59.0176C313.091 59.7598 313.55 60.9805 313.55 62.6797C313.55 63.7148 313.326 64.6523 312.877 65.4922C312.447 66.332 311.802 67.0547 310.943 67.6602C310.084 68.2852 309.009 68.7539 307.72 69.0664C306.431 69.3984 304.947 69.5645 303.267 69.5645L303.062 64.877C303.687 64.877 304.254 64.7891 304.761 64.6133C305.269 64.4375 305.67 64.1641 305.962 63.793C306.255 63.4414 306.402 62.9727 306.402 62.3867C306.402 61.8398 306.255 61.4102 305.962 61.0977C305.67 60.7852 305.211 60.5508 304.586 60.3945C303.98 60.2383 303.179 60.1309 302.183 60.0723L303.091 55.8828ZM350.709 20.6387L339.108 56H329.762L345.612 13.3438H351.559L350.709 20.6387ZM360.348 56L348.717 20.6387L347.78 13.3438H353.786L369.723 56H360.348ZM359.821 40.1211V47.0059H337.291V40.1211H359.821Z"/>
</mask>
<path d="M28.5352 41.8496V39.8496H26.6669L26.5398 41.7136L28.5352 41.8496ZM37.2949 41.8496L39.2912 41.9718L39.4211 39.8496H37.2949V41.8496ZM34.9219 49.4961L33.2309 48.4281L33.2242 48.4388L34.9219 49.4961ZM29.0918 54.7109L28.1974 52.9221L28.1917 52.9249L29.0918 54.7109ZM12.7734 55.1797L11.9658 57.0093L11.9727 57.0124L11.9796 57.0154L12.7734 55.1797ZM7.20703 51.0781L5.68849 52.3797L5.69675 52.3892L7.20703 51.0781ZM3.75 24.7402L1.85116 24.1122L1.84826 24.1211L3.75 24.7402ZM7.32422 18.2656L5.82211 16.9451L5.81394 16.9545L7.32422 18.2656ZM29.1797 14.6621L28.2459 16.4307L28.2517 16.4338L29.1797 14.6621ZM34.8926 19.9941L33.1736 21.0166L33.1802 21.0275L34.8926 19.9941ZM37.3535 27.7285V29.7285H39.5516L39.3446 27.5402L37.3535 27.7285ZM28.5645 27.7285L26.5677 27.842L26.6749 29.7285H28.5645V27.7285ZM27.5391 23.3633L25.7387 24.2344L25.7444 24.2459L27.5391 23.3633ZM24.873 20.6387L23.9319 22.4034L23.9493 22.4127L23.9669 22.4216L24.873 20.6387ZM16.3477 20.5215L17.2421 22.3103L16.3477 20.5215ZM11.9238 27.2305L9.96988 26.8037L9.96803 26.8122L9.96625 26.8207L11.9238 27.2305ZM11.8945 41.9961L9.93249 42.3839L9.93337 42.3883L11.8945 41.9961ZM13.418 46.2148L11.6979 47.2352L11.7081 47.2525L11.7187 47.2696L13.418 46.2148ZM16.1133 48.793L15.1688 50.5559L15.1875 50.5659L15.2064 50.5755L16.1133 48.793ZM27.3926 46.1562L25.6471 45.1799L25.6407 45.1913L25.6345 45.2027L27.3926 46.1562ZM28.5352 43.8496H37.2949V39.8496H28.5352V43.8496ZM35.2987 41.7274C35.1415 44.2943 34.4412 46.5118 33.2309 48.4281L36.6129 50.5641C38.2151 48.0272 39.0968 45.1471 39.2912 41.9718L35.2987 41.7274ZM33.2242 48.4388C32.0455 50.3313 30.3898 51.8259 28.1974 52.9221L29.9862 56.4998C32.7938 55.096 35.0248 53.114 36.6195 50.5534L33.2242 48.4388ZM28.1917 52.9249C26.0533 54.0026 23.3893 54.5859 20.127 54.5859V58.5859C23.8568 58.5859 27.1694 57.9193 29.9918 56.497L28.1917 52.9249ZM20.127 54.5859C17.6229 54.5859 15.4482 54.1574 13.5673 53.344L11.9796 57.0154C14.4346 58.077 17.1622 58.5859 20.127 58.5859V54.5859ZM13.5811 53.35C11.6808 52.5111 10.0658 51.3203 8.71731 49.767L5.69675 52.3892C7.43423 54.3907 9.53016 55.9342 11.9658 57.0093L13.5811 53.35ZM8.72554 49.7765C7.39782 48.2275 6.35679 46.324 5.62675 44.027L1.81466 45.2386C2.68618 47.9807 3.96937 50.374 5.68852 52.3797L8.72554 49.7765ZM5.62675 44.027C4.89837 41.7353 4.51953 39.1218 4.51953 36.166H0.519531C0.519531 39.4602 0.941478 42.4913 1.81466 45.2386L5.62675 44.027ZM4.51953 36.166V33.207H0.519531V36.166H4.51953ZM4.51953 33.207C4.51953 30.2556 4.907 27.6468 5.65174 25.3594L1.84826 24.1211C0.95238 26.8727 0.519531 29.9085 0.519531 33.207H4.51953ZM5.64882 25.3683C6.41686 23.0463 7.487 21.1289 8.8345 19.5767L5.81394 16.9545C4.0755 18.957 2.76283 21.356 1.85118 24.1122L5.64882 25.3683ZM8.8263 19.5861C10.1968 18.0272 11.8249 16.8336 13.7276 15.9937L12.1122 12.3344C9.67896 13.4086 7.57667 14.9493 5.82214 16.9451L8.8263 19.5861ZM13.7276 15.9937C15.6102 15.1627 17.752 14.7285 20.1855 14.7285V10.7285C17.2675 10.7285 14.5656 11.2514 12.1122 12.3344L13.7276 15.9937ZM20.1855 14.7285C23.5057 14.7285 26.1631 15.331 28.2459 16.4307L30.1135 12.8935C27.3134 11.415 23.9748 10.7285 20.1855 10.7285V14.7285ZM28.2517 16.4338C30.4032 17.5608 32.0256 19.0865 33.1737 21.0166L36.6115 18.9717C35.0642 16.3705 32.8781 14.3416 30.1077 12.8904L28.2517 16.4338ZM33.1802 21.0275C34.3776 23.0117 35.1145 25.2958 35.3624 27.9169L39.3446 27.5402C39.0457 24.38 38.1419 21.5078 36.605 18.9608L33.1802 21.0275ZM37.3535 25.7285H28.5645V29.7285H37.3535V25.7285ZM30.5612 27.6151C30.4527 25.7047 30.0673 23.9722 29.3338 22.4806L25.7444 24.2459C26.1827 25.1372 26.4809 26.3148 26.5677 27.842L30.5612 27.6151ZM29.3394 22.4922C28.5644 20.8905 27.363 19.6606 25.7791 18.8557L23.9669 22.4216C24.7659 22.8276 25.3419 23.4142 25.7387 24.2344L29.3394 22.4922ZM25.8142 18.874C24.2483 18.0388 22.3238 17.7012 20.1855 17.7012V21.7012C21.9536 21.7012 23.154 21.9885 23.9319 22.4034L25.8142 18.874ZM20.1855 17.7012C18.4711 17.7012 16.8744 18.022 15.4532 18.7326L17.2421 22.3103C18.0084 21.9272 18.9703 21.7012 20.1855 21.7012V17.7012ZM15.4532 18.7326C14.0194 19.4496 12.8462 20.5275 11.9296 21.9023L15.2579 24.1211C15.8257 23.2694 16.4884 22.6872 17.2421 22.3103L15.4532 18.7326ZM11.9296 21.9023C11.0145 23.275 10.379 24.9304 9.96988 26.8037L13.8778 27.6572C14.2108 26.1321 14.6886 24.975 15.2579 24.1211L11.9296 21.9023ZM9.96625 26.8207C9.57918 28.6701 9.39648 30.7861 9.39648 33.1484H13.3965C13.3965 30.9795 13.5654 29.1502 13.8814 27.6402L9.96625 26.8207ZM9.39648 33.1484V36.166H13.3965V33.1484H9.39648ZM9.39648 36.166C9.39648 38.4681 9.5692 40.5461 9.9325 42.3839L13.8566 41.6082C13.5558 40.0867 13.3965 38.278 13.3965 36.166H9.39648ZM9.93337 42.3883C10.2985 44.2142 10.8732 45.8451 11.6979 47.2352L15.1381 45.1944C14.5956 44.2799 14.1546 43.0983 13.8557 41.6039L9.93337 42.3883ZM11.7187 47.2696C12.5927 48.6776 13.7427 49.7919 15.1688 50.5559L17.0577 47.03C16.2964 46.6221 15.6495 46.0177 15.1172 45.1601L11.7187 47.2696ZM15.2064 50.5755C16.6623 51.3162 18.3266 51.6426 20.127 51.6426V47.6426C18.8023 47.6426 17.7909 47.4025 17.0202 47.0104L15.2064 50.5755ZM20.127 51.6426C22.1585 51.6426 24.0002 51.3209 25.5506 50.5584L23.7853 46.969C22.9529 47.3784 21.7673 47.6426 20.127 47.6426V51.6426ZM25.5506 50.5584C27.1088 49.792 28.3253 48.6314 29.1506 47.1098L25.6345 45.2027C25.2098 45.9858 24.6099 46.5634 23.7853 46.969L25.5506 50.5584ZM29.1381 47.1326C29.964 45.6559 30.3991 43.9132 30.5305 41.9857L26.5398 41.7136C26.4368 43.2235 26.1102 44.3519 25.6471 45.1799L29.1381 47.1326ZM77.2664 51.0195L78.7595 52.3503L78.7666 52.3422L77.2664 51.0195ZM71.5242 55.1504L70.7344 53.3129L70.7285 53.3155L71.5242 55.1504ZM56.8172 55.1504L56.0215 56.9853L56.0274 56.9878L56.8172 55.1504ZM51.075 51.0195L49.5828 52.3513L49.59 52.3592L51.075 51.0195ZM47.2957 44.4277L45.4026 45.0731L45.4071 45.0859L47.2957 44.4277ZM47.2957 24.9453L49.1872 25.5951L49.1887 25.5907L47.2957 24.9453ZM51.0164 18.3535L49.5242 17.0218L49.5163 17.0308L51.0164 18.3535ZM56.7586 14.1934L55.9688 12.3559L55.9629 12.3584L56.7586 14.1934ZM71.4656 14.1934L70.67 16.0283L70.6758 16.0308L71.4656 14.1934ZM77.2078 18.3535L75.7076 19.6762L75.7157 19.6852L77.2078 18.3535ZM80.9578 24.9453L79.0648 25.5907L79.0677 25.5993L79.0708 25.6079L80.9578 24.9453ZM72.8133 27.6406L70.8679 28.1049L72.8133 27.6406ZM68.0672 20.668L67.1369 22.4385L67.1488 22.4447L67.1607 22.4507L68.0672 20.668ZM60.157 20.668L61.0759 22.4444L61.0873 22.4385L60.157 20.668ZM57.2566 23.3047L55.6054 22.1763L55.5989 22.1858L55.5925 22.1953L57.2566 23.3047ZM55.4695 41.6738L53.523 42.1331L53.5242 42.1381L55.4695 41.6738ZM57.2859 46.0391L55.626 47.1547L55.6303 47.1611L55.6346 47.1674L57.2859 46.0391ZM71.0262 46.0391L72.6903 47.1485L72.6945 47.1421L72.6987 47.1358L71.0262 46.0391ZM72.8133 41.6738L74.7587 42.1381L74.7598 42.1331L72.8133 41.6738ZM80.3055 33.6758V35.6973H84.3055V33.6758H80.3055ZM80.3055 35.6973C80.3055 38.7605 79.8901 41.4473 79.0941 43.7824L82.8801 45.0731C83.8419 42.2519 84.3055 39.1184 84.3055 35.6973H80.3055ZM79.0941 43.7824C78.2896 46.1421 77.173 48.1013 75.7663 49.6968L78.7666 52.3422C80.5629 50.3049 81.9268 47.8696 82.8801 45.0731L79.0941 43.7824ZM75.7734 49.6888C74.3677 51.2658 72.6943 52.4706 70.7344 53.3129L72.314 56.9878C74.8073 55.9162 76.9619 54.367 78.7594 52.3503L75.7734 49.6888ZM70.7285 53.3155C68.8013 54.1512 66.6253 54.5859 64.1707 54.5859V58.5859C67.1067 58.5859 69.8331 58.0636 72.3199 56.9853L70.7285 53.3155ZM64.1707 54.5859C61.7381 54.5859 59.5592 54.1521 57.607 53.3129L56.0274 56.9878C58.5283 58.0628 61.2518 58.5859 64.1707 58.5859V54.5859ZM57.6129 53.3155C55.67 52.473 53.9906 51.2655 52.56 49.6798L49.59 52.3592C51.4016 54.3673 53.5503 55.9137 56.0215 56.9853L57.6129 53.3155ZM52.5672 49.6878C51.1413 48.0901 50.0067 46.1294 49.1843 43.7696L45.4071 45.0859C46.3816 47.8823 47.7665 50.3161 49.5828 52.3512L52.5672 49.6878ZM49.1887 43.7824C48.3927 41.4473 47.9773 38.7605 47.9773 35.6973H43.9773C43.9773 39.1184 44.4409 42.2519 45.4027 45.0731L49.1887 43.7824ZM47.9773 35.6973V33.6758H43.9773V35.6973H47.9773ZM47.9773 33.6758C47.9773 30.5911 48.3932 27.9066 49.1872 25.5951L45.4042 24.2956C44.4404 27.1012 43.9773 30.237 43.9773 33.6758H47.9773ZM49.1887 25.5907C49.9932 23.2309 51.1098 21.2717 52.5166 19.6762L49.5163 17.0308C47.7199 19.0681 46.356 21.5034 45.4027 24.3L49.1887 25.5907ZM52.5086 19.6852C53.9391 18.0823 55.6164 16.8686 57.5543 16.0283L55.9629 12.3584C53.4867 13.4322 51.3359 14.9919 49.5242 17.0218L52.5086 19.6852ZM57.5484 16.0308C59.5006 15.1917 61.6795 14.7578 64.1121 14.7578V10.7578C61.1932 10.7578 58.4697 11.281 55.9688 12.3559L57.5484 16.0308ZM64.1121 14.7578C66.5667 14.7578 68.7427 15.1925 70.67 16.0283L72.2613 12.3584C69.7745 11.2801 67.0481 10.7578 64.1121 10.7578V14.7578ZM70.6758 16.0308C72.6307 16.871 74.302 18.082 75.7077 19.6762L78.708 17.0308C76.9105 14.9922 74.7537 13.4297 72.2554 12.3559L70.6758 16.0308ZM75.7157 19.6852C77.1385 21.2795 78.262 23.2357 79.0648 25.5907L82.8508 24.3C81.8958 21.4986 80.5193 19.0603 78.7 17.0218L75.7157 19.6852ZM79.0708 25.6079C79.881 27.9154 80.3055 30.5953 80.3055 33.6758H84.3055C84.3055 30.2328 83.8315 27.0924 82.8449 24.2827L79.0708 25.6079ZM75.4285 35.6973V33.6172H71.4285V35.6973H75.4285ZM75.4285 33.6172C75.4285 31.2367 75.2136 29.0829 74.7587 27.1764L70.8679 28.1049C71.2333 29.6359 71.4285 31.4664 71.4285 33.6172H75.4285ZM74.7587 27.1764C74.3052 25.2762 73.6158 23.5924 72.6482 22.1763L69.3456 24.4331C69.9795 25.3607 70.501 26.5676 70.8679 28.1049L74.7587 27.1764ZM72.6482 22.1763C71.677 20.755 70.4539 19.6378 68.9737 18.8852L67.1607 22.4507C67.9852 22.87 68.7152 23.5106 69.3456 24.4331L72.6482 22.1763ZM68.9974 18.8975C67.5202 18.1213 65.8747 17.7598 64.1121 17.7598V21.7598C65.3183 21.7598 66.3095 22.0037 67.1369 22.4385L68.9974 18.8975ZM64.1121 17.7598C62.3495 17.7598 60.7041 18.1213 59.2268 18.8975L61.0873 22.4385C61.9147 22.0037 62.906 21.7598 64.1121 21.7598V17.7598ZM59.2382 18.8915C57.7793 19.6461 56.5714 20.7625 55.6054 22.1763L58.9079 24.4331C59.5434 23.5031 60.2691 22.8617 61.0759 22.4444L59.2382 18.8915ZM55.5925 22.1953C54.6515 23.6068 53.9758 25.2838 53.5242 27.1764L57.4149 28.1049C57.7836 26.5599 58.2993 25.3463 58.9207 24.4141L55.5925 22.1953ZM53.5242 27.1764C53.0692 29.0829 52.8543 31.2367 52.8543 33.6172H56.8543C56.8543 31.4664 57.0495 29.6359 57.4149 28.1049L53.5242 27.1764ZM52.8543 33.6172V35.6973H56.8543V33.6172H52.8543ZM52.8543 35.6973C52.8543 38.0603 53.0696 40.2116 53.523 42.1331L57.4161 41.2145C57.0492 39.6595 56.8543 37.8264 56.8543 35.6973H52.8543ZM53.5242 42.1381C53.9774 44.0374 54.6651 45.7251 55.626 47.1547L58.9458 44.9234C58.3052 43.9702 57.782 42.7477 57.4149 41.2096L53.5242 42.1381ZM55.6346 47.1674C56.6027 48.5841 57.8183 49.7047 59.2854 50.4756L61.1459 46.9346C60.3083 46.4945 59.5707 45.8378 58.9372 44.9107L55.6346 47.1674ZM59.2854 50.4756C60.7627 51.2518 62.4081 51.6133 64.1707 51.6133V47.6133C62.9646 47.6133 61.9733 47.3693 61.1459 46.9346L59.2854 50.4756ZM64.1707 51.6133C65.9333 51.6133 67.5788 51.2518 69.056 50.4756L67.1955 46.9346C66.3681 47.3693 65.3769 47.6133 64.1707 47.6133V51.6133ZM69.056 50.4756C70.5284 49.702 71.7391 48.5752 72.6903 47.1485L69.3621 44.9297C68.7507 45.8467 68.0279 46.4973 67.1955 46.9346L69.056 50.4756ZM72.6987 47.1358C73.6331 45.7108 74.3072 44.0298 74.7587 42.1381L70.8679 41.2096C70.499 42.7553 69.9817 43.9846 69.3537 44.9423L72.6987 47.1358ZM74.7598 42.1331C75.2132 40.2116 75.4285 38.0603 75.4285 35.6973H71.4285C71.4285 37.8264 71.2337 39.6595 70.8667 41.2145L74.7598 42.1331ZM127.55 13.3438H129.55V11.3438H127.55V13.3438ZM127.55 56V58H129.55V56H127.55ZM118.761 56L117.046 57.0282L117.628 58H118.761V56ZM101.623 27.4062L103.338 26.378L99.6227 20.1793V27.4062H101.623ZM101.623 56V58H103.623V56H101.623ZM92.8336 56H90.8336V58H92.8336V56ZM92.8336 13.3438V11.3438H90.8336V13.3438H92.8336ZM101.623 13.3438L103.338 12.315L102.755 11.3438H101.623V13.3438ZM118.791 41.9668L117.075 42.9955L120.791 49.1895V41.9668H118.791ZM118.791 13.3438V11.3438H116.791V13.3438H118.791ZM125.55 13.3438V56H129.55V13.3438H125.55ZM127.55 54H118.761V58H127.55V54ZM120.477 54.9718L103.338 26.378L99.9072 28.4345L117.046 57.0282L120.477 54.9718ZM99.6227 27.4062V56H103.623V27.4062H99.6227ZM101.623 54H92.8336V58H101.623V54ZM94.8336 56V13.3438H90.8336V56H94.8336ZM92.8336 15.3438H101.623V11.3438H92.8336V15.3438ZM99.9075 14.3725L117.075 42.9955L120.506 40.9381L103.338 12.315L99.9075 14.3725ZM120.791 41.9668V13.3438H116.791V41.9668H120.791ZM118.791 15.3438H127.55V11.3438H118.791V15.3438ZM148.186 13.3438H150.186V11.3438H148.186V13.3438ZM148.186 56V58H150.186V56H148.186ZM139.397 56H137.397V58H139.397V56ZM139.397 13.3438V11.3438H137.397V13.3438H139.397ZM165.178 31.5664H167.178V29.5664H165.178V31.5664ZM165.178 38.4219V40.4219H167.178V38.4219H165.178ZM145.784 38.4219H143.784V40.4219H145.784V38.4219ZM145.784 31.5664V29.5664H143.784V31.5664H145.784ZM167.229 13.3438H169.229V11.3438H167.229V13.3438ZM167.229 20.2285V22.2285H169.229V20.2285H167.229ZM145.784 20.2285H143.784V22.2285H145.784V20.2285ZM145.784 13.3438V11.3438H143.784V13.3438H145.784ZM146.186 13.3438V56H150.186V13.3438H146.186ZM148.186 54H139.397V58H148.186V54ZM141.397 56V13.3438H137.397V56H141.397ZM139.397 15.3438H148.186V11.3438H139.397V15.3438ZM163.178 31.5664V38.4219H167.178V31.5664H163.178ZM165.178 36.4219H145.784V40.4219H165.178V36.4219ZM147.784 38.4219V31.5664H143.784V38.4219H147.784ZM145.784 33.5664H165.178V29.5664H145.784V33.5664ZM165.229 13.3438V20.2285H169.229V13.3438H165.229ZM167.229 18.2285H145.784V22.2285H167.229V18.2285ZM147.784 20.2285V13.3438H143.784V20.2285H147.784ZM145.784 15.3438H167.229V11.3438H145.784V15.3438ZM185.872 13.3438H187.872V11.3438H185.872V13.3438ZM185.872 56V58H187.872V56H185.872ZM177.113 56H175.113V58H177.113V56ZM177.113 13.3438V11.3438H175.113V13.3438H177.113ZM183.872 13.3438V56H187.872V13.3438H183.872ZM185.872 54H177.113V58H185.872V54ZM179.113 56V13.3438H175.113V56H179.113ZM177.113 15.3438H185.872V11.3438H177.113V15.3438ZM216.176 20.6387L218.076 21.2621L218.139 21.0704L218.162 20.87L216.176 20.6387ZM204.574 56V58H206.023L206.475 56.6235L204.574 56ZM195.229 56L193.354 55.3034L192.352 58H195.229V56ZM211.078 13.3438V11.3438H209.688L209.203 12.6472L211.078 13.3438ZM217.025 13.3438L219.012 13.5751L219.272 11.3438H217.025V13.3438ZM225.814 56L223.915 56.6249L224.367 58H225.814V56ZM214.184 20.6387L212.2 20.8936L212.224 21.0826L212.284 21.2636L214.184 20.6387ZM213.246 13.3438V11.3438H210.973L211.262 13.5987L213.246 13.3438ZM219.252 13.3438L221.125 12.6438L220.64 11.3438H219.252V13.3438ZM235.189 56V58H238.072L237.063 55.3L235.189 56ZM225.287 40.1211H227.287V38.1211H225.287V40.1211ZM225.287 47.0059V49.0059H227.287V47.0059H225.287ZM202.758 47.0059H200.758V49.0059H202.758V47.0059ZM202.758 40.1211V38.1211H200.758V40.1211H202.758ZM214.275 20.0152L202.674 55.3765L206.475 56.6235L218.076 21.2621L214.275 20.0152ZM204.574 54H195.229V58H204.574V54ZM197.103 56.6966L212.953 14.0403L209.203 12.6472L193.354 55.3034L197.103 56.6966ZM211.078 15.3438H217.025V11.3438H211.078V15.3438ZM215.039 13.1124L214.189 20.4073L218.162 20.87L219.012 13.5751L215.039 13.1124ZM227.714 55.3751L216.083 20.0138L212.284 21.2636L223.915 56.6249L227.714 55.3751ZM216.167 20.3837L215.23 13.0888L211.262 13.5987L212.2 20.8936L216.167 20.3837ZM213.246 15.3438H219.252V11.3438H213.246V15.3438ZM217.378 14.0437L233.316 56.7L237.063 55.3L221.125 12.6438L217.378 14.0437ZM235.189 54H225.814V58H235.189V54ZM223.287 40.1211V47.0059H227.287V40.1211H223.287ZM225.287 45.0059H202.758V49.0059H225.287V45.0059ZM204.758 47.0059V40.1211H200.758V47.0059H204.758ZM202.758 42.1211H225.287V38.1211H202.758V42.1211ZM278.061 13.3438H280.061V11.3438H278.061V13.3438ZM278.061 56V58H280.061V56H278.061ZM269.272 56L267.557 57.0282L268.139 58H269.272V56ZM252.134 27.4062L253.849 26.378L250.134 20.1793V27.4062H252.134ZM252.134 56V58H254.134V56H252.134ZM243.345 56H241.345V58H243.345V56ZM243.345 13.3438V11.3438H241.345V13.3438H243.345ZM252.134 13.3438L253.849 12.315L253.266 11.3438H252.134V13.3438ZM269.302 41.9668L267.586 42.9955L271.302 49.1895V41.9668H269.302ZM269.302 13.3438V11.3438H267.302V13.3438H269.302ZM276.061 13.3438V56H280.061V13.3438H276.061ZM278.061 54H269.272V58H278.061V54ZM270.988 54.9718L253.849 26.378L250.418 28.4345L267.557 57.0282L270.988 54.9718ZM250.134 27.4062V56H254.134V27.4062H250.134ZM252.134 54H243.345V58H252.134V54ZM245.345 56V13.3438H241.345V56H245.345ZM243.345 15.3438H252.134V11.3438H243.345V15.3438ZM250.418 14.3725L267.586 42.9955L271.017 40.9381L253.849 12.315L250.418 14.3725ZM271.302 41.9668V13.3438H267.302V41.9668H271.302ZM269.302 15.3438H278.061V11.3438H269.302V15.3438ZM314.634 41.8496V39.8496H312.766L312.639 41.7136L314.634 41.8496ZM323.394 41.8496L325.39 41.9718L325.52 39.8496H323.394V41.8496ZM321.021 49.4961L319.33 48.4281L319.323 48.4388L321.021 49.4961ZM315.191 54.7109L314.297 52.9221L314.291 52.9249L315.191 54.7109ZM298.873 55.1797L298.065 57.0093L298.072 57.0124L298.079 57.0154L298.873 55.1797ZM293.306 51.0781L291.788 52.3797L291.796 52.3892L293.306 51.0781ZM289.849 24.7402L287.95 24.1122L287.947 24.1211L289.849 24.7402ZM293.423 18.2656L291.921 16.9451L291.913 16.9545L293.423 18.2656ZM315.279 14.6621L314.345 16.4307L314.351 16.4338L315.279 14.6621ZM320.992 19.9941L319.273 21.0166L319.279 21.0275L320.992 19.9941ZM323.453 27.7285V29.7285H325.651L325.444 27.5402L323.453 27.7285ZM314.664 27.7285L312.667 27.842L312.774 29.7285H314.664V27.7285ZM313.638 23.3633L311.838 24.2344L311.844 24.2459L313.638 23.3633ZM310.972 20.6387L310.031 22.4034L310.049 22.4127L310.066 22.4216L310.972 20.6387ZM302.447 20.5215L303.341 22.3103L302.447 20.5215ZM298.023 27.2305L296.069 26.8037L296.067 26.8122L296.065 26.8207L298.023 27.2305ZM297.994 41.9961L296.032 42.3839L296.033 42.3883L297.994 41.9961ZM299.517 46.2148L297.797 47.2352L297.807 47.2525L297.818 47.2696L299.517 46.2148ZM302.212 48.793L301.268 50.5559L301.287 50.5659L301.306 50.5755L302.212 48.793ZM313.492 46.1562L311.746 45.1799L311.74 45.1913L311.734 45.2027L313.492 46.1562ZM303.091 55.8828V53.8828H301.479L301.137 55.4591L303.091 55.8828ZM309.449 55.8828L311.415 56.2494L311.856 53.8828H309.449V55.8828ZM309.127 57.6113L307.16 57.2448L306.79 59.2319L308.781 59.5812L309.127 57.6113ZM312.877 65.4922L311.113 64.5489L311.104 64.565L311.096 64.5812L312.877 65.4922ZM310.943 67.6602L309.791 66.0252L309.779 66.0338L309.767 66.0427L310.943 67.6602ZM307.72 69.0664L307.249 67.1227L307.235 67.1261L307.221 67.1296L307.72 69.0664ZM303.267 69.5645L301.269 69.6519L301.353 71.5645H303.267V69.5645ZM303.062 64.877V62.877H300.973L301.064 64.9644L303.062 64.877ZM305.962 63.793L304.426 62.5126L304.409 62.5329L304.393 62.5537L305.962 63.793ZM304.586 60.3945L304.086 62.3311L304.093 62.333L304.1 62.3348L304.586 60.3945ZM302.183 60.0723L300.229 59.6485L299.734 61.9316L302.066 62.0688L302.183 60.0723ZM314.634 43.8496H323.394V39.8496H314.634V43.8496ZM321.398 41.7274C321.241 44.2943 320.54 46.5118 319.33 48.4281L322.712 50.5641C324.314 48.0272 325.196 45.1471 325.39 41.9718L321.398 41.7274ZM319.323 48.4388C318.145 50.3313 316.489 51.8259 314.297 52.9221L316.085 56.4998C318.893 55.096 321.124 53.114 322.719 50.5534L319.323 48.4388ZM314.291 52.9249C312.152 54.0026 309.489 54.5859 306.226 54.5859V58.5859C309.956 58.5859 313.269 57.9193 316.091 56.497L314.291 52.9249ZM306.226 54.5859C303.722 54.5859 301.547 54.1574 299.666 53.344L298.079 57.0154C300.534 58.077 303.261 58.5859 306.226 58.5859V54.5859ZM299.68 53.35C297.78 52.5111 296.165 51.3203 294.817 49.767L291.796 52.3892C293.533 54.3907 295.629 55.9342 298.065 57.0093L299.68 53.35ZM294.825 49.7765C293.497 48.2275 292.456 46.324 291.726 44.027L287.914 45.2386C288.785 47.9807 290.069 50.374 291.788 52.3797L294.825 49.7765ZM291.726 44.027C290.998 41.7353 290.619 39.1218 290.619 36.166H286.619C286.619 39.4602 287.041 42.4913 287.914 45.2386L291.726 44.027ZM290.619 36.166V33.207H286.619V36.166H290.619ZM290.619 33.207C290.619 30.2556 291.006 27.6468 291.751 25.3594L287.947 24.1211C287.052 26.8727 286.619 29.9085 286.619 33.207H290.619ZM291.748 25.3683C292.516 23.0463 293.586 21.1289 294.934 19.5767L291.913 16.9545C290.175 18.957 288.862 21.356 287.95 24.1122L291.748 25.3683ZM294.926 19.5861C296.296 18.0272 297.924 16.8336 299.827 15.9937L298.211 12.3344C295.778 13.4086 293.676 14.9493 291.921 16.9451L294.926 19.5861ZM299.827 15.9937C301.709 15.1627 303.851 14.7285 306.285 14.7285V10.7285C303.367 10.7285 300.665 11.2514 298.211 12.3344L299.827 15.9937ZM306.285 14.7285C309.605 14.7285 312.262 15.331 314.345 16.4307L316.213 12.8935C313.413 11.415 310.074 10.7285 306.285 10.7285V14.7285ZM314.351 16.4338C316.502 17.5608 318.125 19.0865 319.273 21.0166L322.711 18.9717C321.163 16.3705 318.977 14.3416 316.207 12.8904L314.351 16.4338ZM319.279 21.0275C320.477 23.0117 321.214 25.2958 321.462 27.9169L325.444 27.5402C325.145 24.38 324.241 21.5078 322.704 18.9608L319.279 21.0275ZM323.453 25.7285H314.664V29.7285H323.453V25.7285ZM316.66 27.6151C316.552 25.7047 316.167 23.9722 315.433 22.4806L311.844 24.2459C312.282 25.1372 312.58 26.3148 312.667 27.842L316.66 27.6151ZM315.439 22.4922C314.664 20.8905 313.462 19.6606 311.878 18.8557L310.066 22.4216C310.865 22.8276 311.441 23.4142 311.838 24.2344L315.439 22.4922ZM311.913 18.874C310.348 18.0388 308.423 17.7012 306.285 17.7012V21.7012C308.053 21.7012 309.253 21.9885 310.031 22.4034L311.913 18.874ZM306.285 17.7012C304.57 17.7012 302.974 18.022 301.552 18.7326L303.341 22.3103C304.108 21.9272 305.07 21.7012 306.285 21.7012V17.7012ZM301.552 18.7326C300.119 19.4496 298.945 20.5275 298.029 21.9023L301.357 24.1211C301.925 23.2694 302.588 22.6872 303.341 22.3103L301.552 18.7326ZM298.029 21.9023C297.114 23.275 296.478 24.9304 296.069 26.8037L299.977 27.6572C300.31 26.1321 300.788 24.975 301.357 24.1211L298.029 21.9023ZM296.065 26.8207C295.678 28.6701 295.496 30.7861 295.496 33.1484H299.496C299.496 30.9795 299.665 29.1502 299.981 27.6402L296.065 26.8207ZM295.496 33.1484V36.166H299.496V33.1484H295.496ZM295.496 36.166C295.496 38.4681 295.668 40.5461 296.032 42.3839L299.956 41.6082C299.655 40.0867 299.496 38.278 299.496 36.166H295.496ZM296.033 42.3883C296.398 44.2142 296.972 45.8451 297.797 47.2352L301.237 45.1944C300.695 44.2799 300.254 43.0983 299.955 41.6039L296.033 42.3883ZM297.818 47.2696C298.692 48.6776 299.842 49.7919 301.268 50.5559L303.157 47.03C302.396 46.6221 301.749 46.0177 301.216 45.1601L297.818 47.2696ZM301.306 50.5755C302.761 51.3162 304.426 51.6426 306.226 51.6426V47.6426C304.902 47.6426 303.89 47.4025 303.119 47.0104L301.306 50.5755ZM306.226 51.6426C308.258 51.6426 310.099 51.3209 311.65 50.5584L309.885 46.969C309.052 47.3784 307.867 47.6426 306.226 47.6426V51.6426ZM311.65 50.5584C313.208 49.792 314.425 48.6314 315.25 47.1098L311.734 45.2027C311.309 45.9858 310.709 46.5634 309.885 46.969L311.65 50.5584ZM315.237 47.1326C316.063 45.6559 316.498 43.9132 316.63 41.9857L312.639 41.7136C312.536 43.2235 312.209 44.3519 311.746 45.1799L315.237 47.1326ZM303.091 57.8828H309.449V53.8828H303.091V57.8828ZM307.483 55.5162L307.16 57.2448L311.093 57.9779L311.415 56.2494L307.483 55.5162ZM308.781 59.5812C309.545 59.7153 310.25 60.0341 310.916 60.5728L313.431 57.4623C312.261 56.5166 310.935 55.898 309.472 55.6414L308.781 59.5812ZM310.916 60.5728C311.185 60.7904 311.55 61.3084 311.55 62.6797H315.55C315.55 60.6525 314.998 58.7291 313.431 57.4623L310.916 60.5728ZM311.55 62.6797C311.55 63.415 311.394 64.024 311.113 64.5489L314.64 66.4355C315.258 65.2807 315.55 64.0147 315.55 62.6797H311.55ZM311.096 64.5812C310.83 65.1006 310.416 65.5848 309.791 66.0252L312.095 69.2951C313.189 68.5245 314.063 67.5635 314.657 66.4031L311.096 64.5812ZM309.767 66.0427C309.164 66.4809 308.345 66.857 307.249 67.1227L308.192 71.0101C309.674 70.6508 311.003 70.0894 312.119 69.2776L309.767 66.0427ZM307.221 67.1296C306.131 67.4104 304.82 67.5645 303.267 67.5645V71.5645C305.073 71.5645 306.731 71.3865 308.219 71.0032L307.221 67.1296ZM305.265 69.477L305.06 64.7895L301.064 64.9644L301.269 69.6519L305.265 69.477ZM303.062 66.877C303.874 66.877 304.666 66.7627 305.416 66.5033L304.107 62.7233C303.841 62.8155 303.5 62.877 303.062 62.877V66.877ZM305.416 66.5033C306.234 66.22 306.971 65.7427 307.532 65.0323L304.393 62.5537C304.368 62.5854 304.305 62.655 304.107 62.7233L305.416 66.5033ZM307.499 65.0733C308.167 64.2714 308.402 63.3067 308.402 62.3867H304.402C304.402 62.5152 304.386 62.573 304.383 62.5812C304.382 62.5847 304.384 62.5774 304.392 62.5629C304.4 62.5481 304.411 62.5305 304.426 62.5126L307.499 65.0733ZM308.402 62.3867C308.402 61.4777 308.15 60.5073 307.422 59.7298L304.503 62.4655C304.476 62.4365 304.453 62.4049 304.434 62.373C304.415 62.3414 304.404 62.3155 304.399 62.2996C304.389 62.2692 304.402 62.2893 304.402 62.3867H308.402ZM307.422 59.7298C306.765 59.0289 305.893 58.6598 305.071 58.4542L304.1 62.3348C304.301 62.3849 304.423 62.4351 304.489 62.4687C304.553 62.5016 304.543 62.5081 304.503 62.4655L307.422 59.7298ZM305.085 58.458C304.303 58.2562 303.359 58.138 302.301 58.0757L302.066 62.0688C302.999 62.1237 303.657 62.2204 304.086 62.3311L305.085 58.458ZM304.138 60.496L305.046 56.3065L301.137 55.4591L300.229 59.6485L304.138 60.496ZM350.709 20.6387L352.61 21.2621L352.673 21.0704L352.696 20.87L350.709 20.6387ZM339.108 56V58H340.557L341.008 56.6235L339.108 56ZM329.762 56L327.887 55.3034L326.885 58H329.762V56ZM345.612 13.3438V11.3438H344.221L343.737 12.6472L345.612 13.3438ZM351.559 13.3438L353.546 13.5751L353.805 11.3438H351.559V13.3438ZM360.348 56L358.448 56.6249L358.9 58H360.348V56ZM348.717 20.6387L346.734 20.8936L346.758 21.0826L346.817 21.2636L348.717 20.6387ZM347.78 13.3438V11.3438H345.506L345.796 13.5987L347.78 13.3438ZM353.786 13.3438L355.659 12.6438L355.173 11.3438H353.786V13.3438ZM369.723 56V58H372.605L371.597 55.3L369.723 56ZM359.821 40.1211H361.821V38.1211H359.821V40.1211ZM359.821 47.0059V49.0059H361.821V47.0059H359.821ZM337.291 47.0059H335.291V49.0059H337.291V47.0059ZM337.291 40.1211V38.1211H335.291V40.1211H337.291ZM348.809 20.0152L337.207 55.3765L341.008 56.6235L352.61 21.2621L348.809 20.0152ZM339.108 54H329.762V58H339.108V54ZM331.637 56.6966L347.486 14.0403L343.737 12.6472L327.887 55.3034L331.637 56.6966ZM345.612 15.3438H351.559V11.3438H345.612V15.3438ZM349.572 13.1124L348.723 20.4073L352.696 20.87L353.546 13.5751L349.572 13.1124ZM362.248 55.3751L350.617 20.0138L346.817 21.2636L358.448 56.6249L362.248 55.3751ZM350.701 20.3837L349.763 13.0888L345.796 13.5987L346.734 20.8936L350.701 20.3837ZM347.78 15.3438H353.786V11.3438H347.78V15.3438ZM351.912 14.0437L367.85 56.7L371.597 55.3L355.659 12.6438L351.912 14.0437ZM369.723 54H360.348V58H369.723V54ZM357.821 40.1211V47.0059H361.821V40.1211H357.821ZM359.821 45.0059H337.291V49.0059H359.821V45.0059ZM339.291 47.0059V40.1211H335.291V47.0059H339.291ZM337.291 42.1211H359.821V38.1211H337.291V42.1211Z" fill="#1D1D1D" mask="url(#path-1-outside-1_1_56)"/>
<mask id="path-3-outside-2_1_56" maskUnits="userSpaceOnUse" x="0" y="117" width="359" height="57" fill="black">
<rect fill="white" y="117" width="359" height="57"/>
<path d="M27.041 155.969L38.9355 165.402L32.5488 170.793L20.8594 161.359L27.041 155.969ZM39.4336 140.822V142.551C39.4336 145.812 38.9746 148.742 38.0566 151.34C37.1582 153.918 35.8691 156.125 34.1895 157.961C32.5293 159.777 30.5664 161.174 28.3008 162.15C26.0352 163.107 23.5352 163.586 20.8008 163.586C18.0469 163.586 15.5273 163.107 13.2422 162.15C10.9766 161.174 9.00391 159.777 7.32422 157.961C5.66406 156.125 4.375 153.918 3.45703 151.34C2.55859 148.742 2.10938 145.812 2.10938 142.551V140.822C2.10938 137.561 2.55859 134.631 3.45703 132.033C4.375 129.436 5.6543 127.229 7.29492 125.412C8.95508 123.576 10.918 122.18 13.1836 121.223C15.4688 120.246 17.9883 119.758 20.7422 119.758C23.4766 119.758 25.9766 120.246 28.2422 121.223C30.5273 122.18 32.5 123.576 34.1602 125.412C35.8398 127.229 37.1387 129.436 38.0566 132.033C38.9746 134.631 39.4336 137.561 39.4336 140.822ZM28.9746 142.551V140.764C28.9746 138.654 28.7891 136.799 28.418 135.197C28.0664 133.576 27.5391 132.219 26.8359 131.125C26.1328 130.031 25.2637 129.211 24.2285 128.664C23.2129 128.098 22.0508 127.814 20.7422 127.814C19.375 127.814 18.1836 128.098 17.168 128.664C16.1523 129.211 15.3027 130.031 14.6191 131.125C13.9355 132.219 13.418 133.576 13.0664 135.197C12.7344 136.799 12.5684 138.654 12.5684 140.764V142.551C12.5684 144.641 12.7344 146.496 13.0664 148.117C13.418 149.719 13.9355 151.076 14.6191 152.189C15.3223 153.303 16.1816 154.143 17.1973 154.709C18.2324 155.275 19.4336 155.559 20.8008 155.559C22.1094 155.559 23.2715 155.275 24.2871 154.709C25.3027 154.143 26.1523 153.303 26.8359 152.189C27.5391 151.076 28.0664 149.719 28.418 148.117C28.7891 146.496 28.9746 144.641 28.9746 142.551ZM72.0223 120.344H82.3055V148.205C82.3055 151.525 81.6121 154.338 80.2254 156.643C78.8387 158.928 76.8953 160.656 74.3953 161.828C71.8953 163 68.9559 163.586 65.577 163.586C62.2371 163.586 59.2977 163 56.7586 161.828C54.2391 160.656 52.2664 158.928 50.8406 156.643C49.4344 154.338 48.7313 151.525 48.7313 148.205V120.344H59.0438V148.205C59.0438 149.963 59.2977 151.398 59.8055 152.512C60.3133 153.605 61.0555 154.406 62.032 154.914C63.0086 155.422 64.1902 155.676 65.577 155.676C66.9832 155.676 68.1648 155.422 69.1219 154.914C70.0789 154.406 70.8016 153.605 71.2898 152.512C71.7781 151.398 72.0223 149.963 72.0223 148.205V120.344ZM110.412 129.309L100.011 163H88.9664L104.64 120.344H111.642L110.412 129.309ZM119.025 163L108.595 129.309L107.248 120.344H114.338L130.099 163H119.025ZM118.615 147.092V155.031H96.7301V147.092H118.615ZM165.618 155.09V163H144.055V155.09H165.618ZM147.717 120.344V163H137.434V120.344H147.717ZM185.081 120.344V163H174.827V120.344H185.081ZM210.375 163H200.912L200.971 155.09H210.375C212.328 155.09 213.979 154.621 215.326 153.684C216.693 152.746 217.729 151.35 218.432 149.494C219.154 147.619 219.516 145.314 219.516 142.58V140.734C219.516 138.684 219.311 136.887 218.9 135.344C218.51 133.781 217.924 132.482 217.143 131.447C216.361 130.393 215.385 129.602 214.213 129.074C213.061 128.547 211.732 128.283 210.229 128.283H200.736V120.344H210.229C213.119 120.344 215.766 120.842 218.168 121.838C220.59 122.814 222.68 124.221 224.438 126.057C226.215 127.873 227.582 130.031 228.539 132.531C229.516 135.012 230.004 137.766 230.004 140.793V142.58C230.004 145.588 229.516 148.342 228.539 150.842C227.582 153.342 226.225 155.5 224.467 157.316C222.709 159.133 220.629 160.539 218.227 161.535C215.844 162.512 213.227 163 210.375 163ZM206.801 120.344V163H196.518V120.344H206.801ZM256.997 129.309L246.596 163H235.552L251.225 120.344H258.227L256.997 129.309ZM265.61 163L255.18 129.309L253.833 120.344H260.923L276.684 163H265.61ZM265.2 147.092V155.031H243.315V147.092H265.2ZM297.877 163H288.414L288.472 155.09H297.877C299.83 155.09 301.48 154.621 302.828 153.684C304.195 152.746 305.23 151.35 305.933 149.494C306.656 147.619 307.017 145.314 307.017 142.58V140.734C307.017 138.684 306.812 136.887 306.402 135.344C306.011 133.781 305.425 132.482 304.644 131.447C303.863 130.393 302.886 129.602 301.714 129.074C300.562 128.547 299.234 128.283 297.73 128.283H288.238V120.344H297.73C300.621 120.344 303.267 120.842 305.67 121.838C308.091 122.814 310.181 124.221 311.939 126.057C313.716 127.873 315.084 130.031 316.041 132.531C317.017 135.012 317.505 137.766 317.505 140.793V142.58C317.505 145.588 317.017 148.342 316.041 150.842C315.084 153.342 313.726 155.5 311.968 157.316C310.211 159.133 308.13 160.539 305.728 161.535C303.345 162.512 300.728 163 297.877 163ZM294.302 120.344V163H284.019V120.344H294.302ZM356.422 155.09V163H333.688V155.09H356.422ZM337.35 120.344V163H327.067V120.344H337.35ZM353.493 137.277V144.924H333.688V137.277H353.493ZM356.51 120.344V128.283H333.688V120.344H356.51Z"/>
</mask>
<path d="M27.041 155.969L28.2838 154.402L26.9804 153.368L25.7265 154.461L27.041 155.969ZM38.9355 165.402L40.2255 166.931L42.0934 165.354L40.1783 163.835L38.9355 165.402ZM32.5488 170.793L31.2928 172.349L32.5774 173.386L33.8388 172.321L32.5488 170.793ZM20.8594 161.359L19.5449 159.852L17.7483 161.419L19.6033 162.916L20.8594 161.359ZM38.0566 151.34L36.1709 150.673L36.168 150.682L38.0566 151.34ZM34.1895 157.961L32.7138 156.611L32.7132 156.612L34.1895 157.961ZM28.3008 162.15L29.079 163.993L29.0857 163.99L29.0924 163.987L28.3008 162.15ZM13.2422 162.15L12.4505 163.987L12.46 163.991L12.4696 163.995L13.2422 162.15ZM7.32422 157.961L5.84077 159.302L5.84825 159.311L5.85582 159.319L7.32422 157.961ZM3.45703 151.34L1.56689 151.994L1.56986 152.002L1.5729 152.011L3.45703 151.34ZM3.45703 132.033L1.57127 131.367L1.56689 131.379L3.45703 132.033ZM7.29492 125.412L5.81148 124.071L5.81072 124.072L7.29492 125.412ZM13.1836 121.223L13.9618 123.065L13.9695 123.062L13.1836 121.223ZM28.2422 121.223L27.4505 123.059L27.46 123.063L27.4696 123.067L28.2422 121.223ZM34.1602 125.412L32.6767 126.754L32.6842 126.762L32.6918 126.77L34.1602 125.412ZM28.418 135.197L26.4634 135.621L26.4664 135.635L26.4696 135.649L28.418 135.197ZM26.8359 131.125L25.1536 132.207L26.8359 131.125ZM24.2285 128.664L23.2544 130.411L23.2742 130.422L23.2943 130.432L24.2285 128.664ZM17.168 128.664L18.1162 130.425L18.1292 130.418L18.1421 130.411L17.168 128.664ZM13.0664 135.197L11.1118 134.773L11.1099 134.782L11.108 134.791L13.0664 135.197ZM13.0664 148.117L11.1071 148.518L11.1099 148.532L11.1129 148.546L13.0664 148.117ZM14.6191 152.189L12.9148 153.236L12.9214 153.247L12.9282 153.257L14.6191 152.189ZM17.1973 154.709L16.2231 156.456L16.2302 156.46L16.2372 156.464L17.1973 154.709ZM24.2871 154.709L25.2612 156.456L24.2871 154.709ZM26.8359 152.189L25.145 151.121L25.1382 151.132L25.1316 151.143L26.8359 152.189ZM28.418 148.117L26.4684 147.671L26.4664 147.68L26.4645 147.688L28.418 148.117ZM25.7982 157.536L37.6928 166.969L40.1783 163.835L28.2838 154.402L25.7982 157.536ZM37.6455 163.874L31.2588 169.265L33.8388 172.321L40.2255 166.931L37.6455 163.874ZM33.8049 169.237L22.1154 159.803L19.6033 162.916L31.2928 172.349L33.8049 169.237ZM22.1739 162.867L28.3555 157.476L25.7265 154.461L19.5449 159.852L22.1739 162.867ZM37.4336 140.822V142.551H41.4336V140.822H37.4336ZM37.4336 142.551C37.4336 145.626 37.0008 148.325 36.1709 150.673L39.9424 152.006C40.9484 149.159 41.4336 145.999 41.4336 142.551H37.4336ZM36.168 150.682C35.3502 153.029 34.1932 154.994 32.7138 156.611L35.6651 159.311C37.545 157.256 38.9662 154.807 39.9452 151.998L36.168 150.682ZM32.7132 156.612C31.2446 158.218 29.5153 159.449 27.5091 160.314L29.0924 163.987C31.6175 162.899 33.814 161.336 35.6657 159.31L32.7132 156.612ZM27.5225 160.308C25.5293 161.15 23.2978 161.586 20.8008 161.586V165.586C23.7726 165.586 26.541 165.065 29.079 163.993L27.5225 160.308ZM20.8008 161.586C18.2825 161.586 16.0293 161.149 14.0148 160.306L12.4696 163.995C15.0254 165.066 17.8112 165.586 20.8008 165.586V161.586ZM14.0338 160.314C12.0255 159.448 10.2832 158.215 8.79261 156.603L5.85582 159.319C7.72463 161.34 9.92763 162.9 12.4505 163.987L14.0338 160.314ZM8.80766 156.62C7.3416 154.998 6.18028 153.026 5.34116 150.669L1.5729 152.011C2.56972 154.81 3.98652 157.252 5.84077 159.302L8.80766 156.62ZM5.34717 150.686C4.5336 148.334 4.10938 145.63 4.10938 142.551H0.109375C0.109375 145.995 0.583586 149.151 1.56689 151.994L5.34717 150.686ZM4.10938 142.551V140.822H0.109375V142.551H4.10938ZM4.10938 140.822C4.10938 137.743 4.5336 135.039 5.34717 132.687L1.56689 131.379C0.583586 134.223 0.109375 137.378 0.109375 140.822H4.10938ZM5.34275 132.7C6.18374 130.32 7.33646 128.35 8.77913 126.753L5.81072 124.072C3.97214 126.107 2.56626 128.551 1.57131 131.367L5.34275 132.7ZM8.77837 126.754C10.2441 125.133 11.9668 123.908 13.9618 123.065L12.4054 119.38C9.86915 120.452 7.66604 122.02 5.81148 124.071L8.77837 126.754ZM13.9695 123.062C15.9806 122.202 18.2291 121.758 20.7422 121.758V117.758C17.7474 117.758 14.9569 118.29 12.3977 119.384L13.9695 123.062ZM20.7422 121.758C23.2339 121.758 25.4607 122.202 27.4505 123.059L29.0338 119.386C26.4924 118.291 23.7192 117.758 20.7422 117.758V121.758ZM27.4696 123.067C29.484 123.911 31.2138 125.136 32.6767 126.754L35.6436 124.071C33.7862 122.017 31.5707 120.448 29.0148 119.378L27.4696 123.067ZM32.6918 126.77C34.1668 128.365 35.3333 130.329 36.1709 132.7L39.9424 131.367C38.9441 128.542 37.5129 126.092 35.6286 124.054L32.6918 126.77ZM36.1709 132.7C37.0008 135.048 37.4336 137.747 37.4336 140.822H41.4336C41.4336 137.374 40.9484 134.214 39.9424 131.367L36.1709 132.7ZM30.9746 142.551V140.764H26.9746V142.551H30.9746ZM30.9746 140.764C30.9746 138.543 30.7798 136.53 30.3663 134.746L26.4696 135.649C26.7983 137.067 26.9746 138.766 26.9746 140.764H30.9746ZM30.3725 134.773C29.9836 132.98 29.3809 131.385 28.5183 130.043L25.1536 132.207C25.6972 133.052 26.1492 134.172 26.4634 135.621L30.3725 134.773ZM28.5183 130.043C27.6501 128.693 26.5349 127.621 25.1628 126.896L23.2943 130.432C23.9924 130.801 24.6155 131.37 25.1536 132.207L28.5183 130.043ZM25.2027 126.917C23.8534 126.165 22.3483 125.814 20.7422 125.814V129.814C21.7533 129.814 22.5724 130.03 23.2544 130.411L25.2027 126.917ZM20.7422 125.814C19.0942 125.814 17.5557 126.158 16.1938 126.917L18.1421 130.411C18.8114 130.038 19.6558 129.814 20.7422 129.814V125.814ZM16.2198 126.903C14.8633 127.634 13.7687 128.712 12.9231 130.065L16.3151 132.185C16.8368 131.35 17.4414 130.788 18.1162 130.425L16.2198 126.903ZM12.9231 130.065C12.088 131.401 11.499 132.988 11.1118 134.773L15.021 135.621C15.3369 134.164 15.7831 133.036 16.3151 132.185L12.9231 130.065ZM11.108 134.791C10.7417 136.558 10.5684 138.555 10.5684 140.764H14.5684C14.5684 138.754 14.727 137.039 15.0248 135.603L11.108 134.791ZM10.5684 140.764V142.551H14.5684V140.764H10.5684ZM10.5684 142.551C10.5684 144.742 10.742 146.736 11.1071 148.518L15.0257 147.716C14.7267 146.256 14.5684 144.539 14.5684 142.551H10.5684ZM11.1129 148.546C11.5007 150.313 12.0887 151.891 12.9148 153.236L16.3235 151.143C15.7824 150.262 15.3352 149.125 15.0199 147.688L11.1129 148.546ZM12.9282 153.257C13.7858 154.615 14.8788 155.706 16.2231 156.456L18.1714 152.962C17.4845 152.579 16.8587 151.99 16.3101 151.121L12.9282 153.257ZM16.2372 156.464C17.6105 157.215 19.1517 157.559 20.8008 157.559V153.559C19.7155 153.559 18.8544 153.336 18.1573 152.954L16.2372 156.464ZM20.8008 157.559C22.4069 157.559 23.912 157.208 25.2612 156.456L23.313 152.962C22.631 153.343 21.8119 153.559 20.8008 153.559V157.559ZM25.2612 156.456C26.6118 155.703 27.6999 154.605 28.5403 153.236L25.1316 151.143C24.6048 152.001 23.9937 152.583 23.313 152.962L25.2612 156.456ZM28.5269 153.257C29.3801 151.906 29.9819 150.321 30.3715 148.546L26.4645 147.688C26.1509 149.117 25.698 150.246 25.145 151.121L28.5269 153.257ZM30.3675 148.563C30.7794 146.764 30.9746 144.754 30.9746 142.551H26.9746C26.9746 144.527 26.7987 146.228 26.4684 147.671L30.3675 148.563ZM72.0223 120.344V118.344H70.0223V120.344H72.0223ZM82.3055 120.344H84.3055V118.344H82.3055V120.344ZM80.2254 156.643L81.9352 157.68L81.9391 157.674L80.2254 156.643ZM56.7586 161.828L55.9151 163.642L55.9205 163.644L56.7586 161.828ZM50.8406 156.643L49.1333 157.684L49.1385 157.693L49.1438 157.701L50.8406 156.643ZM48.7313 120.344V118.344H46.7313V120.344H48.7313ZM59.0438 120.344H61.0438V118.344H59.0438V120.344ZM59.8055 152.512L57.9858 153.342L57.9915 153.354L59.8055 152.512ZM69.1219 154.914L70.0593 156.681L69.1219 154.914ZM71.2898 152.512L73.1162 153.327L73.1214 153.315L71.2898 152.512ZM72.0223 122.344H82.3055V118.344H72.0223V122.344ZM80.3055 120.344V148.205H84.3055V120.344H80.3055ZM80.3055 148.205C80.3055 151.247 79.6717 153.684 78.5117 155.611L81.9391 157.674C83.5525 154.992 84.3055 151.804 84.3055 148.205H80.3055ZM78.5156 155.605C77.3404 157.542 75.702 159.007 73.5464 160.017L75.2442 163.639C78.0886 162.306 80.337 160.314 81.9352 157.68L78.5156 155.605ZM73.5464 160.017C71.3648 161.04 68.7268 161.586 65.577 161.586V165.586C69.185 165.586 72.4259 164.96 75.2442 163.639L73.5464 160.017ZM65.577 161.586C62.4711 161.586 59.8269 161.042 57.5967 160.012L55.9205 163.644C58.7684 164.958 62.0032 165.586 65.577 165.586V161.586ZM57.6021 160.015C55.4224 159.001 53.7512 157.529 52.5374 155.584L49.1438 157.701C50.7816 160.326 53.0558 162.312 55.9151 163.642L57.6021 160.015ZM52.5479 155.601C51.3727 153.675 50.7313 151.242 50.7313 148.205H46.7313C46.7313 151.809 47.496 155.001 49.1333 157.684L52.5479 155.601ZM50.7313 148.205V120.344H46.7313V148.205H50.7313ZM48.7313 122.344H59.0438V118.344H48.7313V122.344ZM57.0438 120.344V148.205H61.0438V120.344H57.0438ZM57.0438 148.205C57.0438 150.134 57.3191 151.88 57.9858 153.342L61.6251 151.682C61.2763 150.917 61.0438 149.792 61.0438 148.205H57.0438ZM57.9915 153.354C58.6664 154.808 59.7029 155.957 61.1093 156.688L62.9547 153.14C62.408 152.855 61.9601 152.403 61.6195 151.669L57.9915 153.354ZM61.1093 156.688C62.4354 157.378 63.9506 157.676 65.577 157.676V153.676C64.4299 153.676 63.5818 153.466 62.9547 153.14L61.1093 156.688ZM65.577 157.676C67.2157 157.676 68.7403 157.381 70.0593 156.681L68.1844 153.147C67.5894 153.463 66.7507 153.676 65.577 153.676V157.676ZM70.0593 156.681C71.4524 155.942 72.4663 154.783 73.1161 153.327L69.4636 151.696C69.1368 152.428 68.7055 152.871 68.1844 153.147L70.0593 156.681ZM73.1214 153.315C73.7588 151.862 74.0223 150.126 74.0223 148.205H70.0223C70.0223 149.8 69.7975 150.935 69.4583 151.708L73.1214 153.315ZM74.0223 148.205V120.344H70.0223V148.205H74.0223ZM110.412 129.309L112.323 129.899L112.371 129.742L112.393 129.581L110.412 129.309ZM100.011 163V165H101.487L101.922 163.59L100.011 163ZM88.9664 163L87.0891 162.31L86.1008 165H88.9664V163ZM104.64 120.344V118.344H103.244L102.763 119.654L104.64 120.344ZM111.642 120.344L113.624 120.616L113.935 118.344H111.642V120.344ZM119.025 163L117.114 163.591L117.55 165H119.025V163ZM108.595 129.309L106.618 129.606L106.64 129.756L106.685 129.9L108.595 129.309ZM107.248 120.344V118.344H104.925L105.27 120.641L107.248 120.344ZM114.338 120.344L116.214 119.651L115.731 118.344H114.338V120.344ZM130.099 163V165H132.97L131.975 162.307L130.099 163ZM118.615 147.092H120.615V145.092H118.615V147.092ZM118.615 155.031V157.031H120.615V155.031H118.615ZM96.7301 155.031H94.7301V157.031H96.7301V155.031ZM96.7301 147.092V145.092H94.7301V147.092H96.7301ZM108.501 128.719L98.1003 162.41L101.922 163.59L112.323 129.899L108.501 128.719ZM100.011 161H88.9664V165H100.011V161ZM90.8437 163.69L106.518 121.034L102.763 119.654L87.0891 162.31L90.8437 163.69ZM104.64 122.344H111.642V118.344H104.64V122.344ZM109.661 120.072L108.43 129.037L112.393 129.581L113.624 120.616L109.661 120.072ZM120.936 162.409L110.506 128.717L106.685 129.9L117.114 163.591L120.936 162.409ZM110.573 129.011L109.225 120.046L105.27 120.641L106.618 129.606L110.573 129.011ZM107.248 122.344H114.338V118.344H107.248V122.344ZM112.461 121.037L128.223 163.693L131.975 162.307L116.214 119.651L112.461 121.037ZM130.099 161H119.025V165H130.099V161ZM116.615 147.092V155.031H120.615V147.092H116.615ZM118.615 153.031H96.7301V157.031H118.615V153.031ZM98.7301 155.031V147.092H94.7301V155.031H98.7301ZM96.7301 149.092H118.615V145.092H96.7301V149.092ZM165.618 155.09H167.618V153.09H165.618V155.09ZM165.618 163V165H167.618V163H165.618ZM144.055 163H142.055V165H144.055V163ZM144.055 155.09V153.09H142.055V155.09H144.055ZM147.717 120.344H149.717V118.344H147.717V120.344ZM147.717 163V165H149.717V163H147.717ZM137.434 163H135.434V165H137.434V163ZM137.434 120.344V118.344H135.434V120.344H137.434ZM163.618 155.09V163H167.618V155.09H163.618ZM165.618 161H144.055V165H165.618V161ZM146.055 163V155.09H142.055V163H146.055ZM144.055 157.09H165.618V153.09H144.055V157.09ZM145.717 120.344V163H149.717V120.344H145.717ZM147.717 161H137.434V165H147.717V161ZM139.434 163V120.344H135.434V163H139.434ZM137.434 122.344H147.717V118.344H137.434V122.344ZM185.081 120.344H187.081V118.344H185.081V120.344ZM185.081 163V165H187.081V163H185.081ZM174.827 163H172.827V165H174.827V163ZM174.827 120.344V118.344H172.827V120.344H174.827ZM183.081 120.344V163H187.081V120.344H183.081ZM185.081 161H174.827V165H185.081V161ZM176.827 163V120.344H172.827V163H176.827ZM174.827 122.344H185.081V118.344H174.827V122.344ZM200.912 163L198.912 162.985L198.897 165H200.912V163ZM200.971 155.09V153.09H198.985L198.971 155.075L200.971 155.09ZM215.326 153.684L214.195 152.034L214.184 152.042L215.326 153.684ZM218.432 149.494L216.565 148.775L216.561 148.785L218.432 149.494ZM218.9 135.344L216.96 135.829L216.964 135.843L216.968 135.858L218.9 135.344ZM217.143 131.447L215.535 132.638L215.541 132.645L215.546 132.652L217.143 131.447ZM214.213 129.074L213.381 130.893L213.392 130.898L214.213 129.074ZM200.736 128.283H198.736V130.283H200.736V128.283ZM200.736 120.344V118.344H198.736V120.344H200.736ZM218.168 121.838L217.402 123.685L217.411 123.689L217.42 123.693L218.168 121.838ZM224.438 126.057L222.993 127.44L223 127.448L223.008 127.455L224.438 126.057ZM228.539 132.531L226.671 133.246L226.675 133.255L226.678 133.264L228.539 132.531ZM228.539 150.842L226.676 150.114L226.671 150.127L228.539 150.842ZM218.227 161.535L218.985 163.386L218.993 163.383L218.227 161.535ZM206.801 120.344H208.801V118.344H206.801V120.344ZM206.801 163V165H208.801V163H206.801ZM196.518 163H194.518V165H196.518V163ZM196.518 120.344V118.344H194.518V120.344H196.518ZM210.375 161H200.912V165H210.375V161ZM202.912 163.015L202.971 155.105L198.971 155.075L198.912 162.985L202.912 163.015ZM200.971 157.09H210.375V153.09H200.971V157.09ZM210.375 157.09C212.657 157.09 214.726 156.538 216.468 155.325L214.184 152.042C213.231 152.705 211.999 153.09 210.375 153.09V157.09ZM216.457 155.333C218.223 154.122 219.483 152.363 220.302 150.203L216.561 148.785C215.974 150.336 215.164 151.37 214.195 152.034L216.457 155.333ZM220.298 150.213C221.135 148.042 221.516 145.477 221.516 142.58H217.516C217.516 145.151 217.174 147.196 216.565 148.775L220.298 150.213ZM221.516 142.58V140.734H217.516V142.58H221.516ZM221.516 140.734C221.516 138.557 221.299 136.58 220.833 134.83L216.968 135.858C217.323 137.193 217.516 138.811 217.516 140.734H221.516ZM220.841 134.859C220.4 133.097 219.716 131.537 218.739 130.242L215.546 132.652C216.132 133.428 216.619 134.466 216.96 135.829L220.841 134.859ZM218.75 130.257C217.769 128.933 216.524 127.921 215.034 127.25L213.392 130.898C214.245 131.282 214.953 131.852 215.535 132.638L218.75 130.257ZM215.045 127.256C213.587 126.589 211.967 126.283 210.229 126.283V130.283C211.498 130.283 212.534 130.505 213.381 130.893L215.045 127.256ZM210.229 126.283H200.736V130.283H210.229V126.283ZM202.736 128.283V120.344H198.736V128.283H202.736ZM200.736 122.344H210.229V118.344H200.736V122.344ZM210.229 122.344C212.886 122.344 215.268 122.801 217.402 123.685L218.934 119.99C216.263 118.883 213.353 118.344 210.229 118.344V122.344ZM217.42 123.693C219.586 124.566 221.437 125.814 222.993 127.44L225.882 124.673C223.923 122.627 221.593 121.063 218.916 119.983L217.42 123.693ZM223.008 127.455C224.584 129.066 225.807 130.988 226.671 133.246L230.407 131.816C229.357 129.075 227.846 126.68 225.867 124.658L223.008 127.455ZM226.678 133.264C227.551 135.482 228.004 137.983 228.004 140.793H232.004C232.004 137.549 231.48 134.542 230.4 131.799L226.678 133.264ZM228.004 140.793V142.58H232.004V140.793H228.004ZM228.004 142.58C228.004 145.369 227.552 147.872 226.676 150.114L230.402 151.569C231.479 148.811 232.004 145.807 232.004 142.58H228.004ZM226.671 150.127C225.805 152.39 224.589 154.314 223.03 155.926L225.904 158.707C227.86 156.686 229.359 154.294 230.407 151.557L226.671 150.127ZM223.03 155.926C221.467 157.54 219.618 158.793 217.461 159.688L218.993 163.383C221.64 162.285 223.95 160.726 225.904 158.707L223.03 155.926ZM217.468 159.685C215.351 160.552 212.994 161 210.375 161V165C213.459 165 216.337 164.471 218.985 163.386L217.468 159.685ZM204.801 120.344V163H208.801V120.344H204.801ZM206.801 161H196.518V165H206.801V161ZM198.518 163V120.344H194.518V163H198.518ZM196.518 122.344H206.801V118.344H196.518V122.344ZM256.997 129.309L258.908 129.899L258.956 129.742L258.978 129.581L256.997 129.309ZM246.596 163V165H248.072L248.507 163.59L246.596 163ZM235.552 163L233.674 162.31L232.686 165H235.552V163ZM251.225 120.344V118.344H249.83L249.348 119.654L251.225 120.344ZM258.227 120.344L260.209 120.616L260.521 118.344H258.227V120.344ZM265.61 163L263.7 163.591L264.136 165H265.61V163ZM255.18 129.309L253.203 129.606L253.225 129.756L253.27 129.9L255.18 129.309ZM253.833 120.344V118.344H251.51L251.855 120.641L253.833 120.344ZM260.923 120.344L262.799 119.651L262.316 118.344H260.923V120.344ZM276.684 163V165H279.556L278.56 162.307L276.684 163ZM265.2 147.092H267.2V145.092H265.2V147.092ZM265.2 155.031V157.031H267.2V155.031H265.2ZM243.315 155.031H241.315V157.031H243.315V155.031ZM243.315 147.092V145.092H241.315V147.092H243.315ZM255.086 128.719L244.685 162.41L248.507 163.59L258.908 129.899L255.086 128.719ZM246.596 161H235.552V165H246.596V161ZM237.429 163.69L253.103 121.034L249.348 119.654L233.674 162.31L237.429 163.69ZM251.225 122.344H258.227V118.344H251.225V122.344ZM256.246 120.072L255.015 129.037L258.978 129.581L260.209 120.616L256.246 120.072ZM267.521 162.409L257.091 128.717L253.27 129.9L263.7 163.591L267.521 162.409ZM257.158 129.011L255.811 120.046L251.855 120.641L253.203 129.606L257.158 129.011ZM253.833 122.344H260.923V118.344H253.833V122.344ZM259.047 121.037L274.808 163.693L278.56 162.307L262.799 119.651L259.047 121.037ZM276.684 161H265.61V165H276.684V161ZM263.2 147.092V155.031H267.2V147.092H263.2ZM265.2 153.031H243.315V157.031H265.2V153.031ZM245.315 155.031V147.092H241.315V155.031H245.315ZM243.315 149.092H265.2V145.092H243.315V149.092ZM288.414 163L286.414 162.985L286.399 165H288.414V163ZM288.472 155.09V153.09H286.487L286.472 155.075L288.472 155.09ZM302.828 153.684L301.697 152.034L301.686 152.042L302.828 153.684ZM305.933 149.494L304.067 148.775L304.063 148.785L305.933 149.494ZM306.402 135.344L304.462 135.829L304.465 135.843L304.469 135.858L306.402 135.344ZM304.644 131.447L303.037 132.638L303.042 132.645L303.048 132.652L304.644 131.447ZM301.714 129.074L300.882 130.893L300.894 130.898L301.714 129.074ZM288.238 128.283H286.238V130.283H288.238V128.283ZM288.238 120.344V118.344H286.238V120.344H288.238ZM305.67 121.838L304.903 123.685L304.913 123.689L304.922 123.693L305.67 121.838ZM311.939 126.057L310.494 127.44L310.502 127.448L310.51 127.455L311.939 126.057ZM316.041 132.531L314.173 133.246L314.176 133.255L314.18 133.264L316.041 132.531ZM316.041 150.842L314.178 150.114L314.173 150.127L316.041 150.842ZM305.728 161.535L306.487 163.386L306.494 163.383L305.728 161.535ZM294.302 120.344H296.302V118.344H294.302V120.344ZM294.302 163V165H296.302V163H294.302ZM284.019 163H282.019V165H284.019V163ZM284.019 120.344V118.344H282.019V120.344H284.019ZM297.877 161H288.414V165H297.877V161ZM290.414 163.015L290.472 155.105L286.472 155.075L286.414 162.985L290.414 163.015ZM288.472 157.09H297.877V153.09H288.472V157.09ZM297.877 157.09C300.159 157.09 302.227 156.538 303.97 155.325L301.686 152.042C300.733 152.705 299.501 153.09 297.877 153.09V157.09ZM303.959 155.333C305.724 154.122 306.985 152.363 307.803 150.203L304.063 148.785C303.475 150.336 302.665 151.37 301.697 152.034L303.959 155.333ZM307.799 150.213C308.636 148.042 309.017 145.477 309.017 142.58H305.017C305.017 145.151 304.676 147.196 304.067 148.775L307.799 150.213ZM309.017 142.58V140.734H305.017V142.58H309.017ZM309.017 140.734C309.017 138.557 308.8 136.58 308.335 134.83L304.469 135.858C304.824 137.193 305.017 138.811 305.017 140.734H309.017ZM308.342 134.859C307.902 133.097 307.218 131.537 306.241 130.242L303.048 132.652C303.633 133.428 304.121 134.466 304.462 135.829L308.342 134.859ZM306.251 130.257C305.271 128.933 304.026 127.921 302.535 127.25L300.894 130.898C301.747 131.282 302.455 131.852 303.037 132.638L306.251 130.257ZM302.547 127.256C301.089 126.589 299.468 126.283 297.73 126.283V130.283C299 130.283 300.035 130.505 300.882 130.893L302.547 127.256ZM297.73 126.283H288.238V130.283H297.73V126.283ZM290.238 128.283V120.344H286.238V128.283H290.238ZM288.238 122.344H297.73V118.344H288.238V122.344ZM297.73 122.344C300.387 122.344 302.77 122.801 304.903 123.685L306.436 119.99C303.765 118.883 300.854 118.344 297.73 118.344V122.344ZM304.922 123.693C307.088 124.566 308.938 125.814 310.494 127.44L313.384 124.673C311.424 122.627 309.095 121.063 306.417 119.983L304.922 123.693ZM310.51 127.455C312.085 129.066 313.308 130.988 314.173 133.246L317.908 131.816C316.859 129.075 315.347 126.68 313.369 124.658L310.51 127.455ZM314.18 133.264C315.053 135.482 315.505 137.983 315.505 140.793H319.505C319.505 137.549 318.982 134.542 317.902 131.799L314.18 133.264ZM315.505 140.793V142.58H319.505V140.793H315.505ZM315.505 142.58C315.505 145.369 315.053 147.872 314.178 150.114L317.904 151.569C318.981 148.811 319.505 145.807 319.505 142.58H315.505ZM314.173 150.127C313.306 152.39 312.09 154.314 310.531 155.926L313.406 158.707C315.362 156.686 316.861 154.294 317.908 151.557L314.173 150.127ZM310.531 155.926C308.969 157.54 307.119 158.793 304.962 159.688L306.494 163.383C309.142 162.285 311.452 160.726 313.406 158.707L310.531 155.926ZM304.97 159.685C302.852 160.552 300.496 161 297.877 161V165C300.96 165 303.838 164.471 306.487 163.386L304.97 159.685ZM292.302 120.344V163H296.302V120.344H292.302ZM294.302 161H284.019V165H294.302V161ZM286.019 163V120.344H282.019V163H286.019ZM284.019 122.344H294.302V118.344H284.019V122.344ZM356.422 155.09H358.422V153.09H356.422V155.09ZM356.422 163V165H358.422V163H356.422ZM333.688 163H331.688V165H333.688V163ZM333.688 155.09V153.09H331.688V155.09H333.688ZM337.35 120.344H339.35V118.344H337.35V120.344ZM337.35 163V165H339.35V163H337.35ZM327.067 163H325.067V165H327.067V163ZM327.067 120.344V118.344H325.067V120.344H327.067ZM353.493 137.277H355.493V135.277H353.493V137.277ZM353.493 144.924V146.924H355.493V144.924H353.493ZM333.688 144.924H331.688V146.924H333.688V144.924ZM333.688 137.277V135.277H331.688V137.277H333.688ZM356.51 120.344H358.51V118.344H356.51V120.344ZM356.51 128.283V130.283H358.51V128.283H356.51ZM333.688 128.283H331.688V130.283H333.688V128.283ZM333.688 120.344V118.344H331.688V120.344H333.688ZM354.422 155.09V163H358.422V155.09H354.422ZM356.422 161H333.688V165H356.422V161ZM335.688 163V155.09H331.688V163H335.688ZM333.688 157.09H356.422V153.09H333.688V157.09ZM335.35 120.344V163H339.35V120.344H335.35ZM337.35 161H327.067V165H337.35V161ZM329.067 163V120.344H325.067V163H329.067ZM327.067 122.344H337.35V118.344H327.067V122.344ZM351.493 137.277V144.924H355.493V137.277H351.493ZM353.493 142.924H333.688V146.924H353.493V142.924ZM335.688 144.924V137.277H331.688V144.924H335.688ZM333.688 139.277H353.493V135.277H333.688V139.277ZM354.51 120.344V128.283H358.51V120.344H354.51ZM356.51 126.283H333.688V130.283H356.51V126.283ZM335.688 128.283V120.344H331.688V128.283H335.688ZM333.688 122.344H356.51V118.344H333.688V122.344Z" fill="#464646" mask="url(#path-3-outside-2_1_56)"/>
<mask id="path-5-outside-3_1_56" maskUnits="userSpaceOnUse" x="1" y="215" width="329" height="73" fill="black">
<rect fill="white" x="1" y="215" width="329" height="73"/>
<path d="M14.1797 229.344V272H3.92578V229.344H14.1797ZM61.241 229.344V272H50.9871L35.8992 245.457V272H25.616V229.344H35.8992L50.9871 255.887V229.344H61.241ZM108.039 249.822V251.551C108.039 254.812 107.58 257.742 106.662 260.34C105.763 262.918 104.484 265.125 102.824 266.961C101.164 268.777 99.2008 270.174 96.9352 271.15C94.6695 272.107 92.1695 272.586 89.4352 272.586C86.6813 272.586 84.1617 272.107 81.8766 271.15C79.6109 270.174 77.6383 268.777 75.9586 266.961C74.2984 265.125 73.0094 262.918 72.0914 260.34C71.193 257.742 70.7438 254.812 70.7438 251.551V249.822C70.7438 246.561 71.193 243.631 72.0914 241.033C73.0094 238.436 74.2887 236.229 75.9293 234.412C77.5895 232.576 79.5523 231.18 81.818 230.223C84.1031 229.246 86.6227 228.758 89.3766 228.758C92.1109 228.758 94.6109 229.246 96.8766 230.223C99.1617 231.18 101.134 232.576 102.795 234.412C104.455 236.229 105.744 238.436 106.662 241.033C107.58 243.631 108.039 246.561 108.039 249.822ZM97.609 251.551V249.764C97.609 247.654 97.4234 245.799 97.0523 244.197C96.7008 242.576 96.1734 241.219 95.4703 240.125C94.7672 239.031 93.898 238.211 92.8629 237.664C91.8473 237.098 90.6852 236.814 89.3766 236.814C88.0094 236.814 86.818 237.098 85.8023 237.664C84.7867 238.211 83.9371 239.031 83.2535 240.125C82.5699 241.219 82.0523 242.576 81.7008 244.197C81.3688 245.799 81.2027 247.654 81.2027 249.764V251.551C81.2027 253.641 81.3688 255.496 81.7008 257.117C82.0523 258.719 82.5699 260.076 83.2535 261.189C83.9566 262.303 84.816 263.143 85.8316 263.709C86.8668 264.275 88.068 264.559 89.4352 264.559C90.7438 264.559 91.9059 264.275 92.9215 263.709C93.9371 263.143 94.7867 262.303 95.4703 261.189C96.1734 260.076 96.7008 258.719 97.0523 257.117C97.4234 255.496 97.609 253.641 97.609 251.551ZM133.069 261.951L141.946 229.344H153.459L139.075 272H131.633L133.069 261.951ZM125.012 229.344L133.889 261.951L135.383 272H127.854L113.557 229.344H125.012ZM176.644 238.309L166.243 272H155.198L170.872 229.344H177.874L176.644 238.309ZM185.257 272L174.827 238.309L173.48 229.344H180.57L196.331 272H185.257ZM184.847 256.092V264.031H162.962V256.092H184.847ZM227.279 257.557H237.533C237.396 260.525 236.596 263.143 235.131 265.408C233.666 267.674 231.635 269.441 229.037 270.711C226.459 271.961 223.412 272.586 219.896 272.586C217.045 272.586 214.496 272.107 212.25 271.15C210.023 270.193 208.129 268.816 206.566 267.02C205.023 265.223 203.842 263.045 203.021 260.486C202.221 257.928 201.82 255.047 201.82 251.844V249.529C201.82 246.326 202.24 243.445 203.08 240.887C203.939 238.309 205.15 236.121 206.713 234.324C208.295 232.508 210.189 231.121 212.396 230.164C214.604 229.207 217.055 228.729 219.75 228.729C223.461 228.729 226.596 229.393 229.154 230.721C231.713 232.049 233.695 233.875 235.102 236.199C236.508 238.504 237.338 241.131 237.592 244.08H227.338C227.299 242.479 227.025 241.141 226.518 240.066C226.01 238.973 225.209 238.152 224.115 237.605C223.021 237.059 221.566 236.785 219.75 236.785C218.48 236.785 217.377 237.02 216.439 237.488C215.502 237.957 214.721 238.699 214.096 239.715C213.471 240.73 213.002 242.049 212.689 243.67C212.396 245.271 212.25 247.205 212.25 249.471V251.844C212.25 254.109 212.387 256.043 212.66 257.645C212.934 259.246 213.373 260.555 213.979 261.57C214.584 262.586 215.365 263.338 216.322 263.826C217.299 264.295 218.49 264.529 219.896 264.529C221.459 264.529 222.777 264.285 223.852 263.797C224.926 263.289 225.756 262.527 226.342 261.512C226.928 260.477 227.24 259.158 227.279 257.557ZM216.234 271.707H223.764L223.441 273.494C224.535 273.689 225.541 274.158 226.459 274.9C227.377 275.662 227.836 276.883 227.836 278.562C227.836 279.656 227.602 280.643 227.133 281.521C226.664 282.42 225.971 283.191 225.053 283.836C224.135 284.48 222.992 284.969 221.625 285.301C220.258 285.652 218.676 285.828 216.879 285.828L216.674 280.379C217.182 280.379 217.631 280.301 218.021 280.145C218.412 279.988 218.715 279.744 218.93 279.412C219.164 279.08 219.281 278.65 219.281 278.123C219.281 277.615 219.145 277.215 218.871 276.922C218.617 276.648 218.197 276.434 217.611 276.277C217.025 276.141 216.264 276.043 215.326 275.984L216.234 271.707ZM264.673 238.309L254.272 272H243.227L258.901 229.344H265.903L264.673 238.309ZM273.286 272L262.856 238.309L261.509 229.344H268.598L284.36 272H273.286ZM272.876 256.092V264.031H250.991V256.092H272.876ZM269.682 217.859L275.132 218.182C275.132 219.607 274.839 220.926 274.253 222.137C273.686 223.348 272.895 224.324 271.88 225.066C270.864 225.809 269.692 226.18 268.364 226.18C267.466 226.18 266.665 226.062 265.962 225.828C265.278 225.574 264.634 225.281 264.028 224.949C263.442 224.617 262.837 224.334 262.212 224.1C261.606 223.846 260.932 223.719 260.19 223.719C259.585 223.719 259.057 223.934 258.608 224.363C258.179 224.793 257.964 225.457 257.964 226.355L252.456 226.062C252.456 224.676 252.739 223.377 253.305 222.166C253.891 220.936 254.692 219.949 255.708 219.207C256.723 218.445 257.895 218.064 259.223 218.064C259.985 218.064 260.708 218.191 261.391 218.445C262.075 218.68 262.739 218.963 263.384 219.295C264.028 219.607 264.673 219.891 265.317 220.145C265.981 220.379 266.665 220.496 267.368 220.496C267.993 220.496 268.53 220.281 268.979 219.852C269.448 219.422 269.682 218.758 269.682 217.859ZM327.144 249.822V251.551C327.144 254.812 326.685 257.742 325.767 260.34C324.869 262.918 323.589 265.125 321.929 266.961C320.269 268.777 318.306 270.174 316.041 271.15C313.775 272.107 311.275 272.586 308.541 272.586C305.787 272.586 303.267 272.107 300.982 271.15C298.716 270.174 296.744 268.777 295.064 266.961C293.404 265.125 292.115 262.918 291.197 260.34C290.298 257.742 289.849 254.812 289.849 251.551V249.822C289.849 246.561 290.298 243.631 291.197 241.033C292.115 238.436 293.394 236.229 295.035 234.412C296.695 232.576 298.658 231.18 300.923 230.223C303.209 229.246 305.728 228.758 308.482 228.758C311.216 228.758 313.716 229.246 315.982 230.223C318.267 231.18 320.24 232.576 321.9 234.412C323.56 236.229 324.849 238.436 325.767 241.033C326.685 243.631 327.144 246.561 327.144 249.822ZM316.714 251.551V249.764C316.714 247.654 316.529 245.799 316.158 244.197C315.806 242.576 315.279 241.219 314.576 240.125C313.873 239.031 313.004 238.211 311.968 237.664C310.953 237.098 309.791 236.814 308.482 236.814C307.115 236.814 305.923 237.098 304.908 237.664C303.892 238.211 303.043 239.031 302.359 240.125C301.675 241.219 301.158 242.576 300.806 244.197C300.474 245.799 300.308 247.654 300.308 249.764V251.551C300.308 253.641 300.474 255.496 300.806 257.117C301.158 258.719 301.675 260.076 302.359 261.189C303.062 262.303 303.921 263.143 304.937 263.709C305.972 264.275 307.173 264.559 308.541 264.559C309.849 264.559 311.011 264.275 312.027 263.709C313.043 263.143 313.892 262.303 314.576 261.189C315.279 260.076 315.806 258.719 316.158 257.117C316.529 255.496 316.714 253.641 316.714 251.551Z"/>
</mask>
<path d="M14.1797 229.344H16.1797V227.344H14.1797V229.344ZM14.1797 272V274H16.1797V272H14.1797ZM3.92578 272H1.92578V274H3.92578V272ZM3.92578 229.344V227.344H1.92578V229.344H3.92578ZM12.1797 229.344V272H16.1797V229.344H12.1797ZM14.1797 270H3.92578V274H14.1797V270ZM5.92578 272V229.344H1.92578V272H5.92578ZM3.92578 231.344H14.1797V227.344H3.92578V231.344ZM61.241 229.344H63.241V227.344H61.241V229.344ZM61.241 272V274H63.241V272H61.241ZM50.9871 272L49.2484 272.988L49.8234 274H50.9871V272ZM35.8992 245.457L37.6379 244.469L33.8992 237.891V245.457H35.8992ZM35.8992 272V274H37.8992V272H35.8992ZM25.616 272H23.616V274H25.616V272ZM25.616 229.344V227.344H23.616V229.344H25.616ZM35.8992 229.344L37.6379 228.355L37.0629 227.344H35.8992V229.344ZM50.9871 255.887L49.2484 256.875L52.9871 263.452V255.887H50.9871ZM50.9871 229.344V227.344H48.9871V229.344H50.9871ZM59.241 229.344V272H63.241V229.344H59.241ZM61.241 270H50.9871V274H61.241V270ZM52.7258 271.012L37.6379 244.469L34.1605 246.445L49.2484 272.988L52.7258 271.012ZM33.8992 245.457V272H37.8992V245.457H33.8992ZM35.8992 270H25.616V274H35.8992V270ZM27.616 272V229.344H23.616V272H27.616ZM25.616 231.344H35.8992V227.344H25.616V231.344ZM34.1605 230.332L49.2484 256.875L52.7258 254.898L37.6379 228.355L34.1605 230.332ZM52.9871 255.887V229.344H48.9871V255.887H52.9871ZM50.9871 231.344H61.241V227.344H50.9871V231.344ZM106.662 260.34L104.776 259.673L104.773 259.682L106.662 260.34ZM102.824 266.961L104.3 268.31L104.307 268.302L102.824 266.961ZM96.9352 271.15L97.7134 272.993L97.7201 272.99L97.7268 272.987L96.9352 271.15ZM81.8766 271.15L81.0849 272.987L81.0944 272.991L81.104 272.995L81.8766 271.15ZM75.9586 266.961L74.4751 268.302L74.4826 268.311L74.4902 268.319L75.9586 266.961ZM72.0914 260.34L70.2013 260.994L70.2042 261.002L70.2073 261.011L72.0914 260.34ZM72.0914 241.033L70.2056 240.367L70.2013 240.379L72.0914 241.033ZM75.9293 234.412L74.4459 233.071L74.4451 233.072L75.9293 234.412ZM81.818 230.223L82.5962 232.065L82.6039 232.062L81.818 230.223ZM96.8766 230.223L96.0849 232.059L96.0944 232.063L96.104 232.067L96.8766 230.223ZM102.795 234.412L101.311 235.754L101.318 235.761L102.795 234.412ZM97.0523 244.197L95.0978 244.621L95.1008 244.635L95.104 244.649L97.0523 244.197ZM95.4703 240.125L93.788 241.207L95.4703 240.125ZM92.8629 237.664L91.8888 239.411L91.9086 239.422L91.9287 239.432L92.8629 237.664ZM85.8023 237.664L86.7505 239.425L86.7636 239.418L86.7765 239.411L85.8023 237.664ZM81.7008 244.197L79.7462 243.773L79.7443 243.782L79.7424 243.791L81.7008 244.197ZM81.7008 257.117L79.7415 257.518L79.7443 257.532L79.7473 257.546L81.7008 257.117ZM83.2535 261.189L81.5492 262.236L81.5558 262.247L81.5625 262.257L83.2535 261.189ZM85.8316 263.709L84.8575 265.456L84.8645 265.46L84.8716 265.464L85.8316 263.709ZM92.9215 263.709L93.8956 265.456L92.9215 263.709ZM95.4703 261.189L93.7793 260.121L93.7726 260.132L93.766 260.143L95.4703 261.189ZM97.0523 257.117L95.1028 256.671L95.1008 256.68L95.0989 256.688L97.0523 257.117ZM106.039 249.822V251.551H110.039V249.822H106.039ZM106.039 251.551C106.039 254.626 105.606 257.325 104.776 259.673L108.547 261.006C109.554 258.159 110.039 254.999 110.039 251.551H106.039ZM104.773 259.682C103.954 262.033 102.803 264.001 101.34 265.62L104.307 268.302C106.164 266.249 107.573 263.803 108.55 260.998L104.773 259.682ZM101.348 265.612C99.879 267.218 98.1497 268.449 96.1435 269.314L97.7268 272.987C100.252 271.899 102.448 270.336 104.3 268.31L101.348 265.612ZM96.1569 269.308C94.1637 270.15 91.9321 270.586 89.4352 270.586V274.586C92.4069 274.586 95.1753 274.065 97.7134 272.993L96.1569 269.308ZM89.4352 270.586C86.9169 270.586 84.6637 270.149 82.6492 269.306L81.104 272.995C83.6598 274.066 86.4456 274.586 89.4352 274.586V270.586ZM82.6682 269.314C80.6599 268.448 78.9176 267.215 77.427 265.603L74.4902 268.319C76.359 270.34 78.562 271.9 81.0849 272.987L82.6682 269.314ZM77.442 265.62C75.976 263.998 74.8147 262.026 73.9755 259.669L70.2073 261.011C71.2041 263.81 72.6209 266.252 74.4751 268.302L77.442 265.62ZM73.9815 259.686C73.168 257.334 72.7438 254.63 72.7438 251.551H68.7438C68.7438 254.995 69.218 258.151 70.2013 260.994L73.9815 259.686ZM72.7438 251.551V249.822H68.7438V251.551H72.7438ZM72.7438 249.822C72.7438 246.743 73.168 244.039 73.9815 241.687L70.2013 240.379C69.218 243.223 68.7438 246.378 68.7438 249.822H72.7438ZM73.9771 241.7C74.8181 239.32 75.9708 237.35 77.4135 235.753L74.4451 233.072C72.6065 235.107 71.2006 237.551 70.2057 240.367L73.9771 241.7ZM77.4127 235.754C78.8785 234.133 80.6012 232.908 82.5962 232.065L81.0397 228.38C78.5035 229.452 76.3004 231.02 74.4459 233.071L77.4127 235.754ZM82.6039 232.062C84.615 231.202 86.8635 230.758 89.3766 230.758V226.758C86.3818 226.758 83.5912 227.29 81.032 228.384L82.6039 232.062ZM89.3766 230.758C91.8683 230.758 94.0951 231.202 96.0849 232.059L97.6682 228.386C95.1268 227.291 92.3536 226.758 89.3766 226.758V230.758ZM96.104 232.067C98.1183 232.911 99.8482 234.136 101.311 235.754L104.278 233.071C102.421 231.017 100.205 229.448 97.6492 228.378L96.104 232.067ZM101.318 235.761C102.777 237.358 103.937 239.324 104.776 241.7L108.547 240.367C107.551 237.547 106.132 235.099 104.271 233.063L101.318 235.761ZM104.776 241.7C105.606 244.048 106.039 246.747 106.039 249.822H110.039C110.039 246.374 109.554 243.214 108.547 240.367L104.776 241.7ZM99.609 251.551V249.764H95.609V251.551H99.609ZM99.609 249.764C99.609 247.543 99.4142 245.53 99.0007 243.746L95.104 244.649C95.4327 246.067 95.609 247.766 95.609 249.764H99.609ZM99.0069 243.773C98.618 241.98 98.0153 240.385 97.1527 239.043L93.788 241.207C94.3316 242.052 94.7836 243.172 95.0978 244.621L99.0069 243.773ZM97.1527 239.043C96.2845 237.693 95.1693 236.621 93.7971 235.896L91.9287 239.432C92.6268 239.801 93.2499 240.37 93.788 241.207L97.1527 239.043ZM93.837 235.917C92.4878 235.165 90.9827 234.814 89.3766 234.814V238.814C90.3876 238.814 91.2067 239.03 91.8888 239.411L93.837 235.917ZM89.3766 234.814C87.7286 234.814 86.1901 235.158 84.8282 235.917L86.7765 239.411C87.4458 239.038 88.2902 238.814 89.3766 238.814V234.814ZM84.8541 235.903C83.4977 236.634 82.403 237.712 81.5575 239.065L84.9495 241.185C85.4712 240.35 86.0758 239.788 86.7505 239.425L84.8541 235.903ZM81.5575 239.065C80.7224 240.401 80.1334 241.988 79.7462 243.773L83.6553 244.621C83.9713 243.164 84.4175 242.036 84.9495 241.185L81.5575 239.065ZM79.7424 243.791C79.3761 245.558 79.2027 247.555 79.2027 249.764H83.2027C83.2027 247.754 83.3614 246.039 83.6591 244.603L79.7424 243.791ZM79.2027 249.764V251.551H83.2027V249.764H79.2027ZM79.2027 251.551C79.2027 253.742 79.3764 255.736 79.7415 257.518L83.6601 256.716C83.3611 255.256 83.2027 253.539 83.2027 251.551H79.2027ZM79.7473 257.546C80.1351 259.313 80.7231 260.891 81.5492 262.236L84.9579 260.143C84.4168 259.262 83.9696 258.125 83.6543 256.688L79.7473 257.546ZM81.5625 262.257C82.4202 263.615 83.5132 264.706 84.8575 265.456L86.8058 261.962C86.1189 261.579 85.4931 260.99 84.9445 260.121L81.5625 262.257ZM84.8716 265.464C86.2448 266.215 87.7861 266.559 89.4352 266.559V262.559C88.3499 262.559 87.4888 262.336 86.7917 261.954L84.8716 265.464ZM89.4352 266.559C91.0413 266.559 92.5464 266.208 93.8956 265.456L91.9473 261.962C91.2653 262.343 90.4462 262.559 89.4352 262.559V266.559ZM93.8956 265.456C95.2461 264.703 96.3342 263.605 97.1747 262.236L93.766 260.143C93.2392 261.001 92.6281 261.583 91.9473 261.962L93.8956 265.456ZM97.1613 262.257C98.0145 260.906 98.6162 259.321 99.0058 257.546L95.0989 256.688C94.7853 258.117 94.3324 259.246 93.7793 260.121L97.1613 262.257ZM99.0019 257.563C99.4138 255.764 99.609 253.754 99.609 251.551H95.609C95.609 253.527 95.4331 255.228 95.1028 256.671L99.0019 257.563ZM133.069 261.951L131.139 261.426L131.106 261.546L131.089 261.668L133.069 261.951ZM141.946 229.344V227.344H140.417L140.016 228.818L141.946 229.344ZM153.459 229.344L155.355 229.983L156.244 227.344H153.459V229.344ZM139.075 272V274H140.511L140.97 272.639L139.075 272ZM131.633 272L129.653 271.717L129.327 274H131.633V272ZM125.012 229.344L126.942 228.818L126.54 227.344H125.012V229.344ZM133.889 261.951L135.867 261.657L135.85 261.54L135.819 261.426L133.889 261.951ZM135.383 272V274H137.703L137.361 271.706L135.383 272ZM127.854 272L125.958 272.636L126.415 274H127.854V272ZM113.557 229.344V227.344H110.777L111.661 229.979L113.557 229.344ZM134.999 262.477L143.875 229.869L140.016 228.818L131.139 261.426L134.999 262.477ZM141.946 231.344H153.459V227.344H141.946V231.344ZM151.564 228.705L137.179 271.361L140.97 272.639L155.355 229.983L151.564 228.705ZM139.075 270H131.633V274H139.075V270ZM133.613 272.283L135.049 262.234L131.089 261.668L129.653 271.717L133.613 272.283ZM123.082 229.869L131.959 262.477L135.819 261.426L126.942 228.818L123.082 229.869ZM131.911 262.245L133.405 272.294L137.361 271.706L135.867 261.657L131.911 262.245ZM135.383 270H127.854V274H135.383V270ZM129.75 271.364L115.453 228.708L111.661 229.979L125.958 272.636L129.75 271.364ZM113.557 231.344H125.012V227.344H113.557V231.344ZM176.644 238.309L178.555 238.899L178.603 238.742L178.625 238.581L176.644 238.309ZM166.243 272V274H167.719L168.154 272.59L166.243 272ZM155.198 272L153.321 271.31L152.333 274H155.198V272ZM170.872 229.344V227.344H169.476L168.995 228.654L170.872 229.344ZM177.874 229.344L179.856 229.616L180.167 227.344H177.874V229.344ZM185.257 272L183.346 272.591L183.783 274H185.257V272ZM174.827 238.309L172.85 238.606L172.872 238.756L172.917 238.9L174.827 238.309ZM173.48 229.344V227.344H171.157L171.502 229.641L173.48 229.344ZM180.57 229.344L182.446 228.651L181.963 227.344H180.57V229.344ZM196.331 272V274H199.202L198.207 271.307L196.331 272ZM184.847 256.092H186.847V254.092H184.847V256.092ZM184.847 264.031V266.031H186.847V264.031H184.847ZM162.962 264.031H160.962V266.031H162.962V264.031ZM162.962 256.092V254.092H160.962V256.092H162.962ZM174.733 237.719L164.332 271.41L168.154 272.59L178.555 238.899L174.733 237.719ZM166.243 270H155.198V274H166.243V270ZM157.076 272.69L172.75 230.034L168.995 228.654L153.321 271.31L157.076 272.69ZM170.872 231.344H177.874V227.344H170.872V231.344ZM175.893 229.072L174.662 238.037L178.625 238.581L179.856 229.616L175.893 229.072ZM187.168 271.409L176.738 237.717L172.917 238.9L183.346 272.591L187.168 271.409ZM176.805 238.011L175.457 229.046L171.502 229.641L172.85 238.606L176.805 238.011ZM173.48 231.344H180.57V227.344H173.48V231.344ZM178.694 230.037L194.455 272.693L198.207 271.307L182.446 228.651L178.694 230.037ZM196.331 270H185.257V274H196.331V270ZM182.847 256.092V264.031H186.847V256.092H182.847ZM184.847 262.031H162.962V266.031H184.847V262.031ZM164.962 264.031V256.092H160.962V264.031H164.962ZM162.962 258.092H184.847V254.092H162.962V258.092ZM227.279 257.557V255.557H225.327L225.28 257.508L227.279 257.557ZM237.533 257.557L239.531 257.649L239.627 255.557H237.533V257.557ZM229.037 270.711L229.91 272.511L229.915 272.508L229.037 270.711ZM212.25 271.15L211.46 272.988L211.466 272.99L212.25 271.15ZM206.566 267.02L205.049 268.322L205.057 268.332L206.566 267.02ZM203.021 260.486L201.113 261.084L201.117 261.097L203.021 260.486ZM203.08 240.887L201.183 240.254L201.18 240.263L203.08 240.887ZM206.713 234.324L205.205 233.011L205.204 233.012L206.713 234.324ZM235.102 236.199L233.39 237.235L233.394 237.241L235.102 236.199ZM237.592 244.08V246.08H239.771L239.584 243.909L237.592 244.08ZM227.338 244.08L225.338 244.129L225.386 246.08H227.338V244.08ZM226.518 240.066L224.704 240.909L224.709 240.921L226.518 240.066ZM214.096 239.715L212.392 238.667L214.096 239.715ZM212.689 243.67L210.726 243.291L210.724 243.301L210.722 243.31L212.689 243.67ZM216.322 263.826L215.413 265.608L215.435 265.619L215.457 265.629L216.322 263.826ZM223.852 263.797L224.679 265.618L224.693 265.611L224.706 265.605L223.852 263.797ZM226.342 261.512L228.074 262.511L228.078 262.504L228.082 262.497L226.342 261.512ZM216.234 271.707V269.707H214.614L214.278 271.292L216.234 271.707ZM223.764 271.707L225.732 272.062L226.157 269.707H223.764V271.707ZM223.441 273.494L221.473 273.139L221.118 275.111L223.09 275.463L223.441 273.494ZM226.459 274.9L227.736 273.361L227.726 273.353L227.716 273.345L226.459 274.9ZM227.133 281.521L225.368 280.58L225.364 280.588L225.36 280.596L227.133 281.521ZM221.625 285.301L221.153 283.357L221.14 283.36L221.127 283.364L221.625 285.301ZM216.879 285.828L214.88 285.903L214.953 287.828H216.879V285.828ZM216.674 280.379V278.379H214.597L214.675 280.454L216.674 280.379ZM218.021 280.145L217.279 278.288L218.021 280.145ZM218.93 279.412L217.296 278.259L217.272 278.292L217.251 278.326L218.93 279.412ZM218.871 276.922L217.406 278.283L217.409 278.287L218.871 276.922ZM217.611 276.277L218.127 274.345L218.096 274.337L218.066 274.33L217.611 276.277ZM215.326 275.984L213.37 275.569L212.888 277.836L215.201 277.98L215.326 275.984ZM227.279 259.557H237.533V255.557H227.279V259.557ZM235.535 257.465C235.413 260.117 234.705 262.384 233.451 264.322L236.81 266.494C238.487 263.902 239.38 260.934 239.531 257.649L235.535 257.465ZM233.451 264.322C232.198 266.261 230.454 267.792 228.159 268.914L229.915 272.508C232.815 271.09 235.134 269.087 236.81 266.494L233.451 264.322ZM228.165 268.911C225.913 270.003 223.177 270.586 219.896 270.586V274.586C223.647 274.586 227.005 273.919 229.91 272.511L228.165 268.911ZM219.896 270.586C217.27 270.586 214.994 270.146 213.034 269.31L211.466 272.99C213.998 274.069 216.82 274.586 219.896 274.586V270.586ZM213.04 269.313C211.084 268.472 209.437 267.273 208.076 265.707L205.057 268.332C206.821 270.36 208.963 271.914 211.46 272.988L213.04 269.313ZM208.084 265.717C206.737 264.148 205.676 262.214 204.926 259.876L201.117 261.097C202.008 263.876 203.31 266.298 205.049 268.322L208.084 265.717ZM204.93 259.889C204.2 257.557 203.82 254.882 203.82 251.844H199.82C199.82 255.211 200.241 258.298 201.113 261.084L204.93 259.889ZM203.82 251.844V249.529H199.82V251.844H203.82ZM203.82 249.529C203.82 246.499 204.218 243.834 204.98 241.51L201.18 240.263C200.263 243.057 199.82 246.153 199.82 249.529H203.82ZM204.977 241.519C205.765 239.156 206.855 237.208 208.222 235.637L205.204 233.012C203.446 235.034 202.114 237.461 201.183 240.254L204.977 241.519ZM208.221 235.638C209.608 234.046 211.259 232.837 213.192 231.999L211.601 228.329C209.12 229.405 206.982 230.97 205.205 233.011L208.221 235.638ZM213.192 231.999C215.119 231.163 217.295 230.729 219.75 230.729V226.729C216.814 226.729 214.088 227.251 211.601 228.329L213.192 231.999ZM219.75 230.729C223.23 230.729 226.029 231.352 228.233 232.496L230.076 228.946C227.162 227.433 223.692 226.729 219.75 226.729V230.729ZM228.233 232.496C230.486 233.665 232.186 235.244 233.39 237.235L236.813 235.164C235.204 232.506 232.94 230.432 230.076 228.946L228.233 232.496ZM233.394 237.241C234.624 239.257 235.369 241.58 235.599 244.252L239.584 243.909C239.307 240.681 238.391 237.751 236.809 235.157L233.394 237.241ZM237.592 242.08H227.338V246.08H237.592V242.08ZM229.337 244.031C229.294 242.243 228.987 240.61 228.326 239.212L224.709 240.921C225.064 241.671 225.304 242.714 225.338 244.129L229.337 244.031ZM228.332 239.224C227.63 237.714 226.502 236.563 225.01 235.817L223.221 239.394C223.916 239.742 224.389 240.232 224.704 240.909L228.332 239.224ZM225.01 235.817C223.536 235.08 221.738 234.785 219.75 234.785V238.785C221.394 238.785 222.507 239.037 223.221 239.394L225.01 235.817ZM219.75 234.785C218.235 234.785 216.813 235.066 215.545 235.699L217.334 239.277C217.941 238.974 218.726 238.785 219.75 238.785V234.785ZM215.545 235.699C214.23 236.357 213.185 237.378 212.392 238.667L215.799 240.763C216.256 240.02 216.774 239.557 217.334 239.277L215.545 235.699ZM212.392 238.667C211.602 239.95 211.068 241.518 210.726 243.291L214.653 244.048C214.936 242.58 215.339 241.511 215.799 240.763L212.392 238.667ZM210.722 243.31C210.401 245.066 210.25 247.127 210.25 249.471H214.25C214.25 247.283 214.392 245.477 214.657 244.03L210.722 243.31ZM210.25 249.471V251.844H214.25V249.471H210.25ZM210.25 251.844C210.25 254.182 210.39 256.235 210.689 257.981L214.632 257.308C214.383 255.851 214.25 254.037 214.25 251.844H210.25ZM210.689 257.981C210.989 259.741 211.491 261.304 212.261 262.594L215.696 260.546C215.255 259.805 214.878 258.751 214.632 257.308L210.689 257.981ZM212.261 262.594C213.039 263.9 214.087 264.931 215.413 265.608L217.231 262.045C216.643 261.745 216.129 261.272 215.696 260.546L212.261 262.594ZM215.457 265.629C216.772 266.26 218.277 266.529 219.896 266.529V262.529C218.704 262.529 217.826 262.33 217.188 262.023L215.457 265.629ZM219.896 266.529C221.656 266.529 223.275 266.256 224.679 265.618L223.024 261.976C222.279 262.315 221.262 262.529 219.896 262.529V266.529ZM224.706 265.605C226.143 264.926 227.282 263.884 228.074 262.511L224.609 260.512C224.23 261.17 223.708 261.652 222.997 261.989L224.706 265.605ZM228.082 262.497C228.877 261.094 229.234 259.427 229.279 257.605L225.28 257.508C225.246 258.89 224.979 259.859 224.601 260.527L228.082 262.497ZM216.234 273.707H223.764V269.707H216.234V273.707ZM221.795 271.352L221.473 273.139L225.41 273.849L225.732 272.062L221.795 271.352ZM223.09 275.463C223.831 275.595 224.529 275.912 225.202 276.456L227.716 273.345C226.553 272.405 225.24 271.784 223.793 271.525L223.09 275.463ZM225.182 276.44C225.477 276.685 225.836 277.224 225.836 278.562H229.836C229.836 276.541 229.277 274.64 227.736 273.361L225.182 276.44ZM225.836 278.562C225.836 279.361 225.668 280.019 225.368 280.58L228.898 282.463C229.536 281.266 229.836 279.952 229.836 278.562H225.836ZM225.36 280.596C225.054 281.182 224.588 281.719 223.903 282.199L226.202 285.473C227.353 284.664 228.274 283.658 228.906 282.447L225.36 280.596ZM223.903 282.199C223.235 282.669 222.337 283.07 221.153 283.357L222.097 287.244C223.648 286.868 225.035 286.292 226.202 285.473L223.903 282.199ZM221.127 283.364C219.96 283.664 218.551 283.828 216.879 283.828V287.828C218.801 287.828 220.556 287.641 222.123 287.238L221.127 283.364ZM218.877 285.753L218.672 280.304L214.675 280.454L214.88 285.903L218.877 285.753ZM216.674 282.379C217.385 282.379 218.094 282.27 218.764 282.001L217.279 278.288C217.168 278.332 216.979 278.379 216.674 278.379V282.379ZM218.764 282.001C219.513 281.702 220.154 281.201 220.609 280.499L217.251 278.326C217.253 278.322 217.257 278.316 217.264 278.308C217.271 278.3 217.279 278.293 217.286 278.287C217.289 278.285 217.292 278.283 217.294 278.281C217.297 278.28 217.298 278.279 217.298 278.279C217.298 278.279 217.296 278.28 217.293 278.281C217.29 278.283 217.285 278.285 217.279 278.288L218.764 282.001ZM220.564 280.565C221.098 279.808 221.281 278.941 221.281 278.123H217.281C217.281 278.241 217.268 278.299 217.264 278.315C217.261 278.326 217.266 278.3 217.296 278.259L220.564 280.565ZM221.281 278.123C221.281 277.249 221.038 276.312 220.333 275.557L217.409 278.287C217.378 278.253 217.351 278.217 217.329 278.18C217.307 278.143 217.294 278.111 217.286 278.088C217.271 278.043 217.281 278.046 217.281 278.123H221.281ZM220.337 275.561C219.712 274.888 218.871 274.543 218.127 274.345L217.096 278.21C217.289 278.261 217.401 278.309 217.455 278.336C217.509 278.364 217.473 278.356 217.406 278.283L220.337 275.561ZM218.066 274.33C217.329 274.158 216.445 274.05 215.451 273.988L215.201 277.98C216.082 278.036 216.722 278.124 217.157 278.225L218.066 274.33ZM217.283 276.4L218.191 272.122L214.278 271.292L213.37 275.569L217.283 276.4ZM264.673 238.309L266.584 238.899L266.632 238.742L266.654 238.581L264.673 238.309ZM254.272 272V274H255.748L256.183 272.59L254.272 272ZM243.227 272L241.35 271.31L240.362 274H243.227V272ZM258.901 229.344V227.344H257.505L257.024 228.654L258.901 229.344ZM265.903 229.344L267.885 229.616L268.196 227.344H265.903V229.344ZM273.286 272L271.375 272.591L271.811 274H273.286V272ZM262.856 238.309L260.878 238.606L260.901 238.756L260.946 238.9L262.856 238.309ZM261.509 229.344V227.344H259.185L259.531 229.641L261.509 229.344ZM268.598 229.344L270.474 228.651L269.992 227.344H268.598V229.344ZM284.36 272V274H287.231L286.236 271.307L284.36 272ZM272.876 256.092H274.876V254.092H272.876V256.092ZM272.876 264.031V266.031H274.876V264.031H272.876ZM250.991 264.031H248.991V266.031H250.991V264.031ZM250.991 256.092V254.092H248.991V256.092H250.991ZM269.682 217.859L269.8 215.863L267.682 215.738V217.859H269.682ZM275.132 218.182H277.132V216.296L275.25 216.185L275.132 218.182ZM274.253 222.137L272.452 221.266L272.447 221.277L272.441 221.289L274.253 222.137ZM265.962 225.828L265.265 227.703L265.297 227.715L265.329 227.725L265.962 225.828ZM264.028 224.949L263.042 226.689L263.054 226.696L263.066 226.703L264.028 224.949ZM262.212 224.1L261.438 225.944L261.474 225.959L261.509 225.972L262.212 224.1ZM258.608 224.363L257.226 222.918L257.21 222.933L257.194 222.949L258.608 224.363ZM257.964 226.355L257.857 228.353L259.964 228.465V226.355H257.964ZM252.456 226.062H250.456V227.959L252.35 228.06L252.456 226.062ZM253.305 222.166L251.5 221.306L251.494 221.319L253.305 222.166ZM255.708 219.207L256.888 220.822L256.898 220.814L256.908 220.807L255.708 219.207ZM261.391 218.445L260.695 220.32L260.719 220.329L260.743 220.337L261.391 218.445ZM263.384 219.295L262.468 221.073L262.489 221.084L262.511 221.095L263.384 219.295ZM265.317 220.145L264.584 222.005L264.618 222.019L264.652 222.031L265.317 220.145ZM268.979 219.852L267.628 218.377L267.612 218.392L267.597 218.406L268.979 219.852ZM262.762 237.719L252.361 271.41L256.183 272.59L266.584 238.899L262.762 237.719ZM254.272 270H243.227V274H254.272V270ZM245.105 272.69L260.778 230.034L257.024 228.654L241.35 271.31L245.105 272.69ZM258.901 231.344H265.903V227.344H258.901V231.344ZM263.922 229.072L262.691 238.037L266.654 238.581L267.885 229.616L263.922 229.072ZM275.196 271.409L264.767 237.717L260.946 238.9L271.375 272.591L275.196 271.409ZM264.834 238.011L263.486 229.046L259.531 229.641L260.878 238.606L264.834 238.011ZM261.509 231.344H268.598V227.344H261.509V231.344ZM266.722 230.037L282.484 272.693L286.236 271.307L270.474 228.651L266.722 230.037ZM284.36 270H273.286V274H284.36V270ZM270.876 256.092V264.031H274.876V256.092H270.876ZM272.876 262.031H250.991V266.031H272.876V262.031ZM252.991 264.031V256.092H248.991V264.031H252.991ZM250.991 258.092H272.876V254.092H250.991V258.092ZM269.564 219.856L275.014 220.178L275.25 216.185L269.8 215.863L269.564 219.856ZM273.132 218.182C273.132 219.324 272.899 220.342 272.452 221.266L276.053 223.008C276.778 221.509 277.132 219.891 277.132 218.182H273.132ZM272.441 221.289C272.008 222.215 271.426 222.921 270.7 223.452L273.06 226.681C274.364 225.728 275.365 224.48 276.064 222.984L272.441 221.289ZM270.7 223.452C270.046 223.929 269.293 224.18 268.364 224.18V228.18C270.091 228.18 271.682 227.688 273.06 226.681L270.7 223.452ZM268.364 224.18C267.637 224.18 267.055 224.084 266.594 223.931L265.329 227.725C266.274 228.041 267.295 228.18 268.364 228.18V224.18ZM266.658 223.953C266.061 223.731 265.505 223.478 264.99 223.196L263.066 226.703C263.762 227.084 264.496 227.417 265.265 227.703L266.658 223.953ZM265.014 223.209C264.338 222.826 263.638 222.498 262.914 222.227L261.509 225.972C262.036 226.17 262.546 226.408 263.042 226.689L265.014 223.209ZM262.985 222.255C262.105 221.886 261.163 221.719 260.19 221.719V225.719C260.701 225.719 261.108 225.805 261.438 225.944L262.985 222.255ZM260.19 221.719C259.055 221.719 258.036 222.143 257.226 222.918L259.991 225.809C260.05 225.752 260.085 225.736 260.095 225.732C260.104 225.728 260.13 225.719 260.19 225.719V221.719ZM257.194 222.949C256.242 223.901 255.964 225.179 255.964 226.355H259.964C259.964 225.735 260.115 225.685 260.022 225.777L257.194 222.949ZM258.07 224.358L252.562 224.065L252.35 228.06L257.857 228.353L258.07 224.358ZM254.456 226.062C254.456 224.957 254.679 223.949 255.117 223.013L251.494 221.319C250.799 222.805 250.456 224.394 250.456 226.062H254.456ZM255.111 223.026C255.567 222.069 256.162 221.352 256.888 220.822L254.528 217.592C253.222 218.546 252.216 219.802 251.5 221.306L255.111 223.026ZM256.908 220.807C257.561 220.317 258.307 220.064 259.223 220.064V216.064C257.484 216.064 255.886 216.573 254.508 217.607L256.908 220.807ZM259.223 220.064C259.758 220.064 260.244 220.153 260.695 220.32L262.088 216.57C261.172 216.23 260.212 216.064 259.223 216.064V220.064ZM260.743 220.337C261.334 220.54 261.909 220.785 262.468 221.073L264.3 217.517C263.569 217.141 262.816 216.819 262.04 216.553L260.743 220.337ZM262.511 221.095C263.2 221.428 263.891 221.732 264.584 222.005L266.05 218.284C265.455 218.049 264.857 217.786 264.256 217.495L262.511 221.095ZM264.652 222.031C265.529 222.34 266.438 222.496 267.368 222.496V218.496C266.892 218.496 266.433 218.418 265.983 218.259L264.652 222.031ZM267.368 222.496C268.505 222.496 269.538 222.085 270.362 221.297L267.597 218.406C267.543 218.458 267.51 218.473 267.497 218.478C267.483 218.484 267.447 218.496 267.368 218.496V222.496ZM270.331 221.326C271.36 220.382 271.682 219.081 271.682 217.859H267.682C267.682 218.141 267.645 218.297 267.621 218.366C267.601 218.422 267.595 218.407 267.628 218.377L270.331 221.326ZM325.767 260.34L323.881 259.673L323.879 259.682L325.767 260.34ZM321.929 266.961L323.406 268.31L323.413 268.302L321.929 266.961ZM316.041 271.15L316.819 272.993L316.826 272.99L316.832 272.987L316.041 271.15ZM300.982 271.15L300.19 272.987L300.2 272.991L300.209 272.995L300.982 271.15ZM295.064 266.961L293.581 268.302L293.588 268.311L293.596 268.319L295.064 266.961ZM291.197 260.34L289.307 260.994L289.31 261.002L289.313 261.011L291.197 260.34ZM291.197 241.033L289.311 240.367L289.307 240.379L291.197 241.033ZM295.035 234.412L293.551 233.071L293.551 233.072L295.035 234.412ZM300.923 230.223L301.702 232.065L301.709 232.062L300.923 230.223ZM315.982 230.223L315.19 232.059L315.2 232.063L315.209 232.067L315.982 230.223ZM321.9 234.412L320.417 235.754L320.424 235.761L321.9 234.412ZM316.158 244.197L314.203 244.621L314.206 244.635L314.209 244.649L316.158 244.197ZM314.576 240.125L312.893 241.207L314.576 240.125ZM311.968 237.664L310.994 239.411L311.014 239.422L311.034 239.432L311.968 237.664ZM304.908 237.664L305.856 239.425L305.869 239.418L305.882 239.411L304.908 237.664ZM300.806 244.197L298.852 243.773L298.85 243.782L298.848 243.791L300.806 244.197ZM300.806 257.117L298.847 257.518L298.85 257.532L298.853 257.546L300.806 257.117ZM302.359 261.189L300.655 262.236L300.661 262.247L300.668 262.257L302.359 261.189ZM304.937 263.709L303.963 265.456L303.97 265.46L303.977 265.464L304.937 263.709ZM312.027 263.709L313.001 265.456L312.027 263.709ZM314.576 261.189L312.885 260.121L312.878 260.132L312.871 260.143L314.576 261.189ZM316.158 257.117L314.208 256.671L314.206 256.68L314.204 256.688L316.158 257.117ZM325.144 249.822V251.551H329.144V249.822H325.144ZM325.144 251.551C325.144 254.626 324.711 257.325 323.881 259.673L327.653 261.006C328.659 258.159 329.144 254.999 329.144 251.551H325.144ZM323.879 259.682C323.059 262.033 321.909 264.001 320.446 265.62L323.413 268.302C325.27 266.249 326.678 263.803 327.656 260.998L323.879 259.682ZM320.453 265.612C318.984 267.218 317.255 268.449 315.249 269.314L316.832 272.987C319.357 271.899 321.554 270.336 323.406 268.31L320.453 265.612ZM315.262 269.308C313.269 270.15 311.038 270.586 308.541 270.586V274.586C311.512 274.586 314.281 274.065 316.819 272.993L315.262 269.308ZM308.541 270.586C306.022 270.586 303.769 270.149 301.755 269.306L300.209 272.995C302.765 274.066 305.551 274.586 308.541 274.586V270.586ZM301.774 269.314C299.765 268.448 298.023 267.215 296.532 265.603L293.596 268.319C295.464 270.34 297.667 271.9 300.19 272.987L301.774 269.314ZM296.548 265.62C295.081 263.998 293.92 262.026 293.081 259.669L289.313 261.011C290.31 263.81 291.726 266.252 293.581 268.302L296.548 265.62ZM293.087 259.686C292.273 257.334 291.849 254.63 291.849 251.551H287.849C287.849 254.995 288.323 258.151 289.307 260.994L293.087 259.686ZM291.849 251.551V249.822H287.849V251.551H291.849ZM291.849 249.822C291.849 246.743 292.273 244.039 293.087 241.687L289.307 240.379C288.323 243.223 287.849 246.378 287.849 249.822H291.849ZM293.083 241.7C293.924 239.32 295.076 237.35 296.519 235.753L293.551 233.072C291.712 235.107 290.306 237.551 289.311 240.367L293.083 241.7ZM296.518 235.754C297.984 234.133 299.707 232.908 301.702 232.065L300.145 228.38C297.609 229.452 295.406 231.02 293.551 233.071L296.518 235.754ZM301.709 232.062C303.72 231.202 305.969 230.758 308.482 230.758V226.758C305.487 226.758 302.697 227.29 300.137 228.384L301.709 232.062ZM308.482 230.758C310.974 230.758 313.201 231.202 315.19 232.059L316.774 228.386C314.232 227.291 311.459 226.758 308.482 226.758V230.758ZM315.209 232.067C317.224 232.911 318.954 234.136 320.417 235.754L323.383 233.071C321.526 231.017 319.311 229.448 316.755 228.378L315.209 232.067ZM320.424 235.761C321.883 237.358 323.042 239.324 323.881 241.7L327.653 240.367C326.656 237.547 325.238 235.099 323.376 233.063L320.424 235.761ZM323.881 241.7C324.711 244.048 325.144 246.747 325.144 249.822H329.144C329.144 246.374 328.659 243.214 327.653 240.367L323.881 241.7ZM318.714 251.551V249.764H314.714V251.551H318.714ZM318.714 249.764C318.714 247.543 318.52 245.53 318.106 243.746L314.209 244.649C314.538 246.067 314.714 247.766 314.714 249.764H318.714ZM318.112 243.773C317.723 241.98 317.121 240.385 316.258 239.043L312.893 241.207C313.437 242.052 313.889 243.172 314.203 244.621L318.112 243.773ZM316.258 239.043C315.39 237.693 314.275 236.621 312.903 235.896L311.034 239.432C311.732 239.801 312.355 240.37 312.893 241.207L316.258 239.043ZM312.942 235.917C311.593 235.165 310.088 234.814 308.482 234.814V238.814C309.493 238.814 310.312 239.03 310.994 239.411L312.942 235.917ZM308.482 234.814C306.834 234.814 305.296 235.158 303.934 235.917L305.882 239.411C306.551 239.038 307.396 238.814 308.482 238.814V234.814ZM303.96 235.903C302.603 236.634 301.509 237.712 300.663 239.065L304.055 241.185C304.577 240.35 305.181 239.788 305.856 239.425L303.96 235.903ZM300.663 239.065C299.828 240.401 299.239 241.988 298.852 243.773L302.761 244.621C303.077 243.164 303.523 242.036 304.055 241.185L300.663 239.065ZM298.848 243.791C298.482 245.558 298.308 247.555 298.308 249.764H302.308C302.308 247.754 302.467 246.039 302.765 244.603L298.848 243.791ZM298.308 249.764V251.551H302.308V249.764H298.308ZM298.308 251.551C298.308 253.742 298.482 255.736 298.847 257.518L302.766 256.716C302.467 255.256 302.308 253.539 302.308 251.551H298.308ZM298.853 257.546C299.241 259.313 299.829 260.891 300.655 262.236L304.063 260.143C303.522 259.262 303.075 258.125 302.76 256.688L298.853 257.546ZM300.668 262.257C301.526 263.615 302.619 264.706 303.963 265.456L305.911 261.962C305.224 261.579 304.599 260.99 304.05 260.121L300.668 262.257ZM303.977 265.464C305.35 266.215 306.892 266.559 308.541 266.559V262.559C307.455 262.559 306.594 262.336 305.897 261.954L303.977 265.464ZM308.541 266.559C310.147 266.559 311.652 266.208 313.001 265.456L311.053 261.962C310.371 262.343 309.552 262.559 308.541 262.559V266.559ZM313.001 265.456C314.352 264.703 315.44 263.605 316.28 262.236L312.871 260.143C312.345 261.001 311.734 261.583 311.053 261.962L313.001 265.456ZM316.267 262.257C317.12 260.906 317.722 259.321 318.111 257.546L314.204 256.688C313.891 258.117 313.438 259.246 312.885 260.121L316.267 262.257ZM318.107 257.563C318.519 255.764 318.714 253.754 318.714 251.551H314.714C314.714 253.527 314.539 255.228 314.208 256.671L318.107 257.563Z" fill="#181818" fill-opacity="0.38" mask="url(#path-5-outside-3_1_56)"/>
</svg>
