<svg width="385" height="304" viewBox="0 0 385 304" fill="none" xmlns="http://www.w3.org/2000/svg">
<mask id="path-1-outside-1_1_56" maskUnits="userSpaceOnUse" x="8" y="10" width="373" height="62" fill="black">
<rect fill="white" x="8" y="10" width="373" height="62"/>
<path d="M36.1004 41.8496H44.8602C44.6844 44.7207 43.8934 47.2695 42.4871 49.4961C41.1004 51.7227 39.157 53.4609 36.657 54.7109C34.1766 55.9609 31.1883 56.5859 27.6922 56.5859C24.9578 56.5859 22.5066 56.1172 20.3387 55.1797C18.1707 54.2227 16.3152 52.8555 14.7723 51.0781C13.2488 49.3008 12.0867 47.1523 11.2859 44.6328C10.4852 42.1133 10.0848 39.291 10.0848 36.166V33.207C10.0848 30.082 10.4949 27.2598 11.3152 24.7402C12.1551 22.2012 13.3465 20.043 14.8895 18.2656C16.452 16.4883 18.3172 15.1211 20.4852 14.1641C22.6531 13.207 25.075 12.7285 27.7508 12.7285C31.3055 12.7285 34.3035 13.373 36.7449 14.6621C39.2059 15.9512 41.1102 17.7285 42.4578 19.9941C43.825 22.2598 44.6453 24.8379 44.9187 27.7285H36.1297C36.032 26.0098 35.6902 24.5547 35.1043 23.3633C34.5184 22.1523 33.6297 21.2441 32.4383 20.6387C31.2664 20.0137 29.7039 19.7012 27.7508 19.7012C26.2859 19.7012 25.0066 19.9746 23.9129 20.5215C22.8191 21.0684 21.9012 21.8984 21.159 23.0117C20.4168 24.125 19.8602 25.5312 19.4891 27.2305C19.1375 28.9102 18.9617 30.8828 18.9617 33.1484V36.166C18.9617 38.373 19.1277 40.3164 19.4598 41.9961C19.7918 43.6562 20.2996 45.0625 20.9832 46.2148C21.6863 47.3477 22.5848 48.207 23.6785 48.793C24.7918 49.3594 26.1297 49.6426 27.6922 49.6426C29.5281 49.6426 31.0418 49.3496 32.2332 48.7637C33.4246 48.1777 34.3328 47.3086 34.9578 46.1562C35.6023 45.0039 35.9832 43.5684 36.1004 41.8496ZM89.8707 33.6758V35.6973C89.8707 38.9395 89.4312 41.8496 88.5523 44.4277C87.6734 47.0059 86.4332 49.2031 84.8316 51.0195C83.2301 52.8164 81.316 54.1934 79.0895 55.1504C76.8824 56.1074 74.4312 56.5859 71.7359 56.5859C69.0602 56.5859 66.609 56.1074 64.3824 55.1504C62.1754 54.1934 60.2613 52.8164 58.6402 51.0195C57.0191 49.2031 55.7594 47.0059 54.8609 44.4277C53.982 41.8496 53.5426 38.9395 53.5426 35.6973V33.6758C53.5426 30.4141 53.982 27.5039 54.8609 24.9453C55.7398 22.3672 56.9801 20.1699 58.5816 18.3535C60.2027 16.5371 62.1168 15.1504 64.3238 14.1934C66.5504 13.2363 69.0016 12.7578 71.6773 12.7578C74.3727 12.7578 76.8238 13.2363 79.0309 14.1934C81.2574 15.1504 83.1715 16.5371 84.773 18.3535C86.3941 20.1699 87.6441 22.3672 88.523 24.9453C89.4215 27.5039 89.8707 30.4141 89.8707 33.6758ZM80.9937 35.6973V33.6172C80.9937 31.3516 80.7887 29.3594 80.3785 27.6406C79.9684 25.9219 79.3629 24.4766 78.5621 23.3047C77.7613 22.1328 76.7848 21.2539 75.6324 20.668C74.4801 20.0625 73.1617 19.7598 71.6773 19.7598C70.193 19.7598 68.8746 20.0625 67.7223 20.668C66.5895 21.2539 65.6227 22.1328 64.8219 23.3047C64.0406 24.4766 63.4449 25.9219 63.0348 27.6406C62.6246 29.3594 62.4195 31.3516 62.4195 33.6172V35.6973C62.4195 37.9434 62.6246 39.9355 63.0348 41.6738C63.4449 43.3926 64.0504 44.8477 64.8512 46.0391C65.652 47.2109 66.6285 48.0996 67.7809 48.7051C68.9332 49.3105 70.2516 49.6133 71.7359 49.6133C73.2203 49.6133 74.5387 49.3105 75.691 48.7051C76.8434 48.0996 77.8102 47.2109 78.5914 46.0391C79.3727 44.8477 79.9684 43.3926 80.3785 41.6738C80.7887 39.9355 80.9937 37.9434 80.9937 35.6973ZM135.116 13.3438V56H126.327L109.188 27.4062V56H100.399V13.3438H109.188L126.356 41.9668V13.3438H135.116ZM155.751 13.3438V56H146.962V13.3438H155.751ZM172.743 31.5664V38.4219H153.349V31.5664H172.743ZM174.794 13.3438V20.2285H153.349V13.3438H174.794ZM193.438 13.3438V56H184.678V13.3438H193.438ZM223.741 20.6387L212.139 56H202.794L218.643 13.3438H224.591L223.741 20.6387ZM233.38 56L221.749 20.6387L220.811 13.3438H226.817L242.755 56H233.38ZM232.852 40.1211V47.0059H210.323V40.1211H232.852ZM285.627 13.3438V56H276.837L259.699 27.4062V56H250.91V13.3438H259.699L276.867 41.9668V13.3438H285.627ZM322.2 41.8496H330.959C330.784 44.7207 329.993 47.2695 328.586 49.4961C327.2 51.7227 325.256 53.4609 322.756 54.7109C320.276 55.9609 317.287 56.5859 313.791 56.5859C311.057 56.5859 308.606 56.1172 306.438 55.1797C304.27 54.2227 302.414 52.8555 300.871 51.0781C299.348 49.3008 298.186 47.1523 297.385 44.6328C296.584 42.1133 296.184 39.291 296.184 36.166V33.207C296.184 30.082 296.594 27.2598 297.414 24.7402C298.254 22.2012 299.446 20.043 300.989 18.2656C302.551 16.4883 304.416 15.1211 306.584 14.1641C308.752 13.207 311.174 12.7285 313.85 12.7285C317.405 12.7285 320.403 13.373 322.844 14.6621C325.305 15.9512 327.209 17.7285 328.557 19.9941C329.924 22.2598 330.745 24.8379 331.018 27.7285H322.229C322.131 26.0098 321.789 24.5547 321.203 23.3633C320.618 22.1523 319.729 21.2441 318.537 20.6387C317.366 20.0137 315.803 19.7012 313.85 19.7012C312.385 19.7012 311.106 19.9746 310.012 20.5215C308.918 21.0684 308 21.8984 307.258 23.0117C306.516 24.125 305.959 25.5312 305.588 27.2305C305.237 28.9102 305.061 30.8828 305.061 33.1484V36.166C305.061 38.373 305.227 40.3164 305.559 41.9961C305.891 43.6562 306.399 45.0625 307.082 46.2148C307.786 47.3477 308.684 48.207 309.778 48.793C310.891 49.3594 312.229 49.6426 313.791 49.6426C315.627 49.6426 317.141 49.3496 318.332 48.7637C319.524 48.1777 320.432 47.3086 321.057 46.1562C321.702 45.0039 322.082 43.5684 322.2 41.8496ZM310.657 55.8828H317.014L316.692 57.6113C317.805 57.8066 318.821 58.2754 319.739 59.0176C320.657 59.7598 321.116 60.9805 321.116 62.6797C321.116 63.7148 320.891 64.6523 320.442 65.4922C320.012 66.332 319.368 67.0547 318.508 67.6602C317.649 68.2852 316.575 68.7539 315.286 69.0664C313.996 69.3984 312.512 69.5645 310.832 69.5645L310.627 64.877C311.252 64.877 311.819 64.7891 312.327 64.6133C312.834 64.4375 313.235 64.1641 313.528 63.793C313.821 63.4414 313.967 62.9727 313.967 62.3867C313.967 61.8398 313.821 61.4102 313.528 61.0977C313.235 60.7852 312.776 60.5508 312.151 60.3945C311.545 60.2383 310.745 60.1309 309.748 60.0723L310.657 55.8828ZM358.275 20.6387L346.673 56H337.327L353.177 13.3438H359.124L358.275 20.6387ZM367.913 56L356.282 20.6387L355.345 13.3438H361.351L377.288 56H367.913ZM367.386 40.1211V47.0059H344.857V40.1211H367.386Z"/>
</mask>
<path d="M36.1004 41.8496V39.8496H34.2321L34.105 41.7136L36.1004 41.8496ZM44.8602 41.8496L46.8564 41.9718L46.9863 39.8496H44.8602V41.8496ZM42.4871 49.4961L40.7961 48.4281L40.7894 48.4388L42.4871 49.4961ZM36.657 54.7109L35.7626 52.9221L35.757 52.9249L36.657 54.7109ZM20.3387 55.1797L19.531 57.0093L19.5379 57.0124L19.5448 57.0154L20.3387 55.1797ZM14.7723 51.0781L13.2537 52.3797L13.262 52.3892L14.7723 51.0781ZM11.3152 24.7402L9.41639 24.1122L9.41349 24.1211L11.3152 24.7402ZM14.8895 18.2656L13.3873 16.9451L13.3792 16.9545L14.8895 18.2656ZM36.7449 14.6621L35.8111 16.4307L35.8169 16.4338L36.7449 14.6621ZM42.4578 19.9941L40.7389 21.0166L40.7454 21.0275L42.4578 19.9941ZM44.9187 27.7285V29.7285H47.1169L46.9099 27.5402L44.9187 27.7285ZM36.1297 27.7285L34.1329 27.842L34.2401 29.7285H36.1297V27.7285ZM35.1043 23.3633L33.3039 24.2344L33.3096 24.2459L35.1043 23.3633ZM32.4383 20.6387L31.4971 22.4034L31.5145 22.4127L31.5322 22.4216L32.4383 20.6387ZM23.9129 20.5215L24.8073 22.3103L23.9129 20.5215ZM19.4891 27.2305L17.5351 26.8037L17.5333 26.8122L17.5315 26.8207L19.4891 27.2305ZM19.4598 41.9961L17.4977 42.3839L17.4986 42.3883L19.4598 41.9961ZM20.9832 46.2148L19.2631 47.2352L19.2733 47.2525L19.2839 47.2696L20.9832 46.2148ZM23.6785 48.793L22.7341 50.5559L22.7527 50.5659L22.7716 50.5755L23.6785 48.793ZM34.9578 46.1562L33.2123 45.1799L33.2059 45.1913L33.1997 45.2027L34.9578 46.1562ZM36.1004 43.8496H44.8602V39.8496H36.1004V43.8496ZM42.8639 41.7274C42.7067 44.2943 42.0064 46.5118 40.7961 48.4281L44.1781 50.5641C45.7803 48.0272 46.662 45.1471 46.8564 41.9718L42.8639 41.7274ZM40.7894 48.4388C39.6108 50.3313 37.955 51.8259 35.7626 52.9221L37.5515 56.4998C40.359 55.096 42.59 53.114 44.1848 50.5534L40.7894 48.4388ZM35.757 52.9249C33.6185 54.0026 30.9545 54.5859 27.6922 54.5859V58.5859C31.422 58.5859 34.7346 57.9193 37.5571 56.497L35.757 52.9249ZM27.6922 54.5859C25.1882 54.5859 23.0134 54.1574 21.1325 53.344L19.5448 57.0154C21.9998 58.077 24.7274 58.5859 27.6922 58.5859V54.5859ZM21.1464 53.35C19.246 52.5111 17.631 51.3203 16.2825 49.767L13.262 52.3892C14.9995 54.3907 17.0954 55.9342 19.531 57.0093L21.1464 53.35ZM16.2908 49.7765C14.963 48.2275 13.922 46.324 13.192 44.027L9.37989 45.2386C10.2514 47.9807 11.5346 50.374 13.2537 52.3797L16.2908 49.7765ZM13.192 44.027C12.4636 41.7353 12.0848 39.1218 12.0848 36.166H8.08476C8.08476 39.4602 8.50671 42.4913 9.37989 45.2386L13.192 44.027ZM12.0848 36.166V33.207H8.08476V36.166H12.0848ZM12.0848 33.207C12.0848 30.2556 12.4722 27.6468 13.217 25.3594L9.41349 24.1211C8.51761 26.8727 8.08476 29.9085 8.08476 33.207H12.0848ZM13.2141 25.3683C13.9821 23.0463 15.0522 21.1289 16.3997 19.5767L13.3792 16.9545C11.6407 18.957 10.3281 21.356 9.41641 24.1122L13.2141 25.3683ZM16.3915 19.5861C17.762 18.0272 19.3902 16.8336 21.2928 15.9937L19.6775 12.3344C17.2442 13.4086 15.1419 14.9493 13.3874 16.9451L16.3915 19.5861ZM21.2928 15.9937C23.1754 15.1627 25.3172 14.7285 27.7508 14.7285V10.7285C24.8328 10.7285 22.1308 11.2514 19.6775 12.3344L21.2928 15.9937ZM27.7508 14.7285C31.0709 14.7285 33.7284 15.331 35.8111 16.4307L37.6787 12.8935C34.8786 11.415 31.54 10.7285 27.7508 10.7285V14.7285ZM35.8169 16.4338C37.9684 17.5608 39.5909 19.0865 40.7389 21.0166L44.1767 18.9717C42.6295 16.3705 40.4433 14.3416 37.6729 12.8904L35.8169 16.4338ZM40.7454 21.0275C41.9428 23.0117 42.6797 25.2958 42.9276 27.9169L46.9099 27.5402C46.6109 24.38 45.7072 21.5078 44.1702 18.9608L40.7454 21.0275ZM44.9187 25.7285H36.1297V29.7285H44.9187V25.7285ZM38.1265 27.6151C38.0179 25.7047 37.6325 23.9722 36.899 22.4806L33.3096 24.2459C33.7479 25.1372 34.0461 26.3148 34.1329 27.842L38.1265 27.6151ZM36.9046 22.4922C36.1296 20.8905 34.9283 19.6606 33.3444 18.8557L31.5322 22.4216C32.3311 22.8276 32.9071 23.4142 33.304 24.2344L36.9046 22.4922ZM33.3795 18.874C31.8135 18.0388 29.889 17.7012 27.7508 17.7012V21.7012C29.5188 21.7012 30.7193 21.9885 31.4971 22.4034L33.3795 18.874ZM27.7508 17.7012C26.0363 17.7012 24.4397 18.022 23.0185 18.7326L24.8073 22.3103C25.5736 21.9272 26.5356 21.7012 27.7508 21.7012V17.7012ZM23.0185 18.7326C21.5846 19.4496 20.4114 20.5275 19.4949 21.9023L22.8231 24.1211C23.3909 23.2694 24.0537 22.6872 24.8073 22.3103L23.0185 18.7326ZM19.4949 21.9023C18.5797 23.275 17.9442 24.9304 17.5351 26.8037L21.443 27.6572C21.7761 26.1321 22.2538 24.975 22.8231 24.1211L19.4949 21.9023ZM17.5315 26.8207C17.1444 28.6701 16.9617 30.7861 16.9617 33.1484H20.9617C20.9617 30.9795 21.1306 29.1502 21.4466 27.6402L17.5315 26.8207ZM16.9617 33.1484V36.166H20.9617V33.1484H16.9617ZM16.9617 36.166C16.9617 38.4681 17.1344 40.5461 17.4977 42.3839L21.4218 41.6082C21.121 40.0867 20.9617 38.278 20.9617 36.166H16.9617ZM17.4986 42.3883C17.8638 44.2142 18.4384 45.8451 19.2631 47.2352L22.7033 45.1944C22.1608 44.2799 21.7198 43.0983 21.4209 41.6039L17.4986 42.3883ZM19.2839 47.2696C20.1579 48.6776 21.3079 49.7919 22.7341 50.5559L24.623 47.03C23.8616 46.6221 23.2148 46.0177 22.6825 45.1601L19.2839 47.2696ZM22.7716 50.5755C24.2275 51.3162 25.8918 51.6426 27.6922 51.6426V47.6426C26.3676 47.6426 25.3561 47.4025 24.5854 47.0104L22.7716 50.5755ZM27.6922 51.6426C29.7237 51.6426 31.5654 51.3209 33.1158 50.5584L31.3506 46.969C30.5182 47.3784 29.3325 47.6426 27.6922 47.6426V51.6426ZM33.1158 50.5584C34.6741 49.792 35.8906 48.6314 36.7159 47.1098L33.1997 45.2027C32.775 45.9858 32.1751 46.5634 31.3506 46.969L33.1158 50.5584ZM36.7033 47.1326C37.5292 45.6559 37.9643 43.9132 38.0958 41.9857L34.105 41.7136C34.0021 43.2235 33.6754 44.3519 33.2123 45.1799L36.7033 47.1326ZM84.8316 51.0195L86.3247 52.3503L86.3318 52.3422L84.8316 51.0195ZM79.0895 55.1504L78.2997 53.3129L78.2938 53.3155L79.0895 55.1504ZM64.3824 55.1504L63.5867 56.9853L63.5926 56.9878L64.3824 55.1504ZM58.6402 51.0195L57.1481 52.3513L57.1553 52.3592L58.6402 51.0195ZM54.8609 44.4277L52.9679 45.0731L52.9723 45.0859L54.8609 44.4277ZM54.8609 24.9453L56.7525 25.5951L56.754 25.5907L54.8609 24.9453ZM58.5816 18.3535L57.0895 17.0218L57.0815 17.0308L58.5816 18.3535ZM64.3238 14.1934L63.534 12.3559L63.5282 12.3584L64.3238 14.1934ZM79.0309 14.1934L78.2352 16.0283L78.2411 16.0308L79.0309 14.1934ZM84.773 18.3535L83.2729 19.6762L83.2809 19.6852L84.773 18.3535ZM88.523 24.9453L86.63 25.5907L86.633 25.5993L86.636 25.6079L88.523 24.9453ZM80.3785 27.6406L78.4331 28.1049L80.3785 27.6406ZM75.6324 20.668L74.7022 22.4385L74.714 22.4447L74.7259 22.4507L75.6324 20.668ZM67.7223 20.668L68.6411 22.4444L68.6525 22.4385L67.7223 20.668ZM64.8219 23.3047L63.1706 22.1763L63.1641 22.1858L63.1578 22.1953L64.8219 23.3047ZM63.0348 41.6738L61.0882 42.1331L61.0894 42.1381L63.0348 41.6738ZM64.8512 46.0391L63.1913 47.1547L63.1955 47.1611L63.1999 47.1674L64.8512 46.0391ZM78.5914 46.0391L80.2555 47.1485L80.2597 47.1421L80.2639 47.1358L78.5914 46.0391ZM80.3785 41.6738L82.3239 42.1381L82.3251 42.1331L80.3785 41.6738ZM87.8707 33.6758V35.6973H91.8707V33.6758H87.8707ZM87.8707 35.6973C87.8707 38.7605 87.4554 41.4473 86.6593 43.7824L90.4454 45.0731C91.4071 42.2519 91.8707 39.1184 91.8707 35.6973H87.8707ZM86.6593 43.7824C85.8549 46.1421 84.7383 48.1013 83.3315 49.6968L86.3318 52.3422C88.1281 50.3049 89.492 47.8696 90.4454 45.0731L86.6593 43.7824ZM83.3386 49.6888C81.933 51.2658 80.2595 52.4706 78.2997 53.3129L79.8792 56.9878C82.3725 55.9162 84.5272 54.367 86.3247 52.3503L83.3386 49.6888ZM78.2938 53.3155C76.3665 54.1512 74.1905 54.5859 71.7359 54.5859V58.5859C74.672 58.5859 77.3984 58.0636 79.8851 56.9853L78.2938 53.3155ZM71.7359 54.5859C69.3033 54.5859 67.1244 54.1521 65.1722 53.3129L63.5926 56.9878C66.0935 58.0628 68.817 58.5859 71.7359 58.5859V54.5859ZM65.1781 53.3155C63.2352 52.473 61.5558 51.2655 60.1252 49.6798L57.1553 52.3592C58.9668 54.3673 61.1155 55.9137 63.5867 56.9853L65.1781 53.3155ZM60.1324 49.6878C58.7065 48.0901 57.5719 46.1294 56.7495 43.7696L52.9723 45.0859C53.9468 47.8823 55.3318 50.3161 57.1481 52.3512L60.1324 49.6878ZM56.754 43.7824C55.9579 41.4473 55.5426 38.7605 55.5426 35.6973H51.5426C51.5426 39.1184 52.0062 42.2519 52.9679 45.0731L56.754 43.7824ZM55.5426 35.6973V33.6758H51.5426V35.6973H55.5426ZM55.5426 33.6758C55.5426 30.5911 55.9584 27.9066 56.7524 25.5951L52.9694 24.2956C52.0057 27.1012 51.5426 30.237 51.5426 33.6758H55.5426ZM56.754 25.5907C57.5584 23.2309 58.675 21.2717 60.0818 19.6762L57.0815 17.0308C55.2852 19.0681 53.9213 21.5034 52.9679 24.3L56.754 25.5907ZM60.0738 19.6852C61.5043 18.0823 63.1816 16.8686 65.1195 16.0283L63.5282 12.3584C61.052 13.4322 58.9011 14.9919 57.0895 17.0218L60.0738 19.6852ZM65.1136 16.0308C67.0658 15.1917 69.2447 14.7578 71.6773 14.7578V10.7578C68.7584 10.7578 66.0349 11.281 63.534 12.3559L65.1136 16.0308ZM71.6773 14.7578C74.1319 14.7578 76.3079 15.1925 78.2352 16.0283L79.8265 12.3584C77.3398 11.2801 74.6134 10.7578 71.6773 10.7578V14.7578ZM78.2411 16.0308C80.1959 16.871 81.8673 18.082 83.2729 19.6762L86.2732 17.0308C84.4757 14.9922 82.3189 13.4297 79.8206 12.3559L78.2411 16.0308ZM83.2809 19.6852C84.7038 21.2795 85.8272 23.2357 86.63 25.5907L90.4161 24.3C89.4611 21.4986 88.0845 19.0603 86.2652 17.0218L83.2809 19.6852ZM86.636 25.6079C87.4463 27.9154 87.8707 30.5953 87.8707 33.6758H91.8707C91.8707 30.2328 91.3967 27.0924 90.4101 24.2827L86.636 25.6079ZM82.9937 35.6973V33.6172H78.9937V35.6973H82.9937ZM82.9937 33.6172C82.9937 31.2367 82.7788 29.0829 82.3239 27.1764L78.4331 28.1049C78.7985 29.6359 78.9937 31.4664 78.9937 33.6172H82.9937ZM82.3239 27.1764C81.8704 25.2762 81.1811 23.5924 80.2134 22.1763L76.9108 24.4331C77.5447 25.3607 78.0663 26.5676 78.4331 28.1049L82.3239 27.1764ZM80.2134 22.1763C79.2422 20.755 78.0191 19.6378 76.5389 18.8852L74.7259 22.4507C75.5504 22.87 76.2805 23.5106 76.9108 24.4331L80.2134 22.1763ZM76.5627 18.8975C75.0854 18.1213 73.4399 17.7598 71.6773 17.7598V21.7598C72.8835 21.7598 73.8748 22.0037 74.7022 22.4385L76.5627 18.8975ZM71.6773 17.7598C69.9147 17.7598 68.2693 18.1213 66.792 18.8975L68.6525 22.4385C69.4799 22.0037 70.4712 21.7598 71.6773 21.7598V17.7598ZM66.8034 18.8915C65.3446 19.6461 64.1367 20.7625 63.1706 22.1763L66.4732 24.4331C67.1086 23.5031 67.8343 22.8617 68.6411 22.4444L66.8034 18.8915ZM63.1578 22.1953C62.2168 23.6068 61.541 25.2838 61.0894 27.1764L64.9801 28.1049C65.3488 26.5599 65.8645 25.3463 66.486 24.4141L63.1578 22.1953ZM61.0894 27.1764C60.6344 29.0829 60.4195 31.2367 60.4195 33.6172H64.4195C64.4195 31.4664 64.6148 29.6359 64.9801 28.1049L61.0894 27.1764ZM60.4195 33.6172V35.6973H64.4195V33.6172H60.4195ZM60.4195 35.6973C60.4195 38.0603 60.6348 40.2116 61.0882 42.1331L64.9813 41.2145C64.6144 39.6595 64.4195 37.8264 64.4195 35.6973H60.4195ZM61.0894 42.1381C61.5426 44.0374 62.2304 45.7251 63.1913 47.1547L66.5111 44.9234C65.8704 43.9702 65.3472 42.7477 64.9801 41.2096L61.0894 42.1381ZM63.1999 47.1674C64.1679 48.5841 65.3835 49.7047 66.8506 50.4756L68.7111 46.9346C67.8735 46.4945 67.136 45.8378 66.5025 44.9107L63.1999 47.1674ZM66.8506 50.4756C68.3279 51.2518 69.9733 51.6133 71.7359 51.6133V47.6133C70.5298 47.6133 69.5385 47.3693 68.7111 46.9346L66.8506 50.4756ZM71.7359 51.6133C73.4985 51.6133 75.144 51.2518 76.6213 50.4756L74.7608 46.9346C73.9334 47.3693 72.9421 47.6133 71.7359 47.6133V51.6133ZM76.6213 50.4756C78.0936 49.702 79.3044 48.5752 80.2555 47.1485L76.9273 44.9297C76.3159 45.8467 75.5931 46.4973 74.7608 46.9346L76.6213 50.4756ZM80.2639 47.1358C81.1983 45.7108 81.8724 44.0298 82.3239 42.1381L78.4331 41.2096C78.0643 42.7553 77.547 43.9846 76.9189 44.9423L80.2639 47.1358ZM82.3251 42.1331C82.7785 40.2116 82.9937 38.0603 82.9937 35.6973H78.9937C78.9937 37.8264 78.7989 39.6595 78.432 41.2145L82.3251 42.1331ZM135.116 13.3438H137.116V11.3438H135.116V13.3438ZM135.116 56V58H137.116V56H135.116ZM126.327 56L124.611 57.0282L125.194 58H126.327V56ZM109.188 27.4062L110.903 26.378L107.188 20.1793V27.4062H109.188ZM109.188 56V58H111.188V56H109.188ZM100.399 56H98.3988V58H100.399V56ZM100.399 13.3438V11.3438H98.3988V13.3438H100.399ZM109.188 13.3438L110.903 12.315L110.32 11.3438H109.188V13.3438ZM126.356 41.9668L124.641 42.9955L128.356 49.1895V41.9668H126.356ZM126.356 13.3438V11.3438H124.356V13.3438H126.356ZM133.116 13.3438V56H137.116V13.3438H133.116ZM135.116 54H126.327V58H135.116V54ZM128.042 54.9718L110.903 26.378L107.472 28.4345L124.611 57.0282L128.042 54.9718ZM107.188 27.4062V56H111.188V27.4062H107.188ZM109.188 54H100.399V58H109.188V54ZM102.399 56V13.3438H98.3988V56H102.399ZM100.399 15.3438H109.188V11.3438H100.399V15.3438ZM107.473 14.3725L124.641 42.9955L128.071 40.9381L110.903 12.315L107.473 14.3725ZM128.356 41.9668V13.3438H124.356V41.9668H128.356ZM126.356 15.3438H135.116V11.3438H126.356V15.3438ZM155.751 13.3438H157.751V11.3438H155.751V13.3438ZM155.751 56V58H157.751V56H155.751ZM146.962 56H144.962V58H146.962V56ZM146.962 13.3438V11.3438H144.962V13.3438H146.962ZM172.743 31.5664H174.743V29.5664H172.743V31.5664ZM172.743 38.4219V40.4219H174.743V38.4219H172.743ZM153.349 38.4219H151.349V40.4219H153.349V38.4219ZM153.349 31.5664V29.5664H151.349V31.5664H153.349ZM174.794 13.3438H176.794V11.3438H174.794V13.3438ZM174.794 20.2285V22.2285H176.794V20.2285H174.794ZM153.349 20.2285H151.349V22.2285H153.349V20.2285ZM153.349 13.3438V11.3438H151.349V13.3438H153.349ZM153.751 13.3438V56H157.751V13.3438H153.751ZM155.751 54H146.962V58H155.751V54ZM148.962 56V13.3438H144.962V56H148.962ZM146.962 15.3438H155.751V11.3438H146.962V15.3438ZM170.743 31.5664V38.4219H174.743V31.5664H170.743ZM172.743 36.4219H153.349V40.4219H172.743V36.4219ZM155.349 38.4219V31.5664H151.349V38.4219H155.349ZM153.349 33.5664H172.743V29.5664H153.349V33.5664ZM172.794 13.3438V20.2285H176.794V13.3438H172.794ZM174.794 18.2285H153.349V22.2285H174.794V18.2285ZM155.349 20.2285V13.3438H151.349V20.2285H155.349ZM153.349 15.3438H174.794V11.3438H153.349V15.3438ZM193.438 13.3438H195.438V11.3438H193.438V13.3438ZM193.438 56V58H195.438V56H193.438ZM184.678 56H182.678V58H184.678V56ZM184.678 13.3438V11.3438H182.678V13.3438H184.678ZM191.438 13.3438V56H195.438V13.3438H191.438ZM193.438 54H184.678V58H193.438V54ZM186.678 56V13.3438H182.678V56H186.678ZM184.678 15.3438H193.438V11.3438H184.678V15.3438ZM223.741 20.6387L225.641 21.2621L225.704 21.0704L225.728 20.87L223.741 20.6387ZM212.139 56V58H213.588L214.04 56.6235L212.139 56ZM202.794 56L200.919 55.3034L199.917 58H202.794V56ZM218.643 13.3438V11.3438H217.253L216.769 12.6472L218.643 13.3438ZM224.591 13.3438L226.577 13.5751L226.837 11.3438H224.591V13.3438ZM233.38 56L231.48 56.6249L231.932 58H233.38V56ZM221.749 20.6387L219.765 20.8936L219.789 21.0826L219.849 21.2636L221.749 20.6387ZM220.811 13.3438V11.3438H218.538L218.828 13.5987L220.811 13.3438ZM226.817 13.3438L228.691 12.6438L228.205 11.3438H226.817V13.3438ZM242.755 56V58H245.637L244.628 55.3L242.755 56ZM232.852 40.1211H234.852V38.1211H232.852V40.1211ZM232.852 47.0059V49.0059H234.852V47.0059H232.852ZM210.323 47.0059H208.323V49.0059H210.323V47.0059ZM210.323 40.1211V38.1211H208.323V40.1211H210.323ZM221.841 20.0152L210.239 55.3765L214.04 56.6235L225.641 21.2621L221.841 20.0152ZM212.139 54H202.794V58H212.139V54ZM204.669 56.6966L220.518 14.0403L216.769 12.6472L200.919 55.3034L204.669 56.6966ZM218.643 15.3438H224.591V11.3438H218.643V15.3438ZM222.604 13.1124L221.754 20.4073L225.728 20.87L226.577 13.5751L222.604 13.1124ZM235.28 55.3751L223.649 20.0138L219.849 21.2636L231.48 56.6249L235.28 55.3751ZM223.733 20.3837L222.795 13.0888L218.828 13.5987L219.765 20.8936L223.733 20.3837ZM220.811 15.3438H226.817V11.3438H220.811V15.3438ZM224.944 14.0437L240.881 56.7L244.628 55.3L228.691 12.6438L224.944 14.0437ZM242.755 54H233.38V58H242.755V54ZM230.852 40.1211V47.0059H234.852V40.1211H230.852ZM232.852 45.0059H210.323V49.0059H232.852V45.0059ZM212.323 47.0059V40.1211H208.323V47.0059H212.323ZM210.323 42.1211H232.852V38.1211H210.323V42.1211ZM285.627 13.3438H287.627V11.3438H285.627V13.3438ZM285.627 56V58H287.627V56H285.627ZM276.837 56L275.122 57.0282L275.705 58H276.837V56ZM259.699 27.4062L261.414 26.378L257.699 20.1793V27.4062H259.699ZM259.699 56V58H261.699V56H259.699ZM250.91 56H248.91V58H250.91V56ZM250.91 13.3438V11.3438H248.91V13.3438H250.91ZM259.699 13.3438L261.414 12.315L260.831 11.3438H259.699V13.3438ZM276.867 41.9668L275.152 42.9955L278.867 49.1895V41.9668H276.867ZM276.867 13.3438V11.3438H274.867V13.3438H276.867ZM283.627 13.3438V56H287.627V13.3438H283.627ZM285.627 54H276.837V58H285.627V54ZM278.553 54.9718L261.414 26.378L257.983 28.4345L275.122 57.0282L278.553 54.9718ZM257.699 27.4062V56H261.699V27.4062H257.699ZM259.699 54H250.91V58H259.699V54ZM252.91 56V13.3438H248.91V56H252.91ZM250.91 15.3438H259.699V11.3438H250.91V15.3438ZM257.984 14.3725L275.152 42.9955L278.582 40.9381L261.414 12.315L257.984 14.3725ZM278.867 41.9668V13.3438H274.867V41.9668H278.867ZM276.867 15.3438H285.627V11.3438H276.867V15.3438ZM322.2 41.8496V39.8496H320.331L320.204 41.7136L322.2 41.8496ZM330.959 41.8496L332.956 41.9718L333.086 39.8496H330.959V41.8496ZM328.586 49.4961L326.895 48.4281L326.889 48.4388L328.586 49.4961ZM322.756 54.7109L321.862 52.9221L321.856 52.9249L322.756 54.7109ZM306.438 55.1797L305.63 57.0093L305.637 57.0124L305.644 57.0154L306.438 55.1797ZM300.871 51.0781L299.353 52.3797L299.361 52.3892L300.871 51.0781ZM297.414 24.7402L295.516 24.1122L295.513 24.1211L297.414 24.7402ZM300.989 18.2656L299.487 16.9451L299.478 16.9545L300.989 18.2656ZM322.844 14.6621L321.91 16.4307L321.916 16.4338L322.844 14.6621ZM328.557 19.9941L326.838 21.0166L326.845 21.0275L328.557 19.9941ZM331.018 27.7285V29.7285H333.216L333.009 27.5402L331.018 27.7285ZM322.229 27.7285L320.232 27.842L320.339 29.7285H322.229V27.7285ZM321.203 23.3633L319.403 24.2344L319.409 24.2459L321.203 23.3633ZM318.537 20.6387L317.596 22.4034L317.614 22.4127L317.631 22.4216L318.537 20.6387ZM310.012 20.5215L310.907 22.3103L310.012 20.5215ZM305.588 27.2305L303.634 26.8037L303.632 26.8122L303.631 26.8207L305.588 27.2305ZM305.559 41.9961L303.597 42.3839L303.598 42.3883L305.559 41.9961ZM307.082 46.2148L305.362 47.2352L305.373 47.2525L305.383 47.2696L307.082 46.2148ZM309.778 48.793L308.833 50.5559L308.852 50.5659L308.871 50.5755L309.778 48.793ZM321.057 46.1562L319.311 45.1799L319.305 45.1913L319.299 45.2027L321.057 46.1562ZM310.657 55.8828V53.8828H309.044L308.702 55.4591L310.657 55.8828ZM317.014 55.8828L318.98 56.2494L319.421 53.8828H317.014V55.8828ZM316.692 57.6113L314.726 57.2448L314.355 59.2319L316.346 59.5812L316.692 57.6113ZM320.442 65.4922L318.678 64.5489L318.67 64.565L318.661 64.5812L320.442 65.4922ZM318.508 67.6602L317.356 66.0252L317.344 66.0338L317.332 66.0427L318.508 67.6602ZM315.286 69.0664L314.814 67.1227L314.8 67.1261L314.787 67.1296L315.286 69.0664ZM310.832 69.5645L308.834 69.6519L308.918 71.5645H310.832V69.5645ZM310.627 64.877V62.877H308.538L308.629 64.9644L310.627 64.877ZM313.528 63.793L311.991 62.5126L311.974 62.5329L311.958 62.5537L313.528 63.793ZM312.151 60.3945L311.651 62.3311L311.658 62.333L311.666 62.3348L312.151 60.3945ZM309.748 60.0723L307.794 59.6485L307.299 61.9316L309.631 62.0688L309.748 60.0723ZM322.2 43.8496H330.959V39.8496H322.2V43.8496ZM328.963 41.7274C328.806 44.2943 328.106 46.5118 326.895 48.4281L330.277 50.5641C331.88 48.0272 332.761 45.1471 332.956 41.9718L328.963 41.7274ZM326.889 48.4388C325.71 50.3313 324.054 51.8259 321.862 52.9221L323.651 56.4998C326.458 55.096 328.689 53.114 330.284 50.5534L326.889 48.4388ZM321.856 52.9249C319.718 54.0026 317.054 54.5859 313.791 54.5859V58.5859C317.521 58.5859 320.834 57.9193 323.656 56.497L321.856 52.9249ZM313.791 54.5859C311.287 54.5859 309.113 54.1574 307.232 53.344L305.644 57.0154C308.099 58.077 310.827 58.5859 313.791 58.5859V54.5859ZM307.246 53.35C305.345 52.5111 303.73 51.3203 302.382 49.767L299.361 52.3892C301.099 54.3907 303.195 55.9342 305.63 57.0093L307.246 53.35ZM302.39 49.7765C301.062 48.2275 300.021 46.324 299.291 44.027L295.479 45.2386C296.351 47.9807 297.634 50.374 299.353 52.3797L302.39 49.7765ZM299.291 44.027C298.563 41.7353 298.184 39.1218 298.184 36.166H294.184C294.184 39.4602 294.606 42.4913 295.479 45.2386L299.291 44.027ZM298.184 36.166V33.207H294.184V36.166H298.184ZM298.184 33.207C298.184 30.2556 298.571 27.6468 299.316 25.3594L295.513 24.1211C294.617 26.8727 294.184 29.9085 294.184 33.207H298.184ZM299.313 25.3683C300.081 23.0463 301.151 21.1289 302.499 19.5767L299.478 16.9545C297.74 18.957 296.427 21.356 295.516 24.1122L299.313 25.3683ZM302.491 19.5861C303.861 18.0272 305.489 16.8336 307.392 15.9937L305.777 12.3344C303.343 13.4086 301.241 14.9493 299.487 16.9451L302.491 19.5861ZM307.392 15.9937C309.275 15.1627 311.416 14.7285 313.85 14.7285V10.7285C310.932 10.7285 308.23 11.2514 305.777 12.3344L307.392 15.9937ZM313.85 14.7285C317.17 14.7285 319.828 15.331 321.91 16.4307L323.778 12.8935C320.978 11.415 317.639 10.7285 313.85 10.7285V14.7285ZM321.916 16.4338C324.068 17.5608 325.69 19.0865 326.838 21.0166L330.276 18.9717C328.729 16.3705 326.542 14.3416 323.772 12.8904L321.916 16.4338ZM326.845 21.0275C328.042 23.0117 328.779 25.2958 329.027 27.9169L333.009 27.5402C332.71 24.38 331.806 21.5078 330.269 18.9608L326.845 21.0275ZM331.018 25.7285H322.229V29.7285H331.018V25.7285ZM324.226 27.6151C324.117 25.7047 323.732 23.9722 322.998 22.4806L319.409 24.2459C319.847 25.1372 320.145 26.3148 320.232 27.842L324.226 27.6151ZM323.004 22.4922C322.229 20.8905 321.027 19.6606 319.444 18.8557L317.631 22.4216C318.43 22.8276 319.006 23.4142 319.403 24.2344L323.004 22.4922ZM319.479 18.874C317.913 18.0388 315.988 17.7012 313.85 17.7012V21.7012C315.618 21.7012 316.818 21.9885 317.596 22.4034L319.479 18.874ZM313.85 17.7012C312.135 17.7012 310.539 18.022 309.118 18.7326L310.907 22.3103C311.673 21.9272 312.635 21.7012 313.85 21.7012V17.7012ZM309.118 18.7326C307.684 19.4496 306.511 20.5275 305.594 21.9023L308.922 24.1211C309.49 23.2694 310.153 22.6872 310.907 22.3103L309.118 18.7326ZM305.594 21.9023C304.679 23.275 304.043 24.9304 303.634 26.8037L307.542 27.6572C307.875 26.1321 308.353 24.975 308.922 24.1211L305.594 21.9023ZM303.631 26.8207C303.244 28.6701 303.061 30.7861 303.061 33.1484H307.061C307.061 30.9795 307.23 29.1502 307.546 27.6402L303.631 26.8207ZM303.061 33.1484V36.166H307.061V33.1484H303.061ZM303.061 36.166C303.061 38.4681 303.234 40.5461 303.597 42.3839L307.521 41.6082C307.22 40.0867 307.061 38.278 307.061 36.166H303.061ZM303.598 42.3883C303.963 44.2142 304.538 45.8451 305.362 47.2352L308.803 45.1944C308.26 44.2799 307.819 43.0983 307.52 41.6039L303.598 42.3883ZM305.383 47.2696C306.257 48.6776 307.407 49.7919 308.833 50.5559L310.722 47.03C309.961 46.6221 309.314 46.0177 308.782 45.1601L305.383 47.2696ZM308.871 50.5755C310.327 51.3162 311.991 51.6426 313.791 51.6426V47.6426C312.467 47.6426 311.455 47.4025 310.685 47.0104L308.871 50.5755ZM313.791 51.6426C315.823 51.6426 317.665 51.3209 319.215 50.5584L317.45 46.969C316.617 47.3784 315.432 47.6426 313.791 47.6426V51.6426ZM319.215 50.5584C320.773 49.792 321.99 48.6314 322.815 47.1098L319.299 45.2027C318.874 45.9858 318.274 46.5634 317.45 46.969L319.215 50.5584ZM322.803 47.1326C323.628 45.6559 324.064 43.9132 324.195 41.9857L320.204 41.7136C320.101 43.2235 319.775 44.3519 319.311 45.1799L322.803 47.1326ZM310.657 57.8828H317.014V53.8828H310.657V57.8828ZM315.048 55.5162L314.726 57.2448L318.658 57.9779L318.98 56.2494L315.048 55.5162ZM316.346 59.5812C317.11 59.7153 317.815 60.0341 318.481 60.5728L320.996 57.4623C319.826 56.5166 318.5 55.898 317.037 55.6414L316.346 59.5812ZM318.481 60.5728C318.75 60.7904 319.116 61.3084 319.116 62.6797H323.116C323.116 60.6525 322.563 58.7291 320.996 57.4623L318.481 60.5728ZM319.116 62.6797C319.116 63.415 318.959 64.024 318.678 64.5489L322.205 66.4355C322.823 65.2807 323.116 64.0147 323.116 62.6797H319.116ZM318.661 64.5812C318.396 65.1006 317.981 65.5848 317.356 66.0252L319.66 69.2951C320.754 68.5245 321.629 67.5635 322.222 66.4031L318.661 64.5812ZM317.332 66.0427C316.729 66.4809 315.91 66.857 314.814 67.1227L315.757 71.0101C317.239 70.6508 318.568 70.0894 319.685 69.2776L317.332 66.0427ZM314.787 67.1296C313.697 67.4104 312.386 67.5645 310.832 67.5645V71.5645C312.639 71.5645 314.296 71.3865 315.784 71.0032L314.787 67.1296ZM312.83 69.477L312.625 64.7895L308.629 64.9644L308.834 69.6519L312.83 69.477ZM310.627 66.877C311.439 66.877 312.231 66.7627 312.981 66.5033L311.672 62.7233C311.406 62.8155 311.065 62.877 310.627 62.877V66.877ZM312.981 66.5033C313.799 66.22 314.537 65.7427 315.097 65.0323L311.958 62.5537C311.933 62.5854 311.87 62.655 311.672 62.7233L312.981 66.5033ZM315.064 65.0733C315.732 64.2714 315.967 63.3067 315.967 62.3867H311.967C311.967 62.5152 311.951 62.573 311.948 62.5812C311.947 62.5847 311.949 62.5774 311.957 62.5629C311.965 62.5481 311.976 62.5305 311.991 62.5126L315.064 65.0733ZM315.967 62.3867C315.967 61.4777 315.716 60.5073 314.987 59.7298L312.069 62.4655C312.041 62.4365 312.018 62.4049 311.999 62.373C311.98 62.3414 311.97 62.3155 311.964 62.2996C311.954 62.2692 311.967 62.2893 311.967 62.3867H315.967ZM314.987 59.7298C314.33 59.0289 313.458 58.6598 312.636 58.4542L311.666 62.3348C311.866 62.3849 311.988 62.4351 312.054 62.4687C312.119 62.5016 312.108 62.5081 312.069 62.4655L314.987 59.7298ZM312.651 58.458C311.869 58.2562 310.925 58.138 309.866 58.0757L309.631 62.0688C310.564 62.1237 311.222 62.2204 311.651 62.3311L312.651 58.458ZM311.703 60.496L312.611 56.3065L308.702 55.4591L307.794 59.6485L311.703 60.496ZM358.275 20.6387L360.175 21.2621L360.238 21.0704L360.261 20.87L358.275 20.6387ZM346.673 56V58H348.122L348.573 56.6235L346.673 56ZM337.327 56L335.453 55.3034L334.451 58H337.327V56ZM353.177 13.3438V11.3438H351.786L351.302 12.6472L353.177 13.3438ZM359.124 13.3438L361.111 13.5751L361.371 11.3438H359.124V13.3438ZM367.913 56L366.013 56.6249L366.466 58H367.913V56ZM356.282 20.6387L354.299 20.8936L354.323 21.0826L354.383 21.2636L356.282 20.6387ZM355.345 13.3438V11.3438H353.071L353.361 13.5987L355.345 13.3438ZM361.351 13.3438L363.224 12.6438L362.739 11.3438H361.351V13.3438ZM377.288 56V58H380.171L379.162 55.3L377.288 56ZM367.386 40.1211H369.386V38.1211H367.386V40.1211ZM367.386 47.0059V49.0059H369.386V47.0059H367.386ZM344.857 47.0059H342.857V49.0059H344.857V47.0059ZM344.857 40.1211V38.1211H342.857V40.1211H344.857ZM356.374 20.0152L344.773 55.3765L348.573 56.6235L360.175 21.2621L356.374 20.0152ZM346.673 54H337.327V58H346.673V54ZM339.202 56.6966L355.052 14.0403L351.302 12.6472L335.453 55.3034L339.202 56.6966ZM353.177 15.3438H359.124V11.3438H353.177V15.3438ZM357.138 13.1124L356.288 20.4073L360.261 20.87L361.111 13.5751L357.138 13.1124ZM369.813 55.3751L358.182 20.0138L354.383 21.2636L366.013 56.6249L369.813 55.3751ZM358.266 20.3837L357.329 13.0888L353.361 13.5987L354.299 20.8936L358.266 20.3837ZM355.345 15.3438H361.351V11.3438H355.345V15.3438ZM359.477 14.0437L375.415 56.7L379.162 55.3L363.224 12.6438L359.477 14.0437ZM377.288 54H367.913V58H377.288V54ZM365.386 40.1211V47.0059H369.386V40.1211H365.386ZM367.386 45.0059H344.857V49.0059H367.386V45.0059ZM346.857 47.0059V40.1211H342.857V47.0059H346.857ZM344.857 42.1211H367.386V38.1211H344.857V42.1211Z" fill="#1D1D1D" mask="url(#path-1-outside-1_1_56)"/>
<mask id="path-3-outside-2_1_56" maskUnits="userSpaceOnUse" x="13" y="117" width="360" height="57" fill="black">
<rect fill="white" x="13" y="117" width="360" height="57"/>
<path d="M40.6032 155.969L52.4978 165.402L46.1111 170.793L34.4216 161.359L40.6032 155.969ZM52.9958 140.822V142.551C52.9958 145.812 52.5368 148.742 51.6189 151.34C50.7204 153.918 49.4314 156.125 47.7517 157.961C46.0915 159.777 44.1286 161.174 41.863 162.15C39.5974 163.107 37.0974 163.586 34.363 163.586C31.6091 163.586 29.0896 163.107 26.8044 162.15C24.5388 161.174 22.5661 159.777 20.8864 157.961C19.2263 156.125 17.9372 153.918 17.0193 151.34C16.1208 148.742 15.6716 145.812 15.6716 142.551V140.822C15.6716 137.561 16.1208 134.631 17.0193 132.033C17.9372 129.436 19.2165 127.229 20.8571 125.412C22.5173 123.576 24.4802 122.18 26.7458 121.223C29.031 120.246 31.5505 119.758 34.3044 119.758C37.0388 119.758 39.5388 120.246 41.8044 121.223C44.0896 122.18 46.0622 123.576 47.7224 125.412C49.4021 127.229 50.7009 129.436 51.6189 132.033C52.5368 134.631 52.9958 137.561 52.9958 140.822ZM42.5368 142.551V140.764C42.5368 138.654 42.3513 136.799 41.9802 135.197C41.6286 133.576 41.1013 132.219 40.3982 131.125C39.695 130.031 38.8259 129.211 37.7907 128.664C36.7751 128.098 35.613 127.814 34.3044 127.814C32.9372 127.814 31.7458 128.098 30.7302 128.664C29.7146 129.211 28.865 130.031 28.1814 131.125C27.4978 132.219 26.9802 133.576 26.6286 135.197C26.2966 136.799 26.1306 138.654 26.1306 140.764V142.551C26.1306 144.641 26.2966 146.496 26.6286 148.117C26.9802 149.719 27.4978 151.076 28.1814 152.189C28.8845 153.303 29.7439 154.143 30.7595 154.709C31.7946 155.275 32.9958 155.559 34.363 155.559C35.6716 155.559 36.8337 155.275 37.8493 154.709C38.865 154.143 39.7146 153.303 40.3982 152.189C41.1013 151.076 41.6286 149.719 41.9802 148.117C42.3513 146.496 42.5368 144.641 42.5368 142.551ZM85.5845 120.344H95.8677V148.205C95.8677 151.525 95.1743 154.338 93.7876 156.643C92.4009 158.928 90.4575 160.656 87.9575 161.828C85.4575 163 82.5181 163.586 79.1392 163.586C75.7993 163.586 72.8599 163 70.3208 161.828C67.8013 160.656 65.8286 158.928 64.4029 156.643C62.9966 154.338 62.2935 151.525 62.2935 148.205V120.344H72.606V148.205C72.606 149.963 72.8599 151.398 73.3677 152.512C73.8755 153.605 74.6177 154.406 75.5943 154.914C76.5708 155.422 77.7525 155.676 79.1392 155.676C80.5454 155.676 81.7271 155.422 82.6841 154.914C83.6411 154.406 84.3638 153.605 84.8521 152.512C85.3404 151.398 85.5845 149.963 85.5845 148.205V120.344ZM123.974 129.309L113.574 163H102.529L118.202 120.344H125.204L123.974 129.309ZM132.587 163L122.158 129.309L120.81 120.344H127.9L143.661 163H132.587ZM132.177 147.092V155.031H110.292V147.092H132.177ZM179.18 155.09V163H157.617V155.09H179.18ZM161.279 120.344V163H150.996V120.344H161.279ZM198.643 120.344V163H188.39V120.344H198.643ZM223.937 163H214.474L214.533 155.09H223.937C225.89 155.09 227.541 154.621 228.888 153.684C230.256 152.746 231.291 151.35 231.994 149.494C232.717 147.619 233.078 145.314 233.078 142.58V140.734C233.078 138.684 232.873 136.887 232.463 135.344C232.072 133.781 231.486 132.482 230.705 131.447C229.924 130.393 228.947 129.602 227.775 129.074C226.623 128.547 225.295 128.283 223.791 128.283H214.299V120.344H223.791C226.681 120.344 229.328 120.842 231.73 121.838C234.152 122.814 236.242 124.221 238 126.057C239.777 127.873 241.144 130.031 242.101 132.531C243.078 135.012 243.566 137.766 243.566 140.793V142.58C243.566 145.588 243.078 148.342 242.101 150.842C241.144 153.342 239.787 155.5 238.029 157.316C236.271 159.133 234.191 160.539 231.789 161.535C229.406 162.512 226.789 163 223.937 163ZM220.363 120.344V163H210.08V120.344H220.363ZM270.559 129.309L260.159 163H249.114L264.788 120.344H271.79L270.559 129.309ZM279.172 163L268.743 129.309L267.395 120.344H274.485L290.247 163H279.172ZM278.762 147.092V155.031H256.877V147.092H278.762ZM311.439 163H301.976L302.034 155.09H311.439C313.392 155.09 315.042 154.621 316.39 153.684C317.757 152.746 318.792 151.35 319.495 149.494C320.218 147.619 320.579 145.314 320.579 142.58V140.734C320.579 138.684 320.374 136.887 319.964 135.344C319.574 133.781 318.988 132.482 318.206 131.447C317.425 130.393 316.449 129.602 315.277 129.074C314.124 128.547 312.796 128.283 311.292 128.283H301.8V120.344H311.292C314.183 120.344 316.829 120.842 319.232 121.838C321.654 122.814 323.743 124.221 325.501 126.057C327.279 127.873 328.646 130.031 329.603 132.531C330.579 135.012 331.068 137.766 331.068 140.793V142.58C331.068 145.588 330.579 148.342 329.603 150.842C328.646 153.342 327.288 155.5 325.531 157.316C323.773 159.133 321.693 160.539 319.29 161.535C316.908 162.512 314.29 163 311.439 163ZM307.865 120.344V163H297.581V120.344H307.865ZM369.984 155.09V163H347.25V155.09H369.984ZM350.912 120.344V163H340.629V120.344H350.912ZM367.055 137.277V144.924H347.25V137.277H367.055ZM370.072 120.344V128.283H347.25V120.344H370.072Z"/>
</mask>
<path d="M40.6032 155.969L41.846 154.402L40.5426 153.368L39.2888 154.461L40.6032 155.969ZM52.4978 165.402L53.7878 166.931L55.6556 165.354L53.7406 163.835L52.4978 165.402ZM46.1111 170.793L44.855 172.349L46.1396 173.386L47.4011 172.321L46.1111 170.793ZM34.4216 161.359L33.1071 159.852L31.3105 161.419L33.1656 162.916L34.4216 161.359ZM51.6189 151.34L49.7331 150.673L49.7303 150.682L51.6189 151.34ZM47.7517 157.961L46.2761 156.611L46.2754 156.612L47.7517 157.961ZM41.863 162.15L42.6413 163.993L42.648 163.99L42.6547 163.987L41.863 162.15ZM26.8044 162.15L26.0128 163.987L26.0223 163.991L26.0318 163.995L26.8044 162.15ZM20.8864 157.961L19.403 159.302L19.4105 159.311L19.418 159.319L20.8864 157.961ZM17.0193 151.34L15.1291 151.994L15.1321 152.002L15.1351 152.011L17.0193 151.34ZM17.0193 132.033L15.1335 131.367L15.1291 131.379L17.0193 132.033ZM20.8571 125.412L19.3737 124.071L19.3729 124.072L20.8571 125.412ZM26.7458 121.223L27.5241 123.065L27.5318 123.062L26.7458 121.223ZM41.8044 121.223L41.0128 123.059L41.0223 123.063L41.0318 123.067L41.8044 121.223ZM47.7224 125.412L46.2389 126.754L46.2464 126.762L46.254 126.77L47.7224 125.412ZM41.9802 135.197L40.0256 135.621L40.0286 135.635L40.0318 135.649L41.9802 135.197ZM40.3982 131.125L38.7158 132.207L40.3982 131.125ZM37.7907 128.664L36.8166 130.411L36.8364 130.422L36.8565 130.432L37.7907 128.664ZM30.7302 128.664L31.6784 130.425L31.6914 130.418L31.7043 130.411L30.7302 128.664ZM26.6286 135.197L24.6741 134.773L24.6721 134.782L24.6703 134.791L26.6286 135.197ZM26.6286 148.117L24.6693 148.518L24.6721 148.532L24.6751 148.546L26.6286 148.117ZM28.1814 152.189L26.477 153.236L26.4836 153.247L26.4904 153.257L28.1814 152.189ZM30.7595 154.709L29.7854 156.456L29.7924 156.46L29.7995 156.464L30.7595 154.709ZM37.8493 154.709L38.8235 156.456L37.8493 154.709ZM40.3982 152.189L38.7072 151.121L38.7004 151.132L38.6938 151.143L40.3982 152.189ZM41.9802 148.117L40.0306 147.671L40.0286 147.68L40.0267 147.688L41.9802 148.117ZM39.3605 157.536L51.255 166.969L53.7406 163.835L41.846 154.402L39.3605 157.536ZM51.2078 163.874L44.8211 169.265L47.4011 172.321L53.7878 166.931L51.2078 163.874ZM47.3671 169.237L35.6776 159.803L33.1656 162.916L44.855 172.349L47.3671 169.237ZM35.7361 162.867L41.9177 157.476L39.2888 154.461L33.1071 159.852L35.7361 162.867ZM50.9958 140.822V142.551H54.9958V140.822H50.9958ZM50.9958 142.551C50.9958 145.626 50.563 148.325 49.7331 150.673L53.5046 152.006C54.5107 149.159 54.9958 145.999 54.9958 142.551H50.9958ZM49.7303 150.682C48.9124 153.029 47.7555 154.994 46.2761 156.611L49.2273 159.311C51.1073 157.256 52.5285 154.807 53.5075 151.998L49.7303 150.682ZM46.2754 156.612C44.8069 158.218 43.0775 159.449 41.0713 160.314L42.6547 163.987C45.1797 162.899 47.3762 161.336 49.228 159.31L46.2754 156.612ZM41.0848 160.308C39.0916 161.15 36.86 161.586 34.363 161.586V165.586C37.3348 165.586 40.1032 165.065 42.6413 163.993L41.0848 160.308ZM34.363 161.586C31.8447 161.586 29.5915 161.149 27.577 160.306L26.0318 163.995C28.5876 165.066 31.3735 165.586 34.363 165.586V161.586ZM27.5961 160.314C25.5877 159.448 23.8454 158.215 22.3548 156.603L19.418 159.319C21.2869 161.34 23.4899 162.9 26.0128 163.987L27.5961 160.314ZM22.3699 156.62C20.9038 154.998 19.7425 153.026 18.9034 150.669L15.1351 152.011C16.1319 154.81 17.5487 157.252 19.403 159.302L22.3699 156.62ZM18.9094 150.686C18.0958 148.334 17.6716 145.63 17.6716 142.551H13.6716C13.6716 145.995 14.1458 149.151 15.1291 151.994L18.9094 150.686ZM17.6716 142.551V140.822H13.6716V142.551H17.6716ZM17.6716 140.822C17.6716 137.743 18.0958 135.039 18.9094 132.687L15.1291 131.379C14.1458 134.223 13.6716 137.378 13.6716 140.822H17.6716ZM18.905 132.7C19.746 130.32 20.8987 128.35 22.3414 126.753L19.3729 124.072C17.5344 126.107 16.1285 128.551 15.1335 131.367L18.905 132.7ZM22.3406 126.754C23.8063 125.133 25.529 123.908 27.5241 123.065L25.9676 119.38C23.4314 120.452 21.2283 122.02 19.3737 124.071L22.3406 126.754ZM27.5318 123.062C29.5429 122.202 31.7913 121.758 34.3044 121.758V117.758C31.3097 117.758 28.5191 118.29 25.9599 119.384L27.5318 123.062ZM34.3044 121.758C36.7961 121.758 39.023 122.202 41.0128 123.059L42.5961 119.386C40.0546 118.291 37.2814 117.758 34.3044 117.758V121.758ZM41.0318 123.067C43.0462 123.911 44.7761 125.136 46.2389 126.754L49.2058 124.071C47.3484 122.017 45.133 120.448 42.577 119.378L41.0318 123.067ZM46.254 126.77C47.7291 128.365 48.8955 130.329 49.7331 132.7L53.5046 131.367C52.5063 128.542 51.0751 126.092 49.1908 124.054L46.254 126.77ZM49.7331 132.7C50.563 135.048 50.9958 137.747 50.9958 140.822H54.9958C54.9958 137.374 54.5107 134.214 53.5046 131.367L49.7331 132.7ZM44.5368 142.551V140.764H40.5368V142.551H44.5368ZM44.5368 140.764C44.5368 138.543 44.342 136.53 43.9286 134.746L40.0318 135.649C40.3605 137.067 40.5368 138.766 40.5368 140.764H44.5368ZM43.9348 134.773C43.5459 132.98 42.9431 131.385 42.0805 130.043L38.7158 132.207C39.2595 133.052 39.7114 134.172 40.0256 135.621L43.9348 134.773ZM42.0805 130.043C41.2123 128.693 40.0971 127.621 38.725 126.896L36.8565 130.432C37.5547 130.801 38.1777 131.37 38.7158 132.207L42.0805 130.043ZM38.7649 126.917C37.4156 126.165 35.9105 125.814 34.3044 125.814V129.814C35.3155 129.814 36.1346 130.03 36.8166 130.411L38.7649 126.917ZM34.3044 125.814C32.6564 125.814 31.118 126.158 29.7561 126.917L31.7043 130.411C32.3737 130.038 33.2181 129.814 34.3044 129.814V125.814ZM29.782 126.903C28.4255 127.634 27.3309 128.712 26.4854 130.065L29.8774 132.185C30.399 131.35 31.0036 130.788 31.6784 130.425L29.782 126.903ZM26.4854 130.065C25.6502 131.401 25.0612 132.988 24.6741 134.773L28.5832 135.621C28.8992 134.164 29.3453 133.036 29.8774 132.185L26.4854 130.065ZM24.6703 134.791C24.3039 136.558 24.1306 138.555 24.1306 140.764H28.1306C28.1306 138.754 28.2893 137.039 28.587 135.603L24.6703 134.791ZM24.1306 140.764V142.551H28.1306V140.764H24.1306ZM24.1306 142.551C24.1306 144.742 24.3043 146.736 24.6693 148.518L28.588 147.716C28.2889 146.256 28.1306 144.539 28.1306 142.551H24.1306ZM24.6751 148.546C25.0629 150.313 25.6509 151.891 26.477 153.236L29.8857 151.143C29.3446 150.262 28.8974 149.125 28.5821 147.688L24.6751 148.546ZM26.4904 153.257C27.3481 154.615 28.441 155.706 29.7854 156.456L31.7336 152.962C31.0467 152.579 30.4209 151.99 29.8723 151.121L26.4904 153.257ZM29.7995 156.464C31.1727 157.215 32.7139 157.559 34.363 157.559V153.559C33.2777 153.559 32.4166 153.336 31.7195 152.954L29.7995 156.464ZM34.363 157.559C35.9691 157.559 37.4742 157.208 38.8235 156.456L36.8752 152.962C36.1932 153.343 35.3741 153.559 34.363 153.559V157.559ZM38.8235 156.456C40.174 155.703 41.2621 154.605 42.1025 153.236L38.6938 151.143C38.1671 152.001 37.5559 152.583 36.8752 152.962L38.8235 156.456ZM42.0891 153.257C42.9424 151.906 43.5441 150.321 43.9337 148.546L40.0267 147.688C39.7132 149.117 39.2602 150.246 38.7072 151.121L42.0891 153.257ZM43.9298 148.563C44.3416 146.764 44.5368 144.754 44.5368 142.551H40.5368C40.5368 144.527 40.3609 146.228 40.0306 147.671L43.9298 148.563ZM85.5845 120.344V118.344H83.5845V120.344H85.5845ZM95.8677 120.344H97.8677V118.344H95.8677V120.344ZM93.7876 156.643L95.4974 157.68L95.5013 157.674L93.7876 156.643ZM70.3208 161.828L69.4774 163.642L69.4827 163.644L70.3208 161.828ZM64.4029 156.643L62.6956 157.684L62.7008 157.693L62.706 157.701L64.4029 156.643ZM62.2935 120.344V118.344H60.2935V120.344H62.2935ZM72.606 120.344H74.606V118.344H72.606V120.344ZM73.3677 152.512L71.548 153.342L71.5537 153.354L73.3677 152.512ZM82.6841 154.914L83.6215 156.681L82.6841 154.914ZM84.8521 152.512L86.6784 153.327L86.6836 153.315L84.8521 152.512ZM85.5845 122.344H95.8677V118.344H85.5845V122.344ZM93.8677 120.344V148.205H97.8677V120.344H93.8677ZM93.8677 148.205C93.8677 151.247 93.2339 153.684 92.0739 155.611L95.5013 157.674C97.1147 154.992 97.8677 151.804 97.8677 148.205H93.8677ZM92.0778 155.605C90.9026 157.542 89.2642 159.007 87.1087 160.017L88.8064 163.639C91.6509 162.306 93.8992 160.314 95.4974 157.68L92.0778 155.605ZM87.1087 160.017C84.927 161.04 82.289 161.586 79.1392 161.586V165.586C82.7472 165.586 85.9881 164.96 88.8064 163.639L87.1087 160.017ZM79.1392 161.586C76.0333 161.586 73.3892 161.042 71.1589 160.012L69.4827 163.644C72.3306 164.958 75.5654 165.586 79.1392 165.586V161.586ZM71.1643 160.015C68.9846 159.001 67.3134 157.529 66.0997 155.584L62.706 157.701C64.3439 160.326 66.618 162.312 69.4774 163.642L71.1643 160.015ZM66.1101 155.601C64.9349 153.675 64.2935 151.242 64.2935 148.205H60.2935C60.2935 151.809 61.0583 155.001 62.6956 157.684L66.1101 155.601ZM64.2935 148.205V120.344H60.2935V148.205H64.2935ZM62.2935 122.344H72.606V118.344H62.2935V122.344ZM70.606 120.344V148.205H74.606V120.344H70.606ZM70.606 148.205C70.606 150.134 70.8813 151.88 71.5481 153.342L75.1873 151.682C74.8385 150.917 74.606 149.792 74.606 148.205H70.606ZM71.5537 153.354C72.2287 154.808 73.2652 155.957 74.6716 156.688L76.517 153.14C75.9702 152.855 75.5224 152.403 75.1817 151.669L71.5537 153.354ZM74.6716 156.688C75.9976 157.378 77.5128 157.676 79.1392 157.676V153.676C77.9921 153.676 77.144 153.466 76.517 153.14L74.6716 156.688ZM79.1392 157.676C80.7779 157.676 82.3026 157.381 83.6215 156.681L81.7467 153.147C81.1516 153.463 80.313 153.676 79.1392 153.676V157.676ZM83.6215 156.681C85.0146 155.942 86.0285 154.783 86.6783 153.327L83.0258 151.696C82.699 152.428 82.2677 152.871 81.7467 153.147L83.6215 156.681ZM86.6836 153.315C87.321 151.862 87.5845 150.126 87.5845 148.205H83.5845C83.5845 149.8 83.3597 150.935 83.0205 151.708L86.6836 153.315ZM87.5845 148.205V120.344H83.5845V148.205H87.5845ZM123.974 129.309L125.885 129.899L125.933 129.742L125.955 129.581L123.974 129.309ZM113.574 163V165H115.049L115.485 163.59L113.574 163ZM102.529 163L100.651 162.31L99.663 165H102.529V163ZM118.202 120.344V118.344H116.807L116.325 119.654L118.202 120.344ZM125.204 120.344L127.186 120.616L127.498 118.344H125.204V120.344ZM132.587 163L130.677 163.591L131.113 165H132.587V163ZM122.158 129.309L120.18 129.606L120.202 129.756L120.247 129.9L122.158 129.309ZM120.81 120.344V118.344H118.487L118.832 120.641L120.81 120.344ZM127.9 120.344L129.776 119.651L129.293 118.344H127.9V120.344ZM143.661 163V165H146.533L145.537 162.307L143.661 163ZM132.177 147.092H134.177V145.092H132.177V147.092ZM132.177 155.031V157.031H134.177V155.031H132.177ZM110.292 155.031H108.292V157.031H110.292V155.031ZM110.292 147.092V145.092H108.292V147.092H110.292ZM122.063 128.719L111.663 162.41L115.485 163.59L125.885 129.899L122.063 128.719ZM113.574 161H102.529V165H113.574V161ZM104.406 163.69L120.08 121.034L116.325 119.654L100.651 162.31L104.406 163.69ZM118.202 122.344H125.204V118.344H118.202V122.344ZM123.223 120.072L121.993 129.037L125.955 129.581L127.186 120.616L123.223 120.072ZM134.498 162.409L124.068 128.717L120.247 129.9L130.677 163.591L134.498 162.409ZM124.135 129.011L122.788 120.046L118.832 120.641L120.18 129.606L124.135 129.011ZM120.81 122.344H127.9V118.344H120.81V122.344ZM126.024 121.037L141.785 163.693L145.537 162.307L129.776 119.651L126.024 121.037ZM143.661 161H132.587V165H143.661V161ZM130.177 147.092V155.031H134.177V147.092H130.177ZM132.177 153.031H110.292V157.031H132.177V153.031ZM112.292 155.031V147.092H108.292V155.031H112.292ZM110.292 149.092H132.177V145.092H110.292V149.092ZM179.18 155.09H181.18V153.09H179.18V155.09ZM179.18 163V165H181.18V163H179.18ZM157.617 163H155.617V165H157.617V163ZM157.617 155.09V153.09H155.617V155.09H157.617ZM161.279 120.344H163.279V118.344H161.279V120.344ZM161.279 163V165H163.279V163H161.279ZM150.996 163H148.996V165H150.996V163ZM150.996 120.344V118.344H148.996V120.344H150.996ZM177.18 155.09V163H181.18V155.09H177.18ZM179.18 161H157.617V165H179.18V161ZM159.617 163V155.09H155.617V163H159.617ZM157.617 157.09H179.18V153.09H157.617V157.09ZM159.279 120.344V163H163.279V120.344H159.279ZM161.279 161H150.996V165H161.279V161ZM152.996 163V120.344H148.996V163H152.996ZM150.996 122.344H161.279V118.344H150.996V122.344ZM198.643 120.344H200.643V118.344H198.643V120.344ZM198.643 163V165H200.643V163H198.643ZM188.39 163H186.39V165H188.39V163ZM188.39 120.344V118.344H186.39V120.344H188.39ZM196.643 120.344V163H200.643V120.344H196.643ZM198.643 161H188.39V165H198.643V161ZM190.39 163V120.344H186.39V163H190.39ZM188.39 122.344H198.643V118.344H188.39V122.344ZM214.474 163L212.474 162.985L212.459 165H214.474V163ZM214.533 155.09V153.09H212.548L212.533 155.075L214.533 155.09ZM228.888 153.684L227.757 152.034L227.746 152.042L228.888 153.684ZM231.994 149.494L230.128 148.775L230.124 148.785L231.994 149.494ZM232.463 135.344L230.522 135.829L230.526 135.843L230.53 135.858L232.463 135.344ZM230.705 131.447L229.098 132.638L229.103 132.645L229.108 132.652L230.705 131.447ZM227.775 129.074L226.943 130.893L226.954 130.898L227.775 129.074ZM214.299 128.283H212.299V130.283H214.299V128.283ZM214.299 120.344V118.344H212.299V120.344H214.299ZM231.73 121.838L230.964 123.685L230.973 123.689L230.982 123.693L231.73 121.838ZM238 126.057L236.555 127.44L236.563 127.448L236.57 127.455L238 126.057ZM242.101 132.531L240.233 133.246L240.237 133.255L240.24 133.264L242.101 132.531ZM242.101 150.842L240.238 150.114L240.233 150.127L242.101 150.842ZM231.789 161.535L232.547 163.386L232.555 163.383L231.789 161.535ZM220.363 120.344H222.363V118.344H220.363V120.344ZM220.363 163V165H222.363V163H220.363ZM210.08 163H208.08V165H210.08V163ZM210.08 120.344V118.344H208.08V120.344H210.08ZM223.937 161H214.474V165H223.937V161ZM216.474 163.015L216.533 155.105L212.533 155.075L212.474 162.985L216.474 163.015ZM214.533 157.09H223.937V153.09H214.533V157.09ZM223.937 157.09C226.22 157.09 228.288 156.538 230.031 155.325L227.746 152.042C226.793 152.705 225.561 153.09 223.937 153.09V157.09ZM230.019 155.333C231.785 154.122 233.045 152.363 233.864 150.203L230.124 148.785C229.536 150.336 228.726 151.37 227.757 152.034L230.019 155.333ZM233.86 150.213C234.697 148.042 235.078 145.477 235.078 142.58H231.078C231.078 145.151 230.736 147.196 230.128 148.775L233.86 150.213ZM235.078 142.58V140.734H231.078V142.58H235.078ZM235.078 140.734C235.078 138.557 234.861 136.58 234.395 134.83L230.53 135.858C230.885 137.193 231.078 138.811 231.078 140.734H235.078ZM234.403 134.859C233.962 133.097 233.278 131.537 232.301 130.242L229.108 132.652C229.694 133.428 230.182 134.466 230.522 135.829L234.403 134.859ZM232.312 130.257C231.332 128.933 230.087 127.921 228.596 127.25L226.954 130.898C227.807 131.282 228.516 131.852 229.098 132.638L232.312 130.257ZM228.607 127.256C227.15 126.589 225.529 126.283 223.791 126.283V130.283C225.06 130.283 226.096 130.505 226.943 130.893L228.607 127.256ZM223.791 126.283H214.299V130.283H223.791V126.283ZM216.299 128.283V120.344H212.299V128.283H216.299ZM214.299 122.344H223.791V118.344H214.299V122.344ZM223.791 122.344C226.448 122.344 228.83 122.801 230.964 123.685L232.496 119.99C229.825 118.883 226.915 118.344 223.791 118.344V122.344ZM230.982 123.693C233.148 124.566 234.999 125.814 236.555 127.44L239.444 124.673C237.485 122.627 235.156 121.063 232.478 119.983L230.982 123.693ZM236.57 127.455C238.146 129.066 239.369 130.988 240.233 133.246L243.969 131.816C242.92 129.075 241.408 126.68 239.429 124.658L236.57 127.455ZM240.24 133.264C241.113 135.482 241.566 137.983 241.566 140.793H245.566C245.566 137.549 245.042 134.542 243.962 131.799L240.24 133.264ZM241.566 140.793V142.58H245.566V140.793H241.566ZM241.566 142.58C241.566 145.369 241.114 147.872 240.238 150.114L243.964 151.569C245.042 148.811 245.566 145.807 245.566 142.58H241.566ZM240.233 150.127C239.367 152.39 238.151 154.314 236.592 155.926L239.466 158.707C241.423 156.686 242.921 154.294 243.969 151.557L240.233 150.127ZM236.592 155.926C235.03 157.54 233.18 158.793 231.023 159.688L232.555 163.383C235.202 162.285 237.513 160.726 239.466 158.707L236.592 155.926ZM231.03 159.685C228.913 160.552 226.557 161 223.937 161V165C227.021 165 229.899 164.471 232.547 163.386L231.03 159.685ZM218.363 120.344V163H222.363V120.344H218.363ZM220.363 161H210.08V165H220.363V161ZM212.08 163V120.344H208.08V163H212.08ZM210.08 122.344H220.363V118.344H210.08V122.344ZM270.559 129.309L272.47 129.899L272.518 129.742L272.541 129.581L270.559 129.309ZM260.159 163V165H261.634L262.07 163.59L260.159 163ZM249.114 163L247.237 162.31L246.248 165H249.114V163ZM264.788 120.344V118.344H263.392L262.91 119.654L264.788 120.344ZM271.79 120.344L273.771 120.616L274.083 118.344H271.79V120.344ZM279.172 163L277.262 163.591L277.698 165H279.172V163ZM268.743 129.309L266.765 129.606L266.787 129.756L266.832 129.9L268.743 129.309ZM267.395 120.344V118.344H265.072L265.417 120.641L267.395 120.344ZM274.485 120.344L276.361 119.651L275.878 118.344H274.485V120.344ZM290.247 163V165H293.118L292.123 162.307L290.247 163ZM278.762 147.092H280.762V145.092H278.762V147.092ZM278.762 155.031V157.031H280.762V155.031H278.762ZM256.877 155.031H254.877V157.031H256.877V155.031ZM256.877 147.092V145.092H254.877V147.092H256.877ZM268.648 128.719L258.248 162.41L262.07 163.59L272.47 129.899L268.648 128.719ZM260.159 161H249.114V165H260.159V161ZM250.991 163.69L266.665 121.034L262.91 119.654L247.237 162.31L250.991 163.69ZM264.788 122.344H271.79V118.344H264.788V122.344ZM269.808 120.072L268.578 129.037L272.541 129.581L273.771 120.616L269.808 120.072ZM281.083 162.409L270.653 128.717L266.832 129.9L277.262 163.591L281.083 162.409ZM270.72 129.011L269.373 120.046L265.417 120.641L266.765 129.606L270.72 129.011ZM267.395 122.344H274.485V118.344H267.395V122.344ZM272.609 121.037L288.371 163.693L292.123 162.307L276.361 119.651L272.609 121.037ZM290.247 161H279.172V165H290.247V161ZM276.762 147.092V155.031H280.762V147.092H276.762ZM278.762 153.031H256.877V157.031H278.762V153.031ZM258.877 155.031V147.092H254.877V155.031H258.877ZM256.877 149.092H278.762V145.092H256.877V149.092ZM301.976 163L299.976 162.985L299.961 165H301.976V163ZM302.034 155.09V153.09H300.049L300.035 155.075L302.034 155.09ZM316.39 153.684L315.259 152.034L315.248 152.042L316.39 153.684ZM319.495 149.494L317.629 148.775L317.625 148.785L319.495 149.494ZM319.964 135.344L318.024 135.829L318.027 135.843L318.031 135.858L319.964 135.344ZM318.206 131.447L316.599 132.638L316.605 132.645L316.61 132.652L318.206 131.447ZM315.277 129.074L314.444 130.893L314.456 130.898L315.277 129.074ZM301.8 128.283H299.8V130.283H301.8V128.283ZM301.8 120.344V118.344H299.8V120.344H301.8ZM319.232 121.838L318.466 123.685L318.475 123.689L318.484 123.693L319.232 121.838ZM325.501 126.057L324.057 127.44L324.064 127.448L324.072 127.455L325.501 126.057ZM329.603 132.531L327.735 133.246L327.738 133.255L327.742 133.264L329.603 132.531ZM329.603 150.842L327.74 150.114L327.735 150.127L329.603 150.842ZM319.29 161.535L320.049 163.386L320.056 163.383L319.29 161.535ZM307.865 120.344H309.865V118.344H307.865V120.344ZM307.865 163V165H309.865V163H307.865ZM297.581 163H295.581V165H297.581V163ZM297.581 120.344V118.344H295.581V120.344H297.581ZM311.439 161H301.976V165H311.439V161ZM303.976 163.015L304.034 155.105L300.035 155.075L299.976 162.985L303.976 163.015ZM302.034 157.09H311.439V153.09H302.034V157.09ZM311.439 157.09C313.721 157.09 315.79 156.538 317.532 155.325L315.248 152.042C314.295 152.705 313.063 153.09 311.439 153.09V157.09ZM317.521 155.333C319.287 154.122 320.547 152.363 321.366 150.203L317.625 148.785C317.038 150.336 316.228 151.37 315.259 152.034L317.521 155.333ZM321.362 150.213C322.198 148.042 322.579 145.477 322.579 142.58H318.579C318.579 145.151 318.238 147.196 317.629 148.775L321.362 150.213ZM322.579 142.58V140.734H318.579V142.58H322.579ZM322.579 140.734C322.579 138.557 322.362 136.58 321.897 134.83L318.031 135.858C318.386 137.193 318.579 138.811 318.579 140.734H322.579ZM321.904 134.859C321.464 133.097 320.78 131.537 319.803 130.242L316.61 132.652C317.195 133.428 317.683 134.466 318.024 135.829L321.904 134.859ZM319.813 130.257C318.833 128.933 317.588 127.921 316.097 127.25L314.456 130.898C315.309 131.282 316.017 131.852 316.599 132.638L319.813 130.257ZM316.109 127.256C314.651 126.589 313.03 126.283 311.292 126.283V130.283C312.562 130.283 313.597 130.505 314.444 130.893L316.109 127.256ZM311.292 126.283H301.8V130.283H311.292V126.283ZM303.8 128.283V120.344H299.8V128.283H303.8ZM301.8 122.344H311.292V118.344H301.8V122.344ZM311.292 122.344C313.949 122.344 316.332 122.801 318.466 123.685L319.998 119.99C317.327 118.883 314.416 118.344 311.292 118.344V122.344ZM318.484 123.693C320.65 124.566 322.5 125.814 324.057 127.44L326.946 124.673C324.986 122.627 322.657 121.063 319.98 119.983L318.484 123.693ZM324.072 127.455C325.648 129.066 326.87 130.988 327.735 133.246L331.471 131.816C330.421 129.075 328.91 126.68 326.931 124.658L324.072 127.455ZM327.742 133.264C328.615 135.482 329.068 137.983 329.068 140.793H333.068C333.068 137.549 332.544 134.542 331.464 131.799L327.742 133.264ZM329.068 140.793V142.58H333.068V140.793H329.068ZM329.068 142.58C329.068 145.369 328.616 147.872 327.74 150.114L331.466 151.569C332.543 148.811 333.068 145.807 333.068 142.58H329.068ZM327.735 150.127C326.869 152.39 325.653 154.314 324.093 155.926L326.968 158.707C328.924 156.686 330.423 154.294 331.471 151.557L327.735 150.127ZM324.093 155.926C322.531 157.54 320.682 158.793 318.524 159.688L320.056 163.383C322.704 162.285 325.014 160.726 326.968 158.707L324.093 155.926ZM318.532 159.685C316.414 160.552 314.058 161 311.439 161V165C314.523 165 317.401 164.471 320.049 163.386L318.532 159.685ZM305.865 120.344V163H309.865V120.344H305.865ZM307.865 161H297.581V165H307.865V161ZM299.581 163V120.344H295.581V163H299.581ZM297.581 122.344H307.865V118.344H297.581V122.344ZM369.984 155.09H371.984V153.09H369.984V155.09ZM369.984 163V165H371.984V163H369.984ZM347.25 163H345.25V165H347.25V163ZM347.25 155.09V153.09H345.25V155.09H347.25ZM350.912 120.344H352.912V118.344H350.912V120.344ZM350.912 163V165H352.912V163H350.912ZM340.629 163H338.629V165H340.629V163ZM340.629 120.344V118.344H338.629V120.344H340.629ZM367.055 137.277H369.055V135.277H367.055V137.277ZM367.055 144.924V146.924H369.055V144.924H367.055ZM347.25 144.924H345.25V146.924H347.25V144.924ZM347.25 137.277V135.277H345.25V137.277H347.25ZM370.072 120.344H372.072V118.344H370.072V120.344ZM370.072 128.283V130.283H372.072V128.283H370.072ZM347.25 128.283H345.25V130.283H347.25V128.283ZM347.25 120.344V118.344H345.25V120.344H347.25ZM367.984 155.09V163H371.984V155.09H367.984ZM369.984 161H347.25V165H369.984V161ZM349.25 163V155.09H345.25V163H349.25ZM347.25 157.09H369.984V153.09H347.25V157.09ZM348.912 120.344V163H352.912V120.344H348.912ZM350.912 161H340.629V165H350.912V161ZM342.629 163V120.344H338.629V163H342.629ZM340.629 122.344H350.912V118.344H340.629V122.344ZM365.055 137.277V144.924H369.055V137.277H365.055ZM367.055 142.924H347.25V146.924H367.055V142.924ZM349.25 144.924V137.277H345.25V144.924H349.25ZM347.25 139.277H367.055V135.277H347.25V139.277ZM368.072 120.344V128.283H372.072V120.344H368.072ZM370.072 126.283H347.25V130.283H370.072V126.283ZM349.25 128.283V120.344H345.25V128.283H349.25ZM347.25 122.344H370.072V118.344H347.25V122.344Z" fill="#464646" mask="url(#path-3-outside-2_1_56)"/>
<mask id="path-5-outside-3_1_56" maskUnits="userSpaceOnUse" x="29" y="215" width="329" height="73" fill="black">
<rect fill="white" x="29" y="215" width="329" height="73"/>
<path d="M42.0676 229.344V272H31.8137V229.344H42.0676ZM89.1289 229.344V272H78.875L63.7871 245.457V272H53.5039V229.344H63.7871L78.875 255.887V229.344H89.1289ZM135.927 249.822V251.551C135.927 254.812 135.468 257.742 134.55 260.34C133.651 262.918 132.372 265.125 130.712 266.961C129.052 268.777 127.089 270.174 124.823 271.15C122.557 272.107 120.057 272.586 117.323 272.586C114.569 272.586 112.05 272.107 109.764 271.15C107.499 270.174 105.526 268.777 103.846 266.961C102.186 265.125 100.897 262.918 99.9793 260.34C99.0809 257.742 98.6316 254.812 98.6316 251.551V249.822C98.6316 246.561 99.0809 243.631 99.9793 241.033C100.897 238.436 102.177 236.229 103.817 234.412C105.477 232.576 107.44 231.18 109.706 230.223C111.991 229.246 114.511 228.758 117.264 228.758C119.999 228.758 122.499 229.246 124.764 230.223C127.05 231.18 129.022 232.576 130.682 234.412C132.343 236.229 133.632 238.436 134.55 241.033C135.468 243.631 135.927 246.561 135.927 249.822ZM125.497 251.551V249.764C125.497 247.654 125.311 245.799 124.94 244.197C124.589 242.576 124.061 241.219 123.358 240.125C122.655 239.031 121.786 238.211 120.751 237.664C119.735 237.098 118.573 236.814 117.264 236.814C115.897 236.814 114.706 237.098 113.69 237.664C112.675 238.211 111.825 239.031 111.141 240.125C110.458 241.219 109.94 242.576 109.589 244.197C109.257 245.799 109.091 247.654 109.091 249.764V251.551C109.091 253.641 109.257 255.496 109.589 257.117C109.94 258.719 110.458 260.076 111.141 261.189C111.845 262.303 112.704 263.143 113.72 263.709C114.755 264.275 115.956 264.559 117.323 264.559C118.632 264.559 119.794 264.275 120.809 263.709C121.825 263.143 122.675 262.303 123.358 261.189C124.061 260.076 124.589 258.719 124.94 257.117C125.311 255.496 125.497 253.641 125.497 251.551ZM160.957 261.951L169.834 229.344H181.347L166.963 272H159.521L160.957 261.951ZM152.9 229.344L161.777 261.951L163.271 272H155.742L141.445 229.344H152.9ZM204.532 238.309L194.131 272H183.086L198.76 229.344H205.762L204.532 238.309ZM213.145 272L202.715 238.309L201.368 229.344H208.457L224.219 272H213.145ZM212.735 256.092V264.031H190.85V256.092H212.735ZM255.167 257.557H265.421C265.284 260.525 264.484 263.143 263.019 265.408C261.554 267.674 259.523 269.441 256.925 270.711C254.347 271.961 251.3 272.586 247.784 272.586C244.933 272.586 242.384 272.107 240.138 271.15C237.911 270.193 236.017 268.816 234.454 267.02C232.911 265.223 231.73 263.045 230.909 260.486C230.109 257.928 229.708 255.047 229.708 251.844V249.529C229.708 246.326 230.128 243.445 230.968 240.887C231.827 238.309 233.038 236.121 234.601 234.324C236.183 232.508 238.077 231.121 240.284 230.164C242.491 229.207 244.943 228.729 247.638 228.729C251.349 228.729 254.484 229.393 257.042 230.721C259.601 232.049 261.583 233.875 262.989 236.199C264.396 238.504 265.226 241.131 265.48 244.08H255.226C255.187 242.479 254.913 241.141 254.405 240.066C253.898 238.973 253.097 238.152 252.003 237.605C250.909 237.059 249.454 236.785 247.638 236.785C246.368 236.785 245.265 237.02 244.327 237.488C243.39 237.957 242.609 238.699 241.984 239.715C241.359 240.73 240.89 242.049 240.577 243.67C240.284 245.271 240.138 247.205 240.138 249.471V251.844C240.138 254.109 240.275 256.043 240.548 257.645C240.821 259.246 241.261 260.555 241.866 261.57C242.472 262.586 243.253 263.338 244.21 263.826C245.187 264.295 246.378 264.529 247.784 264.529C249.347 264.529 250.665 264.285 251.739 263.797C252.814 263.289 253.644 262.527 254.23 261.512C254.816 260.477 255.128 259.158 255.167 257.557ZM244.122 271.707H251.652L251.329 273.494C252.423 273.689 253.429 274.158 254.347 274.9C255.265 275.662 255.724 276.883 255.724 278.562C255.724 279.656 255.489 280.643 255.021 281.521C254.552 282.42 253.859 283.191 252.941 283.836C252.023 284.48 250.88 284.969 249.513 285.301C248.146 285.652 246.564 285.828 244.767 285.828L244.562 280.379C245.07 280.379 245.519 280.301 245.909 280.145C246.3 279.988 246.603 279.744 246.818 279.412C247.052 279.08 247.169 278.65 247.169 278.123C247.169 277.615 247.032 277.215 246.759 276.922C246.505 276.648 246.085 276.434 245.499 276.277C244.913 276.141 244.152 276.043 243.214 275.984L244.122 271.707ZM292.561 238.309L282.16 272H271.115L286.789 229.344H293.791L292.561 238.309ZM301.174 272L290.744 238.309L289.396 229.344H296.486L312.248 272H301.174ZM300.764 256.092V264.031H278.879V256.092H300.764ZM297.57 217.859L303.02 218.182C303.02 219.607 302.727 220.926 302.141 222.137C301.574 223.348 300.783 224.324 299.768 225.066C298.752 225.809 297.58 226.18 296.252 226.18C295.354 226.18 294.553 226.062 293.85 225.828C293.166 225.574 292.521 225.281 291.916 224.949C291.33 224.617 290.725 224.334 290.1 224.1C289.494 223.846 288.82 223.719 288.078 223.719C287.473 223.719 286.945 223.934 286.496 224.363C286.066 224.793 285.852 225.457 285.852 226.355L280.344 226.062C280.344 224.676 280.627 223.377 281.193 222.166C281.779 220.936 282.58 219.949 283.596 219.207C284.611 218.445 285.783 218.064 287.111 218.064C287.873 218.064 288.596 218.191 289.279 218.445C289.963 218.68 290.627 218.963 291.271 219.295C291.916 219.607 292.561 219.891 293.205 220.145C293.869 220.379 294.553 220.496 295.256 220.496C295.881 220.496 296.418 220.281 296.867 219.852C297.336 219.422 297.57 218.758 297.57 217.859ZM355.032 249.822V251.551C355.032 254.812 354.573 257.742 353.655 260.34C352.757 262.918 351.477 265.125 349.817 266.961C348.157 268.777 346.194 270.174 343.929 271.15C341.663 272.107 339.163 272.586 336.429 272.586C333.675 272.586 331.155 272.107 328.87 271.15C326.604 270.174 324.632 268.777 322.952 266.961C321.292 265.125 320.003 262.918 319.085 260.34C318.186 257.742 317.737 254.812 317.737 251.551V249.822C317.737 246.561 318.186 243.631 319.085 241.033C320.003 238.436 321.282 236.229 322.923 234.412C324.583 232.576 326.546 231.18 328.811 230.223C331.096 229.246 333.616 228.758 336.37 228.758C339.104 228.758 341.604 229.246 343.87 230.223C346.155 231.18 348.128 232.576 349.788 234.412C351.448 236.229 352.737 238.436 353.655 241.033C354.573 243.631 355.032 246.561 355.032 249.822ZM344.602 251.551V249.764C344.602 247.654 344.417 245.799 344.046 244.197C343.694 242.576 343.167 241.219 342.464 240.125C341.761 239.031 340.891 238.211 339.856 237.664C338.841 237.098 337.679 236.814 336.37 236.814C335.003 236.814 333.811 237.098 332.796 237.664C331.78 238.211 330.93 239.031 330.247 240.125C329.563 241.219 329.046 242.576 328.694 244.197C328.362 245.799 328.196 247.654 328.196 249.764V251.551C328.196 253.641 328.362 255.496 328.694 257.117C329.046 258.719 329.563 260.076 330.247 261.189C330.95 262.303 331.809 263.143 332.825 263.709C333.86 264.275 335.061 264.559 336.429 264.559C337.737 264.559 338.899 264.275 339.915 263.709C340.93 263.143 341.78 262.303 342.464 261.189C343.167 260.076 343.694 258.719 344.046 257.117C344.417 255.496 344.602 253.641 344.602 251.551Z"/>
</mask>
<path d="M42.0676 229.344H44.0676V227.344H42.0676V229.344ZM42.0676 272V274H44.0676V272H42.0676ZM31.8137 272H29.8137V274H31.8137V272ZM31.8137 229.344V227.344H29.8137V229.344H31.8137ZM40.0676 229.344V272H44.0676V229.344H40.0676ZM42.0676 270H31.8137V274H42.0676V270ZM33.8137 272V229.344H29.8137V272H33.8137ZM31.8137 231.344H42.0676V227.344H31.8137V231.344ZM89.1289 229.344H91.1289V227.344H89.1289V229.344ZM89.1289 272V274H91.1289V272H89.1289ZM78.875 272L77.1363 272.988L77.7113 274H78.875V272ZM63.7871 245.457L65.5258 244.469L61.7871 237.891V245.457H63.7871ZM63.7871 272V274H65.7871V272H63.7871ZM53.5039 272H51.5039V274H53.5039V272ZM53.5039 229.344V227.344H51.5039V229.344H53.5039ZM63.7871 229.344L65.5258 228.355L64.9508 227.344H63.7871V229.344ZM78.875 255.887L77.1363 256.875L80.875 263.452V255.887H78.875ZM78.875 229.344V227.344H76.875V229.344H78.875ZM87.1289 229.344V272H91.1289V229.344H87.1289ZM89.1289 270H78.875V274H89.1289V270ZM80.6137 271.012L65.5258 244.469L62.0484 246.445L77.1363 272.988L80.6137 271.012ZM61.7871 245.457V272H65.7871V245.457H61.7871ZM63.7871 270H53.5039V274H63.7871V270ZM55.5039 272V229.344H51.5039V272H55.5039ZM53.5039 231.344H63.7871V227.344H53.5039V231.344ZM62.0484 230.332L77.1363 256.875L80.6137 254.898L65.5258 228.355L62.0484 230.332ZM80.875 255.887V229.344H76.875V255.887H80.875ZM78.875 231.344H89.1289V227.344H78.875V231.344ZM134.55 260.34L132.664 259.673L132.661 259.682L134.55 260.34ZM130.712 266.961L132.188 268.31L132.195 268.302L130.712 266.961ZM124.823 271.15L125.601 272.993L125.608 272.99L125.615 272.987L124.823 271.15ZM109.764 271.15L108.973 272.987L108.982 272.991L108.992 272.995L109.764 271.15ZM103.846 266.961L102.363 268.302L102.371 268.311L102.378 268.319L103.846 266.961ZM99.9793 260.34L98.0892 260.994L98.0921 261.002L98.0952 261.011L99.9793 260.34ZM99.9793 241.033L98.0935 240.367L98.0892 240.379L99.9793 241.033ZM103.817 234.412L102.334 233.071L102.333 233.072L103.817 234.412ZM109.706 230.223L110.484 232.065L110.492 232.062L109.706 230.223ZM124.764 230.223L123.973 232.059L123.982 232.063L123.992 232.067L124.764 230.223ZM130.682 234.412L129.199 235.754L129.206 235.761L130.682 234.412ZM124.94 244.197L122.986 244.621L122.989 244.635L122.992 244.649L124.94 244.197ZM123.358 240.125L121.676 241.207L123.358 240.125ZM120.751 237.664L119.777 239.411L119.796 239.422L119.817 239.432L120.751 237.664ZM113.69 237.664L114.638 239.425L114.651 239.418L114.664 239.411L113.69 237.664ZM109.589 244.197L107.634 243.773L107.632 243.782L107.63 243.791L109.589 244.197ZM109.589 257.117L107.629 257.518L107.632 257.532L107.635 257.546L109.589 257.117ZM111.141 261.189L109.437 262.236L109.444 262.247L109.45 262.257L111.141 261.189ZM113.72 263.709L112.745 265.456L112.752 265.46L112.76 265.464L113.72 263.709ZM120.809 263.709L121.784 265.456L120.809 263.709ZM123.358 261.189L121.667 260.121L121.66 260.132L121.654 260.143L123.358 261.189ZM124.94 257.117L122.991 256.671L122.989 256.68L122.987 256.688L124.94 257.117ZM133.927 249.822V251.551H137.927V249.822H133.927ZM133.927 251.551C133.927 254.626 133.494 257.325 132.664 259.673L136.435 261.006C137.441 258.159 137.927 254.999 137.927 251.551H133.927ZM132.661 259.682C131.841 262.033 130.691 264.001 129.228 265.62L132.195 268.302C134.052 266.249 135.461 263.803 136.438 260.998L132.661 259.682ZM129.235 265.612C127.767 267.218 126.038 268.449 124.031 269.314L125.615 272.987C128.14 271.899 130.336 270.336 132.188 268.31L129.235 265.612ZM124.045 269.308C122.052 270.15 119.82 270.586 117.323 270.586V274.586C120.295 274.586 123.063 274.065 125.601 272.993L124.045 269.308ZM117.323 270.586C114.805 270.586 112.552 270.149 110.537 269.306L108.992 272.995C111.548 274.066 114.334 274.586 117.323 274.586V270.586ZM110.556 269.314C108.548 268.448 106.805 267.215 105.315 265.603L102.378 268.319C104.247 270.34 106.45 271.9 108.973 272.987L110.556 269.314ZM105.33 265.62C103.864 263.998 102.703 262.026 101.863 259.669L98.0952 261.011C99.092 263.81 100.509 266.252 102.363 268.302L105.33 265.62ZM101.869 259.686C101.056 257.334 100.632 254.63 100.632 251.551H96.6316C96.6316 254.995 97.1059 258.151 98.0892 260.994L101.869 259.686ZM100.632 251.551V249.822H96.6316V251.551H100.632ZM100.632 249.822C100.632 246.743 101.056 244.039 101.869 241.687L98.0892 240.379C97.1059 243.223 96.6316 246.378 96.6316 249.822H100.632ZM101.865 241.7C102.706 239.32 103.859 237.35 105.301 235.753L102.333 233.072C100.494 235.107 99.0885 237.551 98.0936 240.367L101.865 241.7ZM105.301 235.754C106.766 234.133 108.489 232.908 110.484 232.065L108.928 228.38C106.391 229.452 104.188 231.02 102.334 233.071L105.301 235.754ZM110.492 232.062C112.503 231.202 114.751 230.758 117.264 230.758V226.758C114.27 226.758 111.479 227.29 108.92 228.384L110.492 232.062ZM117.264 230.758C119.756 230.758 121.983 231.202 123.973 232.059L125.556 228.386C123.015 227.291 120.241 226.758 117.264 226.758V230.758ZM123.992 232.067C126.006 232.911 127.736 234.136 129.199 235.754L132.166 233.071C130.308 231.017 128.093 229.448 125.537 228.378L123.992 232.067ZM129.206 235.761C130.665 237.358 131.825 239.324 132.664 241.7L136.435 240.367C135.439 237.547 134.02 235.099 132.159 233.063L129.206 235.761ZM132.664 241.7C133.494 244.048 133.927 246.747 133.927 249.822H137.927C137.927 246.374 137.441 243.214 136.435 240.367L132.664 241.7ZM127.497 251.551V249.764H123.497V251.551H127.497ZM127.497 249.764C127.497 247.543 127.302 245.53 126.889 243.746L122.992 244.649C123.321 246.067 123.497 247.766 123.497 249.764H127.497ZM126.895 243.773C126.506 241.98 125.903 240.385 125.041 239.043L121.676 241.207C122.219 242.052 122.671 243.172 122.986 244.621L126.895 243.773ZM125.041 239.043C124.172 237.693 123.057 236.621 121.685 235.896L119.817 239.432C120.515 239.801 121.138 240.37 121.676 241.207L125.041 239.043ZM121.725 235.917C120.376 235.165 118.871 234.814 117.264 234.814V238.814C118.276 238.814 119.095 239.03 119.777 239.411L121.725 235.917ZM117.264 234.814C115.616 234.814 114.078 235.158 112.716 235.917L114.664 239.411C115.334 239.038 116.178 238.814 117.264 238.814V234.814ZM112.742 235.903C111.386 236.634 110.291 237.712 109.445 239.065L112.837 241.185C113.359 240.35 113.964 239.788 114.638 239.425L112.742 235.903ZM109.445 239.065C108.61 240.401 108.021 241.988 107.634 243.773L111.543 244.621C111.859 243.164 112.305 242.036 112.837 241.185L109.445 239.065ZM107.63 243.791C107.264 245.558 107.091 247.555 107.091 249.764H111.091C111.091 247.754 111.249 246.039 111.547 244.603L107.63 243.791ZM107.091 249.764V251.551H111.091V249.764H107.091ZM107.091 251.551C107.091 253.742 107.264 255.736 107.629 257.518L111.548 256.716C111.249 255.256 111.091 253.539 111.091 251.551H107.091ZM107.635 257.546C108.023 259.313 108.611 260.891 109.437 262.236L112.846 260.143C112.305 259.262 111.857 258.125 111.542 256.688L107.635 257.546ZM109.45 262.257C110.308 263.615 111.401 264.706 112.745 265.456L114.694 261.962C114.007 261.579 113.381 260.99 112.832 260.121L109.45 262.257ZM112.76 265.464C114.133 266.215 115.674 266.559 117.323 266.559V262.559C116.238 262.559 115.377 262.336 114.68 261.954L112.76 265.464ZM117.323 266.559C118.929 266.559 120.434 266.208 121.784 265.456L119.835 261.962C119.153 262.343 118.334 262.559 117.323 262.559V266.559ZM121.784 265.456C123.134 264.703 124.222 263.605 125.063 262.236L121.654 260.143C121.127 261.001 120.516 261.583 119.835 261.962L121.784 265.456ZM125.049 262.257C125.902 260.906 126.504 259.321 126.894 257.546L122.987 256.688C122.673 258.117 122.22 259.246 121.667 260.121L125.049 262.257ZM126.89 257.563C127.302 255.764 127.497 253.754 127.497 251.551H123.497C123.497 253.527 123.321 255.228 122.991 256.671L126.89 257.563ZM160.957 261.951L159.027 261.426L158.994 261.546L158.977 261.668L160.957 261.951ZM169.834 229.344V227.344H168.305L167.904 228.818L169.834 229.344ZM181.347 229.344L183.242 229.983L184.132 227.344H181.347V229.344ZM166.963 272V274H168.399L168.858 272.639L166.963 272ZM159.521 272L157.541 271.717L157.215 274H159.521V272ZM152.9 229.344L154.83 228.818L154.428 227.344H152.9V229.344ZM161.777 261.951L163.755 261.657L163.738 261.54L163.707 261.426L161.777 261.951ZM163.271 272V274H165.59L165.249 271.706L163.271 272ZM155.742 272L153.845 272.636L154.303 274H155.742V272ZM141.445 229.344V227.344H138.665L139.549 229.979L141.445 229.344ZM162.886 262.477L171.763 229.869L167.904 228.818L159.027 261.426L162.886 262.477ZM169.834 231.344H181.347V227.344H169.834V231.344ZM179.452 228.705L165.067 271.361L168.858 272.639L183.242 229.983L179.452 228.705ZM166.963 270H159.521V274H166.963V270ZM161.501 272.283L162.937 262.234L158.977 261.668L157.541 271.717L161.501 272.283ZM150.97 229.869L159.847 262.477L163.707 261.426L154.83 228.818L150.97 229.869ZM159.799 262.245L161.293 272.294L165.249 271.706L163.755 261.657L159.799 262.245ZM163.271 270H155.742V274H163.271V270ZM157.638 271.364L143.341 228.708L139.549 229.979L153.845 272.636L157.638 271.364ZM141.445 231.344H152.9V227.344H141.445V231.344ZM204.532 238.309L206.443 238.899L206.491 238.742L206.513 238.581L204.532 238.309ZM194.131 272V274H195.607L196.042 272.59L194.131 272ZM183.086 272L181.209 271.31L180.221 274H183.086V272ZM198.76 229.344V227.344H197.364L196.883 228.654L198.76 229.344ZM205.762 229.344L207.744 229.616L208.055 227.344H205.762V229.344ZM213.145 272L211.234 272.591L211.67 274H213.145V272ZM202.715 238.309L200.737 238.606L200.76 238.756L200.805 238.9L202.715 238.309ZM201.368 229.344V227.344H199.044L199.39 229.641L201.368 229.344ZM208.457 229.344L210.333 228.651L209.851 227.344H208.457V229.344ZM224.219 272V274H227.09L226.095 271.307L224.219 272ZM212.735 256.092H214.735V254.092H212.735V256.092ZM212.735 264.031V266.031H214.735V264.031H212.735ZM190.85 264.031H188.85V266.031H190.85V264.031ZM190.85 256.092V254.092H188.85V256.092H190.85ZM202.621 237.719L192.22 271.41L196.042 272.59L206.443 238.899L202.621 237.719ZM194.131 270H183.086V274H194.131V270ZM184.964 272.69L200.637 230.034L196.883 228.654L181.209 271.31L184.964 272.69ZM198.76 231.344H205.762V227.344H198.76V231.344ZM203.781 229.072L202.55 238.037L206.513 238.581L207.744 229.616L203.781 229.072ZM215.055 271.409L204.626 237.717L200.805 238.9L211.234 272.591L215.055 271.409ZM204.693 238.011L203.345 229.046L199.39 229.641L200.737 238.606L204.693 238.011ZM201.368 231.344H208.457V227.344H201.368V231.344ZM206.581 230.037L222.343 272.693L226.095 271.307L210.333 228.651L206.581 230.037ZM224.219 270H213.145V274H224.219V270ZM210.735 256.092V264.031H214.735V256.092H210.735ZM212.735 262.031H190.85V266.031H212.735V262.031ZM192.85 264.031V256.092H188.85V264.031H192.85ZM190.85 258.092H212.735V254.092H190.85V258.092ZM255.167 257.557V255.557H253.215L253.168 257.508L255.167 257.557ZM265.421 257.557L267.419 257.649L267.515 255.557H265.421V257.557ZM256.925 270.711L257.798 272.511L257.803 272.508L256.925 270.711ZM240.138 271.15L239.348 272.988L239.354 272.99L240.138 271.15ZM234.454 267.02L232.937 268.322L232.945 268.332L234.454 267.02ZM230.909 260.486L229.001 261.084L229.005 261.097L230.909 260.486ZM230.968 240.887L229.071 240.254L229.068 240.263L230.968 240.887ZM234.601 234.324L233.093 233.011L233.092 233.012L234.601 234.324ZM262.989 236.199L261.278 237.235L261.282 237.241L262.989 236.199ZM265.48 244.08V246.08H267.659L267.472 243.909L265.48 244.08ZM255.226 244.08L253.226 244.129L253.274 246.08H255.226V244.08ZM254.405 240.066L252.591 240.909L252.597 240.921L254.405 240.066ZM241.984 239.715L240.28 238.667L241.984 239.715ZM240.577 243.67L238.614 243.291L238.612 243.301L238.61 243.31L240.577 243.67ZM244.21 263.826L243.301 265.608L243.323 265.619L243.345 265.629L244.21 263.826ZM251.739 263.797L252.567 265.618L252.581 265.611L252.594 265.605L251.739 263.797ZM254.23 261.512L255.962 262.511L255.966 262.504L255.97 262.497L254.23 261.512ZM244.122 271.707V269.707H242.502L242.166 271.292L244.122 271.707ZM251.652 271.707L253.62 272.062L254.044 269.707H251.652V271.707ZM251.329 273.494L249.361 273.139L249.006 275.111L250.978 275.463L251.329 273.494ZM254.347 274.9L255.624 273.361L255.614 273.353L255.604 273.345L254.347 274.9ZM255.021 281.521L253.256 280.58L253.252 280.588L253.248 280.596L255.021 281.521ZM249.513 285.301L249.041 283.357L249.028 283.36L249.015 283.364L249.513 285.301ZM244.767 285.828L242.768 285.903L242.841 287.828H244.767V285.828ZM244.562 280.379V278.379H242.485L242.563 280.454L244.562 280.379ZM245.909 280.145L245.167 278.288L245.909 280.145ZM246.818 279.412L245.184 278.259L245.16 278.292L245.138 278.326L246.818 279.412ZM246.759 276.922L245.293 278.283L245.297 278.287L246.759 276.922ZM245.499 276.277L246.015 274.345L245.984 274.337L245.954 274.33L245.499 276.277ZM243.214 275.984L241.258 275.569L240.776 277.836L243.089 277.98L243.214 275.984ZM255.167 259.557H265.421V255.557H255.167V259.557ZM263.423 257.465C263.301 260.117 262.593 262.384 261.339 264.322L264.698 266.494C266.374 263.902 267.268 260.934 267.419 257.649L263.423 257.465ZM261.339 264.322C260.086 266.261 258.342 267.792 256.047 268.914L257.803 272.508C260.703 271.09 263.022 269.087 264.698 266.494L261.339 264.322ZM256.052 268.911C253.801 270.003 251.065 270.586 247.784 270.586V274.586C251.535 274.586 254.893 273.919 257.798 272.511L256.052 268.911ZM247.784 270.586C245.158 270.586 242.882 270.146 240.922 269.31L239.354 272.99C241.886 274.069 244.708 274.586 247.784 274.586V270.586ZM240.928 269.313C238.972 268.472 237.325 267.273 235.964 265.707L232.945 268.332C234.708 270.36 236.85 271.914 239.348 272.988L240.928 269.313ZM235.972 265.717C234.625 264.148 233.564 262.214 232.814 259.876L229.005 261.097C229.896 263.876 231.198 266.298 232.937 268.322L235.972 265.717ZM232.818 259.889C232.088 257.557 231.708 254.882 231.708 251.844H227.708C227.708 255.211 228.129 258.298 229.001 261.084L232.818 259.889ZM231.708 251.844V249.529H227.708V251.844H231.708ZM231.708 249.529C231.708 246.499 232.106 243.834 232.868 241.51L229.068 240.263C228.151 243.057 227.708 246.153 227.708 249.529H231.708ZM232.865 241.519C233.653 239.156 234.743 237.208 236.11 235.637L233.092 233.012C231.333 235.034 230.002 237.461 229.071 240.254L232.865 241.519ZM236.109 235.638C237.496 234.046 239.147 232.837 241.08 231.999L239.489 228.329C237.008 229.405 234.87 230.97 233.093 233.011L236.109 235.638ZM241.08 231.999C243.007 231.163 245.183 230.729 247.638 230.729V226.729C244.702 226.729 241.975 227.251 239.489 228.329L241.08 231.999ZM247.638 230.729C251.117 230.729 253.917 231.352 256.121 232.496L257.964 228.946C255.05 227.433 251.58 226.729 247.638 226.729V230.729ZM256.121 232.496C258.374 233.665 260.074 235.244 261.278 237.235L264.701 235.164C263.092 232.506 260.828 230.432 257.964 228.946L256.121 232.496ZM261.282 237.241C262.512 239.257 263.257 241.58 263.487 244.252L267.472 243.909C267.194 240.681 266.279 237.751 264.697 235.157L261.282 237.241ZM265.48 242.08H255.226V246.08H265.48V242.08ZM257.225 244.031C257.182 242.243 256.875 240.61 256.214 239.212L252.597 240.921C252.952 241.671 253.192 242.714 253.226 244.129L257.225 244.031ZM256.219 239.224C255.518 237.714 254.39 236.563 252.898 235.817L251.109 239.394C251.804 239.742 252.277 240.232 252.591 240.909L256.219 239.224ZM252.898 235.817C251.424 235.08 249.626 234.785 247.638 234.785V238.785C249.282 238.785 250.395 239.037 251.109 239.394L252.898 235.817ZM247.638 234.785C246.123 234.785 244.701 235.066 243.433 235.699L245.222 239.277C245.829 238.974 246.614 238.785 247.638 238.785V234.785ZM243.433 235.699C242.118 236.357 241.073 237.378 240.28 238.667L243.687 240.763C244.144 240.02 244.662 239.557 245.222 239.277L243.433 235.699ZM240.28 238.667C239.49 239.95 238.955 241.518 238.614 243.291L242.541 244.048C242.824 242.58 243.227 241.511 243.687 240.763L240.28 238.667ZM238.61 243.31C238.289 245.066 238.138 247.127 238.138 249.471H242.138C242.138 247.283 242.28 245.477 242.545 244.03L238.61 243.31ZM238.138 249.471V251.844H242.138V249.471H238.138ZM238.138 251.844C238.138 254.182 238.278 256.235 238.577 257.981L242.52 257.308C242.271 255.851 242.138 254.037 242.138 251.844H238.138ZM238.577 257.981C238.877 259.741 239.379 261.304 240.149 262.594L243.584 260.546C243.143 259.805 242.766 258.751 242.52 257.308L238.577 257.981ZM240.149 262.594C240.927 263.9 241.975 264.931 243.301 265.608L245.119 262.045C244.531 261.745 244.017 261.272 243.584 260.546L240.149 262.594ZM243.345 265.629C244.659 266.26 246.164 266.529 247.784 266.529V262.529C246.592 262.529 245.714 262.33 245.076 262.023L243.345 265.629ZM247.784 266.529C249.544 266.529 251.163 266.256 252.567 265.618L250.912 261.976C250.167 262.315 249.15 262.529 247.784 262.529V266.529ZM252.594 265.605C254.031 264.926 255.17 263.884 255.962 262.511L252.497 260.512C252.118 261.17 251.596 261.652 250.885 261.989L252.594 265.605ZM255.97 262.497C256.764 261.094 257.122 259.427 257.167 257.605L253.168 257.508C253.134 258.89 252.867 259.859 252.489 260.527L255.97 262.497ZM244.122 273.707H251.652V269.707H244.122V273.707ZM249.683 271.352L249.361 273.139L253.298 273.849L253.62 272.062L249.683 271.352ZM250.978 275.463C251.719 275.595 252.417 275.912 253.089 276.456L255.604 273.345C254.441 272.405 253.127 271.784 251.681 271.525L250.978 275.463ZM253.07 276.44C253.365 276.685 253.724 277.224 253.724 278.562H257.724C257.724 276.541 257.165 274.64 255.624 273.361L253.07 276.44ZM253.724 278.562C253.724 279.361 253.556 280.019 253.256 280.58L256.785 282.463C257.423 281.266 257.724 279.952 257.724 278.562H253.724ZM253.248 280.596C252.942 281.182 252.476 281.719 251.791 282.199L254.09 285.473C255.241 284.664 256.162 283.658 256.794 282.447L253.248 280.596ZM251.791 282.199C251.123 282.669 250.225 283.07 249.041 283.357L249.985 287.244C251.536 286.868 252.923 286.292 254.09 285.473L251.791 282.199ZM249.015 283.364C247.848 283.664 246.439 283.828 244.767 283.828V287.828C246.688 287.828 248.444 287.641 250.011 287.238L249.015 283.364ZM246.765 285.753L246.56 280.304L242.563 280.454L242.768 285.903L246.765 285.753ZM244.562 282.379C245.273 282.379 245.982 282.27 246.652 282.001L245.167 278.288C245.056 278.332 244.866 278.379 244.562 278.379V282.379ZM246.652 282.001C247.401 281.702 248.042 281.201 248.497 280.499L245.138 278.326C245.141 278.322 245.145 278.316 245.152 278.308C245.159 278.3 245.167 278.293 245.174 278.287C245.177 278.285 245.18 278.283 245.182 278.281C245.185 278.28 245.186 278.279 245.186 278.279C245.186 278.279 245.184 278.28 245.181 278.281C245.178 278.283 245.173 278.285 245.167 278.288L246.652 282.001ZM248.452 280.565C248.986 279.808 249.169 278.941 249.169 278.123H245.169C245.169 278.241 245.156 278.299 245.152 278.315C245.149 278.326 245.154 278.3 245.184 278.259L248.452 280.565ZM249.169 278.123C249.169 277.249 248.926 276.312 248.221 275.557L245.297 278.287C245.266 278.253 245.239 278.217 245.217 278.18C245.195 278.143 245.182 278.111 245.174 278.088C245.159 278.043 245.169 278.046 245.169 278.123H249.169ZM248.225 275.561C247.6 274.888 246.759 274.543 246.015 274.345L244.984 278.21C245.177 278.261 245.289 278.309 245.343 278.336C245.397 278.364 245.361 278.356 245.293 278.283L248.225 275.561ZM245.954 274.33C245.217 274.158 244.333 274.05 243.339 273.988L243.089 277.98C243.97 278.036 244.61 278.124 245.045 278.225L245.954 274.33ZM245.17 276.4L246.079 272.122L242.166 271.292L241.258 275.569L245.17 276.4ZM292.561 238.309L294.472 238.899L294.52 238.742L294.542 238.581L292.561 238.309ZM282.16 272V274H283.636L284.071 272.59L282.16 272ZM271.115 272L269.238 271.31L268.25 274H271.115V272ZM286.789 229.344V227.344H285.393L284.912 228.654L286.789 229.344ZM293.791 229.344L295.772 229.616L296.084 227.344H293.791V229.344ZM301.174 272L299.263 272.591L299.699 274H301.174V272ZM290.744 238.309L288.766 238.606L288.789 238.756L288.834 238.9L290.744 238.309ZM289.396 229.344V227.344H287.073L287.419 229.641L289.396 229.344ZM296.486 229.344L298.362 228.651L297.879 227.344H296.486V229.344ZM312.248 272V274H315.119L314.124 271.307L312.248 272ZM300.764 256.092H302.764V254.092H300.764V256.092ZM300.764 264.031V266.031H302.764V264.031H300.764ZM278.879 264.031H276.879V266.031H278.879V264.031ZM278.879 256.092V254.092H276.879V256.092H278.879ZM297.57 217.859L297.688 215.863L295.57 215.738V217.859H297.57ZM303.02 218.182H305.02V216.296L303.138 216.185L303.02 218.182ZM302.141 222.137L300.34 221.266L300.335 221.277L300.329 221.289L302.141 222.137ZM293.85 225.828L293.153 227.703L293.185 227.715L293.217 227.725L293.85 225.828ZM291.916 224.949L290.93 226.689L290.942 226.696L290.954 226.703L291.916 224.949ZM290.1 224.1L289.326 225.944L289.361 225.959L289.397 225.972L290.1 224.1ZM286.496 224.363L285.114 222.918L285.098 222.933L285.082 222.949L286.496 224.363ZM285.852 226.355L285.745 228.353L287.852 228.465V226.355H285.852ZM280.344 226.062H278.344V227.959L280.238 228.06L280.344 226.062ZM281.193 222.166L279.388 221.306L279.382 221.319L281.193 222.166ZM283.596 219.207L284.776 220.822L284.786 220.814L284.796 220.807L283.596 219.207ZM289.279 218.445L288.583 220.32L288.607 220.329L288.631 220.337L289.279 218.445ZM291.271 219.295L290.356 221.073L290.377 221.084L290.399 221.095L291.271 219.295ZM293.205 220.145L292.472 222.005L292.506 222.019L292.539 222.031L293.205 220.145ZM296.867 219.852L295.516 218.377L295.5 218.392L295.485 218.406L296.867 219.852ZM290.65 237.719L280.249 271.41L284.071 272.59L294.472 238.899L290.65 237.719ZM282.16 270H271.115V274H282.16V270ZM272.993 272.69L288.666 230.034L284.912 228.654L269.238 271.31L272.993 272.69ZM286.789 231.344H293.791V227.344H286.789V231.344ZM291.81 229.072L290.579 238.037L294.542 238.581L295.772 229.616L291.81 229.072ZM303.084 271.409L292.655 237.717L288.834 238.9L299.263 272.591L303.084 271.409ZM292.722 238.011L291.374 229.046L287.419 229.641L288.766 238.606L292.722 238.011ZM289.396 231.344H296.486V227.344H289.396V231.344ZM294.61 230.037L310.372 272.693L314.124 271.307L298.362 228.651L294.61 230.037ZM312.248 270H301.174V274H312.248V270ZM298.764 256.092V264.031H302.764V256.092H298.764ZM300.764 262.031H278.879V266.031H300.764V262.031ZM280.879 264.031V256.092H276.879V264.031H280.879ZM278.879 258.092H300.764V254.092H278.879V258.092ZM297.452 219.856L302.901 220.178L303.138 216.185L297.688 215.863L297.452 219.856ZM301.02 218.182C301.02 219.324 300.787 220.342 300.34 221.266L303.941 223.008C304.666 221.509 305.02 219.891 305.02 218.182H301.02ZM300.329 221.289C299.896 222.215 299.314 222.921 298.588 223.452L300.948 226.681C302.252 225.728 303.252 224.48 303.952 222.984L300.329 221.289ZM298.588 223.452C297.934 223.929 297.181 224.18 296.252 224.18V228.18C297.979 228.18 299.57 227.688 300.948 226.681L298.588 223.452ZM296.252 224.18C295.524 224.18 294.943 224.084 294.482 223.931L293.217 227.725C294.162 228.041 295.183 228.18 296.252 228.18V224.18ZM294.546 223.953C293.949 223.731 293.393 223.478 292.878 223.196L290.954 226.703C291.65 227.084 292.383 227.417 293.153 227.703L294.546 223.953ZM292.902 223.209C292.226 222.826 291.526 222.498 290.802 222.227L289.397 225.972C289.924 226.17 290.434 226.408 290.93 226.689L292.902 223.209ZM290.873 222.255C289.993 221.886 289.051 221.719 288.078 221.719V225.719C288.589 225.719 288.996 225.805 289.326 225.944L290.873 222.255ZM288.078 221.719C286.943 221.719 285.924 222.143 285.114 222.918L287.879 225.809C287.938 225.752 287.973 225.736 287.983 225.732C287.992 225.728 288.018 225.719 288.078 225.719V221.719ZM285.082 222.949C284.13 223.901 283.852 225.179 283.852 226.355H287.852C287.852 225.735 288.003 225.685 287.91 225.777L285.082 222.949ZM285.958 224.358L280.45 224.065L280.238 228.06L285.745 228.353L285.958 224.358ZM282.344 226.062C282.344 224.957 282.567 223.949 283.005 223.013L279.382 221.319C278.687 222.805 278.344 224.394 278.344 226.062H282.344ZM282.999 223.026C283.455 222.069 284.05 221.352 284.776 220.822L282.416 217.592C281.11 218.546 280.104 219.802 279.388 221.306L282.999 223.026ZM284.796 220.807C285.448 220.317 286.195 220.064 287.111 220.064V216.064C285.372 216.064 283.774 216.573 282.396 217.607L284.796 220.807ZM287.111 220.064C287.646 220.064 288.132 220.153 288.583 220.32L289.976 216.57C289.059 216.23 288.1 216.064 287.111 216.064V220.064ZM288.631 220.337C289.222 220.54 289.797 220.785 290.356 221.073L292.187 217.517C291.457 217.141 290.704 216.819 289.928 216.553L288.631 220.337ZM290.399 221.095C291.088 221.428 291.779 221.732 292.472 222.005L293.938 218.284C293.342 218.049 292.744 217.786 292.144 217.495L290.399 221.095ZM292.539 222.031C293.417 222.34 294.326 222.496 295.256 222.496V218.496C294.78 218.496 294.321 218.418 293.871 218.259L292.539 222.031ZM295.256 222.496C296.393 222.496 297.426 222.085 298.25 221.297L295.485 218.406C295.431 218.458 295.398 218.473 295.385 218.478C295.371 218.484 295.335 218.496 295.256 218.496V222.496ZM298.219 221.326C299.248 220.382 299.57 219.081 299.57 217.859H295.57C295.57 218.141 295.533 218.297 295.509 218.366C295.489 218.422 295.483 218.407 295.516 218.377L298.219 221.326ZM353.655 260.34L351.769 259.673L351.766 259.682L353.655 260.34ZM349.817 266.961L351.294 268.31L351.301 268.302L349.817 266.961ZM343.929 271.15L344.707 272.993L344.713 272.99L344.72 272.987L343.929 271.15ZM328.87 271.15L328.078 272.987L328.088 272.991L328.097 272.995L328.87 271.15ZM322.952 266.961L321.469 268.302L321.476 268.311L321.484 268.319L322.952 266.961ZM319.085 260.34L317.195 260.994L317.198 261.002L317.201 261.011L319.085 260.34ZM319.085 241.033L317.199 240.367L317.195 240.379L319.085 241.033ZM322.923 234.412L321.439 233.071L321.438 233.072L322.923 234.412ZM328.811 230.223L329.59 232.065L329.597 232.062L328.811 230.223ZM343.87 230.223L343.078 232.059L343.088 232.063L343.097 232.067L343.87 230.223ZM349.788 234.412L348.304 235.754L348.312 235.761L349.788 234.412ZM344.046 244.197L342.091 244.621L342.094 244.635L342.097 244.649L344.046 244.197ZM342.464 240.125L340.781 241.207L342.464 240.125ZM339.856 237.664L338.882 239.411L338.902 239.422L338.922 239.432L339.856 237.664ZM332.796 237.664L333.744 239.425L333.757 239.418L333.77 239.411L332.796 237.664ZM328.694 244.197L326.74 243.773L326.738 243.782L326.736 243.791L328.694 244.197ZM328.694 257.117L326.735 257.518L326.738 257.532L326.741 257.546L328.694 257.117ZM330.247 261.189L328.543 262.236L328.549 262.247L328.556 262.257L330.247 261.189ZM332.825 263.709L331.851 265.456L331.858 265.46L331.865 265.464L332.825 263.709ZM339.915 263.709L340.889 265.456L339.915 263.709ZM342.464 261.189L340.773 260.121L340.766 260.132L340.759 260.143L342.464 261.189ZM344.046 257.117L342.096 256.671L342.094 256.68L342.092 256.688L344.046 257.117ZM353.032 249.822V251.551H357.032V249.822H353.032ZM353.032 251.551C353.032 254.626 352.599 257.325 351.769 259.673L355.541 261.006C356.547 258.159 357.032 254.999 357.032 251.551H353.032ZM351.766 259.682C350.947 262.033 349.797 264.001 348.334 265.62L351.301 268.302C353.158 266.249 354.566 263.803 355.544 260.998L351.766 259.682ZM348.341 265.612C346.872 267.218 345.143 268.449 343.137 269.314L344.72 272.987C347.245 271.899 349.442 270.336 351.293 268.31L348.341 265.612ZM343.15 269.308C341.157 270.15 338.925 270.586 336.429 270.586V274.586C339.4 274.586 342.169 274.065 344.707 272.993L343.15 269.308ZM336.429 270.586C333.91 270.586 331.657 270.149 329.643 269.306L328.097 272.995C330.653 274.066 333.439 274.586 336.429 274.586V270.586ZM329.662 269.314C327.653 268.448 325.911 267.215 324.42 265.603L321.484 268.319C323.352 270.34 325.555 271.9 328.078 272.987L329.662 269.314ZM324.435 265.62C322.969 263.998 321.808 262.026 320.969 259.669L317.201 261.011C318.197 263.81 319.614 266.252 321.469 268.302L324.435 265.62ZM320.975 259.686C320.161 257.334 319.737 254.63 319.737 251.551H315.737C315.737 254.995 316.211 258.151 317.195 260.994L320.975 259.686ZM319.737 251.551V249.822H315.737V251.551H319.737ZM319.737 249.822C319.737 246.743 320.161 244.039 320.975 241.687L317.195 240.379C316.211 243.223 315.737 246.378 315.737 249.822H319.737ZM320.97 241.7C321.811 239.32 322.964 237.35 324.407 235.753L321.438 233.072C319.6 235.107 318.194 237.551 317.199 240.367L320.97 241.7ZM324.406 235.754C325.872 234.133 327.595 232.908 329.59 232.065L328.033 228.38C325.497 229.452 323.294 231.02 321.439 233.071L324.406 235.754ZM329.597 232.062C331.608 231.202 333.857 230.758 336.37 230.758V226.758C333.375 226.758 330.585 227.29 328.025 228.384L329.597 232.062ZM336.37 230.758C338.862 230.758 341.088 231.202 343.078 232.059L344.662 228.386C342.12 227.291 339.347 226.758 336.37 226.758V230.758ZM343.097 232.067C345.112 232.911 346.842 234.136 348.304 235.754L351.271 233.071C349.414 231.017 347.198 229.448 344.643 228.378L343.097 232.067ZM348.312 235.761C349.77 237.358 350.93 239.324 351.769 241.7L355.541 240.367C354.544 237.547 353.126 235.099 351.264 233.063L348.312 235.761ZM351.769 241.7C352.599 244.048 353.032 246.747 353.032 249.822H357.032C357.032 246.374 356.547 243.214 355.541 240.367L351.769 241.7ZM346.602 251.551V249.764H342.602V251.551H346.602ZM346.602 249.764C346.602 247.543 346.408 245.53 345.994 243.746L342.097 244.649C342.426 246.067 342.602 247.766 342.602 249.764H346.602ZM346 243.773C345.611 241.98 345.009 240.385 344.146 239.043L340.781 241.207C341.325 242.052 341.777 243.172 342.091 244.621L346 243.773ZM344.146 239.043C343.278 237.693 342.163 236.621 340.791 235.896L338.922 239.432C339.62 239.801 340.243 240.37 340.781 241.207L344.146 239.043ZM340.83 235.917C339.481 235.165 337.976 234.814 336.37 234.814V238.814C337.381 238.814 338.2 239.03 338.882 239.411L340.83 235.917ZM336.37 234.814C334.722 234.814 333.183 235.158 331.822 235.917L333.77 239.411C334.439 239.038 335.284 238.814 336.37 238.814V234.814ZM331.848 235.903C330.491 236.634 329.396 237.712 328.551 239.065L331.943 241.185C332.465 240.35 333.069 239.788 333.744 239.425L331.848 235.903ZM328.551 239.065C327.716 240.401 327.127 241.988 326.74 243.773L330.649 244.621C330.965 243.164 331.411 242.036 331.943 241.185L328.551 239.065ZM326.736 243.791C326.369 245.558 326.196 247.555 326.196 249.764H330.196C330.196 247.754 330.355 246.039 330.653 244.603L326.736 243.791ZM326.196 249.764V251.551H330.196V249.764H326.196ZM326.196 251.551C326.196 253.742 326.37 255.736 326.735 257.518L330.653 256.716C330.354 255.256 330.196 253.539 330.196 251.551H326.196ZM326.741 257.546C327.128 259.313 327.716 260.891 328.543 262.236L331.951 260.143C331.41 259.262 330.963 258.125 330.648 256.688L326.741 257.546ZM328.556 262.257C329.414 263.615 330.507 264.706 331.851 265.456L333.799 261.962C333.112 261.579 332.486 260.99 331.938 260.121L328.556 262.257ZM331.865 265.464C333.238 266.215 334.779 266.559 336.429 266.559V262.559C335.343 262.559 334.482 262.336 333.785 261.954L331.865 265.464ZM336.429 266.559C338.035 266.559 339.54 266.208 340.889 265.456L338.941 261.962C338.259 262.343 337.44 262.559 336.429 262.559V266.559ZM340.889 265.456C342.24 264.703 343.328 263.605 344.168 262.236L340.759 260.143C340.233 261.001 339.621 261.583 338.941 261.962L340.889 265.456ZM344.155 262.257C345.008 260.906 345.61 259.321 345.999 257.546L342.092 256.688C341.779 258.117 341.326 259.246 340.773 260.121L344.155 262.257ZM345.995 257.563C346.407 255.764 346.602 253.754 346.602 251.551H342.602C342.602 253.527 342.426 255.228 342.096 256.671L345.995 257.563Z" fill="#939393" mask="url(#path-5-outside-3_1_56)"/>
</svg>
